<?xml version="1.0" encoding="utf-8"?>
<!-- Generator: Adobe Illustrator 19.0.0, SVG Export Plug-In . SVG Version: 6.00 Build 0)  -->
<svg version="1.1" id="Capa_1" xmlns="http://www.w3.org/2000/svg" xmlns:xlink="http://www.w3.org/1999/xlink" x="0px" y="0px"
	 viewBox="206 -137 512 377" style="enable-background:new 206 -137 512 377;" xml:space="preserve">
<style type="text/css">
	.st0{fill:#009688;}
</style>
<g>
	<path class="st0" d="M318,154c-4.4,0-8,3.6-8,8s-3.6,8-8,8s-8-3.6-8-8s3.6-8,8-8s8-3.6,8-8s-3.6-8-8-8c-13.2,0-24,10.8-24,24
		s10.8,24,24,24s24-10.8,24-24C326,157.6,322.4,154,318,154z"/>
	<path class="st0" d="M638,154c-4.4,0-8,3.6-8,8s-3.6,8-8,8s-8-3.6-8-8s3.6-8,8-8s8-3.6,8-8s-3.6-8-8-8c-13.2,0-24,10.8-24,24
		s10.8,24,24,24s24-10.8,24-24C646,157.6,642.4,154,638,154z"/>
	<path class="st0" d="M718,50c0-2.2-0.9-4.2-2.4-5.7c-3.4-9.5-10.4-17.4-19.7-22.1c-0.3-0.1-0.5-0.2-0.8-0.3L668.7,12l-16.1-61.2
		c0-0.1,0-0.2-0.1-0.3C647.4-66.5,632-78,614.2-78H558v-16c0-8.8-7.2-16-16-16H222c-8.8,0-16,7.2-16,16v224c0,8.8,7.2,16,16,16h26.3
		c-0.8,2.6-1.4,5.3-1.8,8H214c-4.4,0-8,3.6-8,8s3.6,8,8,8h32.6c3.9,27.1,27.3,48,55.4,48s51.5-20.9,55.4-48H374
		c0,13.2,10.8,24,24,24h48c13.2,0,24-10.8,24-24h96.6c3.9,27.1,27.3,48,55.4,48s51.5-20.9,55.4-48H710c4.4,0,8-3.6,8-8s-3.6-8-8-8
		h-32.6c-0.4-2.7-1-5.4-1.8-8H702c8.8,0,16-7.2,16-16V58c0-1.9-0.1-3.7-0.4-5.6C717.9,51.7,718,50.9,718,50z M702,98h-8v-8h8V98z
		 M695.9,42H558V26h102.5L689,36.7C691.7,38.1,694,39.9,695.9,42z M614.2-62c10.6,0,19.8,6.8,23,17l14.5,55H558v-72H614.2z M254,130
		h-32V90h248c4.4,0,8-3.6,8-8s-3.6-8-8-8H222V-94h320v224h-96h-48h-48c-0.7,0-1.3,0.1-1.9,0.2C338,115.6,321.1,106,302,106
		s-36,9.6-46.1,24.2C255.3,130.1,254.7,130,254,130z M302,202c-22.1,0-40-17.9-40-40s17.9-40,40-40s40,17.9,40,40S324.1,202,302,202
		z M357.4,154c-0.4-2.7-1-5.4-1.8-8h19.7c-0.9,2.5-1.4,5.2-1.4,8H357.4z M454,170c0,4.4-3.6,8-8,8h-48c-4.4,0-8-3.6-8-8v-8l0,0l0,0
		v-8c0-4.4,3.6-8,8-8h48c4.4,0,8,3.6,8,8V170z M468.6,146H550h18.3c-0.8,2.6-1.4,5.3-1.8,8H470C470,151.2,469.5,148.5,468.6,146z
		 M622,202c-22.1,0-40-17.9-40-40s17.9-40,40-40s40,17.9,40,40S644.1,202,622,202z M670,130c-0.7,0-1.3,0.1-1.9,0.2
		C658,115.6,641.1,106,622,106s-36,9.6-46.1,24.2c-0.6-0.2-1.3-0.2-1.9-0.2h-16V58h144v16h-8c-8.8,0-16,7.2-16,16v8
		c0,8.8,7.2,16,16,16h8v16H670z"/>
	<path class="st0" d="M406,154c-2.1,0-4.2,0.9-5.7,2.3c-1.5,1.5-2.3,3.6-2.3,5.7c0,2.1,0.9,4.2,2.3,5.7c1.5,1.5,3.6,2.3,5.7,2.3
		s4.2-0.9,5.7-2.3c1.5-1.5,2.3-3.6,2.3-5.7c0-2.1-0.9-4.2-2.3-5.7C410.2,154.9,408.1,154,406,154z"/>
	<path class="st0" d="M502,90h16c4.4,0,8-3.6,8-8s-3.6-8-8-8h-16c-4.4,0-8,3.6-8,8S497.6,90,502,90z"/>
</g>
</svg>
