<?xml version="1.0" encoding="utf-8"?>
<!-- Generator: Adobe Illustrator 19.0.0, SVG Export Plug-In . SVG Version: 6.00 Build 0)  -->
<svg version="1.1" id="Capa_1" xmlns="http://www.w3.org/2000/svg" xmlns:xlink="http://www.w3.org/1999/xlink" x="0px" y="0px"
	 viewBox="-18 24.8 61.3 52.2" style="enable-background:new -18 24.8 61.3 52.2;" xml:space="preserve">
<style type="text/css">
	.st0{fill:#E97B1E;}
</style>
<g>
	<g>
		<path class="st0" d="M-3.5,58c-0.1,0-0.3,0-0.3,0.1c-0.1,0.1-0.1,0.2-0.1,0.3h1c0-0.1-0.1-0.3-0.1-0.3C-3.2,58-3.3,58-3.5,58z"/>
		<path class="st0" d="M-12.1,53.2c0.2,0,0.3-0.1,0.4-0.3c0.1-0.2,0.1-0.5,0.1-0.9s0-0.7-0.1-0.9s-0.2-0.3-0.4-0.3s-0.3,0.1-0.4,0.3
			c-0.1,0.2-0.1,0.5-0.1,0.9s0,0.7,0.1,0.9C-12.5,53.1-12.3,53.2-12.1,53.2z"/>
		<path class="st0" d="M4.3,58.7L4.3,58.7c-0.2,0-0.3,0-0.4,0.1S3.8,58.9,3.8,59c0,0.1,0,0.2,0.1,0.2s0.1,0.1,0.2,0.1
			c0.1,0,0.2,0,0.3-0.1c0.1-0.1,0.2-0.2,0.2-0.4v-0.2c0,0-0.1,0-0.1,0.1C4.4,58.7,4.3,58.7,4.3,58.7z"/>
		<path class="st0" d="M4.5,50.7c-0.2,0-0.3,0.1-0.4,0.3S4,51.5,4,51.9s0,0.7,0.1,0.9s0.2,0.3,0.4,0.3c0.2,0,0.3-0.1,0.4-0.3
			S5,52.3,5,51.9s0-0.7-0.1-0.9C4.9,50.8,4.8,50.7,4.5,50.7z"/>
		<path class="st0" d="M1.8,50.7c-0.2,0-0.3,0.1-0.4,0.3c-0.1,0.2-0.1,0.5-0.1,0.9s0,0.7,0.1,0.9s0.2,0.3,0.4,0.3s0.3-0.1,0.4-0.3
			s0.1-0.5,0.1-0.9s0-0.7-0.1-0.9S2,50.7,1.8,50.7z"/>
		<path class="st0" d="M-9.4,50.7c-0.2,0-0.3,0.1-0.4,0.3c-0.1,0.2-0.1,0.5-0.1,0.9s0,0.7,0.1,0.9s0.2,0.3,0.4,0.3S-9.1,53-9,52.8
			c0.1-0.2,0.1-0.5,0.1-0.9s0-0.7-0.1-0.9S-9.1,50.7-9.4,50.7z"/>
		<path class="st0" d="M-3.8,53.2c0.2,0,0.3-0.1,0.4-0.3c0.1-0.2,0.1-0.5,0.1-0.9s0-0.7-0.1-0.9c-0.1-0.3-0.2-0.4-0.4-0.4
			c-0.2,0-0.3,0.1-0.4,0.3s-0.1,0.5-0.1,0.9s0,0.7,0.1,0.9C-4.1,53.1-4,53.2-3.8,53.2z"/>
		<path class="st0" d="M15.7,57.4v-3.6v-0.6l0.5-0.3l3.1-1.8l1.8-3.1l0.3-0.5H22h3.6l3.1-1.8l0.5-0.3l0.5,0.3l3.1,1.8h3.6h0.6
			l0.3,0.5l1.2,2.1l0.5,0.9l0.5,0.3l1,0.6v-21c0-2.2-1.7-3.9-3.9-3.9h-50.6c-2.1,0-3.9,1.8-3.9,3.9v29.4c0,2.2,1.7,3.9,3.9,3.9h29.5
			l-0.6-1l-0.6-1l-0.4-0.7L13.5,61l0.3-0.5L15.7,57.4z M11.1,53.3c-0.2,0.3-0.5,0.5-0.9,0.5s-0.9-0.2-1-0.5C9,53,8.9,52.5,8.9,51.9
			c0-0.6,0.1-1,0.3-1.4c0.2-0.3,0.5-0.5,0.9-0.5c0.5,0,0.8,0.2,0.9,0.5c0.2,0.3,0.3,0.8,0.3,1.4C11.3,52.5,11.2,53,11.1,53.3z
			 M4.5,53.8c-0.5,0-0.8-0.2-0.9-0.5C3.4,53,3.3,52.5,3.3,52c0-0.6,0.1-1,0.3-1.4c0.2-0.3,0.5-0.5,0.9-0.5s0.8,0.2,0.9,0.5
			c0.2,0.3,0.3,0.8,0.3,1.4s-0.1,1-0.3,1.3C5.3,53.6,5,53.8,4.5,53.8z M6.1,51.9c0-0.6,0.1-1,0.3-1.4C6.6,50.2,6.9,50,7.3,50
			c0.5,0,0.8,0.2,0.9,0.5c0.2,0.3,0.3,0.8,0.3,1.4s-0.1,1-0.3,1.4c-0.1,0.3-0.4,0.5-0.9,0.5s-0.8-0.2-0.9-0.5
			C6.2,53,6.1,52.5,6.1,51.9z M2.7,53.3c-0.2,0.3-0.5,0.5-0.9,0.5c-0.5,0-0.8-0.2-0.9-0.5c-0.2-0.3-0.3-0.8-0.3-1.4
			c0-0.6,0.1-1,0.3-1.4C1.1,50.2,1.4,50,1.8,50c0.5,0,0.8,0.2,0.9,0.5C2.9,50.8,3,51.3,3,51.9S2.9,53,2.7,53.3z M-8.4,53.3
			c-0.2,0.3-0.5,0.5-1,0.5s-0.8-0.2-0.9-0.5c-0.2-0.3-0.3-0.8-0.3-1.4c0-0.6,0.1-1,0.3-1.4c0.2-0.3,0.5-0.5,0.9-0.5s0.8,0.2,0.9,0.5
			c0.2,0.3,0.3,0.8,0.3,1.4C-8.1,52.5-8.2,53-8.4,53.3z M-11.6,41.9v-2.1h2.1v2.1H-11.6L-11.6,41.9z M-3.5,41.9L-3.5,41.9h-2.1v-2.1
			h2.1L-3.5,41.9L-3.5,41.9z M-5.6,43h1.9c-0.3,0.8-1,1.4-1.9,1.6C-5.6,44.7-5.6,43-5.6,43z M-6.1,38.7L-6.1,38.7h-0.5v3.2h-1.8
			v-5.3h2.1c1.3,0,2.4,0.9,2.8,2.1H-6.1L-6.1,38.7z M-9.6,38.7h-2c0.3-0.9,1-1.7,2-2V38.7z M-9.6,43v1.6c-0.8-0.2-1.5-0.9-1.9-1.6
			H-9.6z M-8.5,43h1.8v1.8h-1.8V43z M-6.6,50.1c0.4,0,0.8,0.2,0.9,0.5c0.2,0.3,0.3,0.8,0.3,1.4s-0.1,1-0.3,1.4
			c-0.1,0.2-0.4,0.4-0.9,0.4s-0.8-0.2-0.9-0.5C-7.7,53-7.8,52.5-7.8,52c0-0.6,0.1-1,0.3-1.4C-7.3,50.3-7,50.1-6.6,50.1z M-12.1,50.1
			c0.4,0,0.8,0.2,0.9,0.5c0.2,0.3,0.3,0.8,0.3,1.4s-0.1,1-0.3,1.4c-0.2,0.3-0.5,0.5-0.9,0.5c-0.5,0-0.8-0.2-0.9-0.5
			c-0.2-0.3-0.3-0.8-0.3-1.4c0-0.6,0.1-1,0.3-1.4C-12.9,50.3-12.6,50.1-12.1,50.1z M-5,51.9c0-0.6,0.1-1,0.3-1.4
			c0.2-0.3,0.5-0.5,0.9-0.5s0.8,0.2,0.9,0.5c0.2,0.3,0.3,0.8,0.3,1.4s-0.1,1-0.3,1.4c-0.1,0.3-0.4,0.5-0.9,0.5s-0.8-0.2-0.9-0.5
			S-5,52.5-5,51.9z M30.2,42.6c-0.8,0-1.6-0.2-2.3-0.5C27.1,42.6,26.1,43,25,43c-3,0-5.5-2.5-5.5-5.5S22,32,25,32
			c0.9,0,1.8,0.3,2.6,0.7c0.8-0.4,1.7-0.7,2.6-0.7c2.9,0,5.3,2.4,5.3,5.3C35.5,40.2,33.1,42.6,30.2,42.6z"/>
		<path class="st0" d="M10.1,50.7c-0.2,0-0.3,0.1-0.4,0.3c-0.1,0.2-0.1,0.5-0.1,0.9s0,0.7,0.1,0.9s0.2,0.3,0.4,0.3s0.3-0.1,0.4-0.3
			c0.1-0.2,0.1-0.5,0.1-0.9s0-0.7-0.1-0.9C10.4,50.8,10.3,50.7,10.1,50.7z"/>
		<path class="st0" d="M7.3,53.2c0.2,0,0.3-0.1,0.4-0.3s0.1-0.5,0.1-0.9s0-0.7-0.1-0.9s-0.2-0.3-0.4-0.3S7,50.8,6.9,51
			c-0.1,0.2-0.1,0.5-0.1,0.9s0,0.7,0.1,0.9C7,53.1,7.1,53.2,7.3,53.2z"/>
		<path class="st0" d="M-9.3,58.7h-0.1c-0.1,0-0.2,0-0.3,0.1s-0.1,0.1-0.1,0.2c0,0.1,0,0.2,0.1,0.2s0.1,0.1,0.2,0.1
			c0.1,0,0.2,0,0.3-0.1S-9,59-9,58.8v-0.2c0,0-0.1,0-0.1,0.1C-9.2,58.7-9.2,58.7-9.3,58.7z"/>
		<path class="st0" d="M-6.6,53.2c0.2,0,0.3-0.1,0.4-0.3s0.1-0.5,0.1-0.9s0-0.7-0.1-0.9s-0.2-0.3-0.4-0.3s-0.3,0.1-0.4,0.3
			s-0.1,0.5-0.1,0.9s0,0.7,0.1,0.9C-6.9,53.1-6.8,53.2-6.6,53.2z"/>
		<path class="st0" d="M10.6,58.4c0-0.1-0.1-0.3-0.1-0.3C10.4,58,10.3,58,10.2,58s-0.3,0-0.3,0.1c-0.1,0.1-0.1,0.2-0.1,0.3"/>
		<path class="st0" d="M25.9,37.1h-0.5h-0.5c0-0.2,0-0.5,0.1-0.7h0.5H26h2.9c-0.1-0.3-0.1-0.6-0.2-0.8h-2.5h-0.5h-0.5
			c0.1-0.2,0.2-0.5,0.3-0.7h0.6h0.6h1.7c-0.2-0.3-0.4-0.6-0.6-0.8h-0.3h-0.7h-0.7c0.2-0.3,0.4-0.5,0.7-0.7c-0.5-0.2-1.1-0.3-1.6-0.3
			c-2.5,0-4.4,2-4.4,4.4c0,2.5,2,4.4,4.4,4.4c0.7,0,1.3-0.2,1.9-0.5c-0.2-0.1-0.4-0.3-0.5-0.5h0.8h-0.2c0.1-0.1,0.2-0.2,0.3-0.3
			c0.2-0.2,0.3-0.3,0.5-0.5h-1h-0.7h-0.6c-0.1-0.2-0.2-0.4-0.3-0.6H26h0.6h1.9c0.1-0.3,0.3-0.5,0.3-0.8h-2.6h-0.5h-0.5
			C25,38.5,25,38.2,25,38h0.5H26h3c0-0.2,0.1-0.4,0.1-0.6c0-0.1,0-0.1,0-0.2L25.9,37.1L25.9,37.1z"/>
		<path class="st0" d="M41.6,53.8l-1-0.6l-1-0.6l-1-0.6l-0.2-0.1l-1.9-3.3h-3.8l-3.5-1.9l-3.3,1.9h-3.8l-1.9,3.3l-3.4,1.9v3.8
			l-1.9,3.3l0.7,1.2l0.6,1l0.6,1l0,0v3.8l3.3,1.9l1.9,3.3h3.8L29,75l3.3-1.9h3.8l1.9-3.3l3.3-1.9v-3.8l1.9-3.3l-1.9-3.3L41.6,53.8
			L41.6,53.8z M21.7,54.7c0.7-0.7,1.6-1.1,2.6-1.1s1.9,0.4,2.6,1.1c0.7,0.7,1.1,1.6,1.1,2.6s-0.4,1.9-1.1,2.6
			c-0.7,0.7-1.6,1.1-2.6,1.1s-1.9-0.4-2.6-1.1c-0.7-0.7-1.1-1.6-1.1-2.6S21,55.4,21.7,54.7z M25.9,68.5h-1.6l2.3-4.2l0.6-1l0.6-1
			l4.7-8.6H34l-4.7,8.6l-0.6,1l-0.6,1L25.9,68.5z M36.7,67.3c-0.7,0.7-1.6,1.1-2.6,1.1s-1.9-0.4-2.6-1.1c-0.7-0.7-1.1-1.6-1.1-2.6
			c0-0.1,0-0.2,0-0.4c0-0.4,0.1-0.7,0.2-1c0.2-0.4,0.4-0.7,0.7-1c0.1-0.1,0.1-0.1,0.2-0.2c0.7-0.7,1.6-1.1,2.6-1.1s1.9,0.4,2.6,1.1
			c0.1,0.1,0.1,0.1,0.1,0.2c0.3,0.3,0.5,0.6,0.6,0.9c0.1,0.3,0.2,0.6,0.3,1c0,0.2,0,0.3,0,0.5C37.8,65.7,37.4,66.5,36.7,67.3z"/>
		<path class="st0" d="M24.3,58.9c0.4,0,0.8-0.2,1.1-0.5s0.5-0.7,0.5-1.1c0-0.4-0.2-0.8-0.5-1.1s-0.7-0.5-1.1-0.5
			c-0.4,0-0.8,0.2-1.1,0.5c-0.3,0.3-0.5,0.7-0.5,1.1c0,0.4,0.2,0.8,0.5,1.1C23.5,58.8,23.9,58.9,24.3,58.9z"/>
		<path class="st0" d="M35.2,63.5c-0.1-0.1-0.3-0.2-0.4-0.3C34.5,63.1,34.3,63,34,63c-0.3,0-0.5,0.1-0.7,0.2
			c-0.1,0.1-0.3,0.2-0.4,0.3c-0.2,0.2-0.3,0.5-0.4,0.8c0,0.1-0.1,0.2-0.1,0.4c0,0.4,0.2,0.8,0.5,1.1c0.3,0.3,0.7,0.5,1.1,0.5
			c0.4,0,0.8-0.2,1.1-0.5s0.5-0.7,0.5-1.1c0-0.1,0-0.2-0.1-0.4C35.5,64,35.4,63.7,35.2,63.5z"/>
	</g>
</g>
</svg>
