<?xml version="1.0" encoding="utf-8"?>
<!-- Generator: Adobe Illustrator 19.0.0, SVG Export Plug-In . SVG Version: 6.00 Build 0)  -->
<svg version="1.1" xmlns="http://www.w3.org/2000/svg" xmlns:xlink="http://www.w3.org/1999/xlink" x="0px" y="0px"
	 viewBox="0 0 431.6 702.4" style="enable-background:new 0 0 431.6 702.4;" xml:space="preserve">
<style type="text/css">
	.st0{fill:#EDEDED;}
	.st1{fill:#3C3C3B;}
	.st2{fill:#7D4E24;}
	.st3{fill:#1D71B8;}
	.st4{fill:#C3B1A0;}
	.st5{fill:#E1D8CF;}
	.st6{fill:#B49373;}
	.st7{fill:#4E2D0D;}
	.st8{fill:#683C11;}
	.st9{fill:#866341;}
	.st10{fill:#824B15;}
	.st11{fill:#9B6F44;}
	.st12{fill:#A48A70;}
	.st13{fill:#ECBE98;}
</style>
<g id="Background">
</g>
<g id="Objects">
	<ellipse class="st0" cx="224.7" cy="662.5" rx="160.7" ry="39.8"/>
	<g>
		<g>
			<path class="st1" d="M176.4,631.5c0,0,3.7,8.2,3.7,11c0,2.8-14,16-14,16l-9-2.8c0,0,5-10.5,7-16c0-5-0.3-8.3-0.3-8.3L176.4,631.5
				z"/>
			<path class="st1" d="M233.8,632c0,0,5.2,8.2,5.2,11c0,2.8-14,16-14,16l-9-2.8c0,0,5-10.5,7-16c0-5-0.3-8.3-0.3-8.3L233.8,632z"/>
			<path class="st2" d="M173,476.2l1.1,10.3c0,0-11,62.4-11.6,81.1c-0.6,18.6,1.2,65.3,1.2,65.3l12.8-0.7l4.2-63.2
				c0,0,22.8-63.9,26.2-63.9c3.4,0,7.5,57.1,8.7,64.4c1.1,7.3,6.8,64.2,6.8,64.2l11.8-0.7c0,0,0.3-60,0.8-64
				c0.6-4,20.8-92.9,20.8-92.9H173z"/>
			<path class="st3" d="M257.5,473.8l5.7-31.1h-78c0,0-15.4,24.8-11.4,35.9c3.4,9.7,8.9,16.9,36.2,16.9
				C236.8,495.6,254.1,484.6,257.5,473.8z"/>
		</g>
		<g>
			<g>
				<polygon class="st4" points="389.4,346.4 311.4,322.7 256,336.8 296.7,383.2 				"/>
				<g>
					<polygon class="st5" points="364.6,429.8 388.2,346.4 297.9,360 295.6,462.2 358.3,458.3 					"/>
					<path class="st6" d="M295.6,462.2l62.7-4l29.8-107.5c0,0-17.5,52-42.5,74.5S295.6,462.2,295.6,462.2z"/>
				</g>
			</g>
			<g>
				<polygon class="st7" points="430.9,340.5 340.1,361.8 340.5,303.2 431.6,277.3 				"/>
				<polygon class="st8" points="341.6,303.4 213.1,270.7 209.2,339.1 340.3,361.6 				"/>
				<polygon class="st9" points="431.6,277.8 298.9,231.6 209.1,272.2 338.8,305.5 				"/>
				<polygon class="st10" points="344.1,352.8 344.6,328.8 426.1,310.8 424.6,334.3 				"/>
			</g>
			<g>
				<polygon class="st11" points="373.6,196.2 377.5,267.9 275.8,279.2 276.4,202.8 				"/>
				<polygon class="st6" points="196,174.9 277.6,207.2 275.8,279.2 196.6,257.2 				"/>
				<polygon class="st4" points="373.6,196.2 285.9,168 201.7,183.2 277.6,204.7 				"/>
				<polygon class="st9" points="293.6,212.8 295.1,238.3 360.1,234.3 358.1,208.3 				"/>
			</g>
			<g>
				<g>
					<polygon class="st11" points="50.7,177.1 53.1,267.8 146.3,284.2 145.6,191.1 					"/>
					<polygon class="st9" points="222.4,162.1 143.7,191.2 145.7,282.9 224.4,253.9 					"/>
					<polygon class="st12" points="50.1,177.7 137.4,148.2 221.1,162.2 142.5,195.6 					"/>
				</g>
				<polygon class="st9" points="56.6,186.3 56.6,208.8 97.1,216.8 97.6,192.8 				"/>
			</g>
			<g>
				<polygon class="st11" points="67.5,417.3 193.9,465.6 201.1,381.2 67.5,340.1 				"/>
				<polygon class="st10" points="295.6,462.2 193.9,465.6 201.1,381.9 296.7,382.6 				"/>
				<polygon class="st6" points="73.1,414.8 75.1,387.3 119.6,398.3 115.6,429.8 				"/>
			</g>
			<g>
				<polygon class="st12" points="300.7,328.4 236.8,328.9 231.8,404.6 297.3,399 				"/>
				<polygon class="st6" points="242.1,395.8 242.1,372.3 291.6,369.3 290.1,392.8 				"/>
				<g>
					<polygon class="st8" points="236.8,328.9 231.8,404.6 31.5,354.6 26.4,282.5 					"/>
					<path class="st9" d="M28.6,310.8l2.9,43.9l118.1,29.1C149.6,383.8,47.6,361.3,28.6,310.8z"/>
				</g>
			</g>
			<polygon class="st11" points="300.7,328.4 199,293.9 90.3,262.9 26.4,282.5 236.8,328.9 			"/>
			<g>
				<polygon class="st9" points="341.3,249 304.7,258.2 340,263.5 378.1,255.2 				"/>
				<polygon class="st11" points="343.2,312.8 339.3,263.5 377.7,254.9 381.7,302.7 				"/>
				<polygon class="st10" points="305.1,258.2 340,263.5 343.2,312.8 305.6,300.3 				"/>
			</g>
			<g>
				<g>
					<polygon class="st5" points="170.2,207.5 232.9,219.3 173.9,231.9 108.7,221.8 					"/>
					<polygon class="st4" points="173.6,315.4 175.1,231.9 109.3,221.1 107.5,302.4 					"/>
					<polygon class="st12" points="232.3,219.3 173.9,231.9 173.6,315.4 235.7,290.5 					"/>
				</g>
				<polygon class="st6" points="114.1,235.8 113.6,262.8 169.1,270.3 169.1,242.3 				"/>
			</g>
			<g>
				<g>
					<polygon class="st4" points="49.4,220.6 98.8,229.9 52.3,239.8 1,231.9 					"/>
					<polygon class="st12" points="52.1,305.6 53.3,239.8 1.5,231.4 0,295.4 					"/>
					<polygon class="st9" points="98.4,229.9 52.3,239.8 52.1,305.6 101,286 					"/>
				</g>
				<path class="st11" d="M52.1,305.6l49-19.6l-2.7-56.1C98.4,229.9,102.6,285.4,52.1,305.6z"/>
			</g>
			<g>
				<g>
					<polygon class="st11" points="256.7,258.7 205.6,271.5 254.8,279 308,267.4 					"/>
					<polygon class="st9" points="259.2,347.6 253.8,279 307.4,266.9 313,333.7 					"/>
					<polygon class="st10" points="206.1,271.5 254.8,279 259.2,347.6 206.9,330.3 					"/>
				</g>
				<polygon class="st11" points="263.1,337.8 261.6,315.3 303.6,303.3 305.6,324.8 				"/>
				<path class="st9" d="M206.1,271.5l0.7,58.8l52.4,17.4c0,0-24.7-9.8-35.2-31.8S206.1,271.5,206.1,271.5z"/>
			</g>
			<g>
				<polygon class="st6" points="280.8,73.7 396,102.1 283.7,138.5 162.5,104 				"/>
				<polygon class="st11" points="283.7,138.5 284,211.6 162.5,166.7 163.1,103.4 				"/>
				<polygon class="st8" points="395.4,102.1 393.5,181.3 284,211.6 283.7,138.5 				"/>
				<polygon class="st7" points="295.6,148.3 296.6,175.8 387.1,145.8 387.6,115.8 				"/>
				<path class="st9" d="M283.7,138.5l0.2,73.1l-76.9-28.3c0,0,39,11.5,53.5,1S283.7,138.5,283.7,138.5z"/>
			</g>
			<g>
				<g>
					<polygon class="st12" points="177.6,172.2 207.1,177.8 179.3,183.7 148.6,179 					"/>
					<polygon class="st8" points="179.2,223.1 179.9,183.7 148.9,178.7 148,217 					"/>
					<polygon class="st10" points="206.8,177.8 179.3,183.7 179.2,223.1 208.4,211.4 					"/>
				</g>
				<path class="st9" d="M179.2,223.1l29.3-11.7l-1.6-33.5c0,0,0.7,11.5-8.8,25.5S179.2,223.1,179.2,223.1z"/>
			</g>
			<g>
				<g>
					<polygon class="st6" points="129,102.5 178.4,111.9 131.9,121.8 80.6,113.8 					"/>
					<polygon class="st10" points="131.7,187.5 132.9,121.8 81.1,113.3 79.6,177.3 					"/>
					<polygon class="st9" points="178,111.9 131.9,121.8 131.7,187.5 180.7,167.9 					"/>
				</g>
				<polygon class="st11" points="86.6,121.3 85.6,144.8 123.1,150.3 123.6,126.8 				"/>
			</g>
			<g>
				<g>
					<polygon class="st5" points="218.3,0 293.1,14.1 222.7,29.1 145,17.1 					"/>
					<polygon class="st4" points="222.4,128.7 224.2,29.1 145.7,16.3 143.5,113.2 					"/>
					<polygon class="st12" points="292.4,14.1 222.7,29.1 222.4,128.7 296.5,99 					"/>
				</g>
				<polygon class="st5" points="157.1,36.3 207.1,43.8 206.6,72.3 155.6,63.8 				"/>
			</g>
			<g>
				<g>
					<polygon class="st6" points="327.1,41.1 376.5,50.5 330,60.4 278.7,52.4 					"/>
					<polygon class="st8" points="329.8,126.1 331,60.4 279.2,51.9 277.7,115.9 					"/>
					<polygon class="st10" points="376.1,50.5 330,60.4 329.8,126.1 378.7,106.6 					"/>
				</g>
				<polygon class="st9" points="336.1,78.3 337.1,104.3 370.1,96.8 367.6,70.8 				"/>
				<path class="st11" d="M329.6,126.3l-52.5-10.5l2.1-63.9c0,0,1.9,32.4,13.4,50.4S329.6,126.3,329.6,126.3z"/>
			</g>
		</g>
		<g>
			<g>
				<path class="st3" d="M321.7,460.2c0,0-1.6,19.4-16.6,26.6c-15,7.3-58.9-38-58.9-38l9.6-9.6c0,0,28.8,23.7,36.8,23
					S321.7,460.2,321.7,460.2z"/>
				<path class="st13" d="M255.8,439.2c0,0,0.5-8.5,1.4-12.1c0.9-3.7-5.1-8.8-5.5-4c-0.4,4.8-0.7,11.3-3.5,11.1
					c-2.8-0.2-2.8-15-6.5-15.1s-0.2,16.9-0.2,16.9s-6.5-15.1-9.1-12.9c-2.6,2.2,5.5,13.6,5.5,13.6s-7-6.6-8.7-3.7
					c-1.8,3,16.9,15.8,16.9,15.8L255.8,439.2z"/>
			</g>
			<g>
				<path class="st3" d="M139.5,452.6c-7.7-5.4-3-13.6,3.9-24c6.8-10.3,24.1-25.3,24.1-25.3l9.3,6.1
					C176.8,409.4,156.5,464.5,139.5,452.6z"/>
				<path class="st13" d="M170.2,404.3c0,0-4.1-17.3-0.4-18.9c3.7-1.7,3.5,6.9,5.4,8.9c2,2,10.2-2.9,13.9-4.6c3.7-1.7,6,2.1,3.9,4.1
					c-2,2-11.7,5-11.7,5s15.5-3.8,16.2-1.4c0.8,2.4-11.2,5.6-11.2,5.6s12.9,1.5,12.3,5.4c-0.6,3.9-12-0.2-12-0.2s4.9,5.4,2.8,7.3
					c-2,2-12.8-6.1-12.8-6.1L170.2,404.3z"/>
			</g>
		</g>
	</g>
</g>
</svg>
