<?xml version="1.0" encoding="utf-8"?>
<!-- Generator: Adobe Illustrator 19.0.0, SVG Export Plug-In . SVG Version: 6.00 Build 0)  -->
<svg version="1.1" id="Layer_1" xmlns="http://www.w3.org/2000/svg" xmlns:xlink="http://www.w3.org/1999/xlink" x="0px" y="0px"
	 viewBox="350 -267 800 632" style="enable-background:new 350 -267 800 632;" xml:space="preserve">
<style type="text/css">
	.st0{display:none;}
	.st1{display:inline;fill:#9ECAD9;}
	.st2{enable-background:new    ;}
	.st3{fill:#E8E8E8;}
	.st4{fill:#3D4A52;}
	.st5{fill:#546670;}
	.st6{fill:#C2E2EB;}
	.st7{fill:#DFF0F5;}
	.st8{fill:#61666A;}
	.st9{fill:#C4C8CC;}
	.st10{fill:#A1A5A8;}
	.st11{fill:#354047;}
	.st12{fill:#DBDDDE;}
	.st13{fill:#EEEFF0;}
	.st14{fill:#FFBA48;}
	.st15{fill:#E69D25;}
	.st16{fill:#F2A527;}
	.st17{fill:#FCF1D4;}
	.st18{fill:#FFC88C;}
	.st19{fill:#F5A854;}
	.st20{fill:#F5BA7B;}
	.st21{opacity:0.51;}
	.st22{fill:#A7A9AC;}
	.st23{opacity:0.51;fill:#A7A9AC;enable-background:new    ;}
	.st24{opacity:0.55;fill:#FFFFFF;enable-background:new    ;}
	.st25{fill:#9DCDE1;}
	.st26{clip-path:url(#SVGID_2_);enable-background:new    ;}
	.st27{fill:#852548;}
	.st28{fill:#FFCB75;}
	.st29{fill:#D91E63;}
	.st30{fill:#CF922D;}
	.st31{clip-path:url(#SVGID_4_);enable-background:new    ;}
	.st32{fill:#DE5066;}
	.st33{fill:#F794A4;}
	.st34{fill:#D41C22;}
	.st35{fill:#F7ADB9;}
	.st36{fill:#F7C8D0;}
	.st37{fill:#E2E4E6;}
	.st38{fill:#FFFFFF;}
	.st39{fill:#F1F2F2;}
	.st40{fill:#AD171C;}
	.st41{fill:#C3CDD6;}
	.st42{fill:#D3DEE8;}
	.st43{fill:#282829;}
	.st44{fill:#414042;}
	.st45{fill:#58595B;}
	.st46{fill:#9DD593;}
	.st47{fill:#73B867;}
	.st48{fill:#80CC72;}
	.st49{fill:#285987;}
	.st50{fill:#3577B5;}
	.st51{fill:#FFD1BA;}
	.st52{fill:#60ACF3;}
	.st53{font-family:'ArialMT';}
	.st54{font-size:28.6068px;}
	.st55{fill:#9C7DD2;}
	.st56{fill:#856BB3;}
	.st57{fill:#AD8CEB;}
	.st58{fill:#FFFEFD;}
	.st59{fill:#F2F2EF;}
	.st60{fill:#FF9900;}
	.st61{fill:#E37900;}
	.st62{fill:#702C8D;}
	.st63{fill:#8E38B3;}
	.st64{fill:#AEE4F5;}
	.st65{fill:#F5FAF8;}
	.st66{fill:#A967AA;}
	.st67{fill:#FFFAC0;}
	.st68{fill:#FFF2A6;}
	.st69{fill:#8E72BF;}
	.st70{display:inline;}
	.st71{fill:#458499;}
</style>
<g id="BACKGROUND" class="st0">
	<rect id="XMLID_393_" x="350" y="-324" class="st1" width="800" height="800"/>
</g>
<g id="OBJECTS">
	<g id="XMLID_1_">
		<g id="XMLID_510_">
			<g id="XMLID_483_">
				<g id="XMLID_484_" class="st2">
					<g id="XMLID_496_">
						<path id="XMLID_497_" class="st3" d="M1055.9,13.7l-0.1,33.9c0,6.8-4.5,13.6-13.5,18.8l0.1-33.9
							C1051.4,27.3,1055.9,20.5,1055.9,13.7z"/>
					</g>
					<g id="XMLID_493_">
						<path id="XMLID_494_" class="st3" d="M429.8,157.4l0.1-33.9c0,6.9,4.5,13.8,13.7,19.1l-0.1,33.9
							C434.3,171.2,429.7,164.3,429.8,157.4z"/>
					</g>
					<g id="XMLID_490_">
						<polygon id="XMLID_492_" class="st3" points="1042.5,32.5 1042.4,66.4 681.5,276.1 681.6,242.2 						"/>
					</g>
					<g id="XMLID_488_">
						<polygon id="XMLID_489_" class="st3" points="616.1,242.2 616,276.1 443.4,176.5 443.5,142.6 						"/>
					</g>
					<g id="XMLID_486_">
						<path id="XMLID_487_" class="st3" d="M681.6,242.2l-0.1,33.9c-18,10.5-47.3,10.5-65.5,0l0.1-33.9
							C634.3,252.7,663.6,252.7,681.6,242.2z"/>
					</g>
					<g id="XMLID_485_">
						<path id="XMLID_491_" class="st4" d="M1042.3-5.4c18.1,10.5,18.2,27.4,0.2,37.9L681.6,242.2c-18,10.5-47.3,10.5-65.5,0
							l-172.6-99.6c-18.1-10.5-18.2-27.5-0.2-37.9L804.2-105c18-10.5,47.3-10.5,65.5,0L1042.3-5.4z"/>
					</g>
				</g>
			</g>
			<g id="XMLID_498_">
				<path id="XMLID_499_" class="st5" d="M1032.2-4.1c17.3,10,17.4,26.2,0.2,36.2L682.6,235.3c-17.2,10-45.2,10-62.5,0l-164.7-95.1
					c-17.3-10-17.4-26.2-0.2-36.2L805-99.2c17.2-10,45.2-10,62.5,0L1032.2-4.1z"/>
			</g>
			<g id="XMLID_500_">
				<polygon id="XMLID_503_" class="st6" points="1020.6,33.3 700.1,219.2 482.7,93.6 803.2,-92.3 				"/>
				<polygon id="XMLID_513_" class="st7" points="810.3,-96.6 707.3,214.8 489.9,89.2 				"/>
			</g>
			<g id="XMLID_504_">
				<path id="XMLID_509_" class="st8" d="M547.3,217c2.2,1.3,4.1,4.4,4,7c0,2.6-1.8,3.6-4.1,2.3l-35-20.3c-2.2-1.3-4-4.4-4-7
					s1.8-3.6,4.1-2.3L547.3,217z"/>
			</g>
			<g id="XMLID_507_">
				<path id="XMLID_511_" class="st8" d="M493.6,187.3c1.7,1,3.1,3.4,3.1,5.4s-1.4,2.8-3.2,1.8c-1.7-1-3.2-3.4-3.1-5.4
					C490.4,187.1,491.8,186.3,493.6,187.3z"/>
			</g>
			<g id="XMLID_502_">
				<g id="XMLID_508_">
					<path id="XMLID_520_" class="st9" d="M784.3,200.4c0,4.1-2.9,9.1-6.5,11.2L721.6,244c-2.6,1.5-4.9,1-5.9-1
						c-0.4-0.7-0.6-1.6-0.6-2.7c0-4.1,2.9-9.2,6.5-11.2l56.2-32.5c0.9-0.5,1.8-0.8,2.5-0.9C782.6,195.6,784.3,197.3,784.3,200.4z"/>
				</g>
				<g id="XMLID_506_">
					<path id="XMLID_518_" class="st10" d="M780.9,198.6c0,4.1-2.9,9.1-6.5,11.2l-56.2,32.5c-0.9,0.5-1.8,0.8-2.6,0.9
						c-0.4-0.7-0.6-1.6-0.6-2.7c0-4.1,2.9-9.2,6.5-11.2l56.2-32.5c0.9-0.5,1.8-0.8,2.5-0.9C780.7,196.5,780.9,197.5,780.9,198.6z"/>
				</g>
			</g>
			<g id="XMLID_743_">
				<g id="XMLID_750_">
					<path id="XMLID_751_" class="st9" d="M945.1,107.5c0,4.1-2.9,9.1-6.5,11.2L837,177.4c-2.6,1.5-4.9,1-5.9-1
						c-0.4-0.7-0.6-1.6-0.6-2.7c0-4.1,2.9-9.2,6.5-11.2l101.7-58.7c0.9-0.5,1.8-0.8,2.5-0.9C943.5,102.7,945.1,104.4,945.1,107.5z"
						/>
				</g>
				<g id="XMLID_746_">
					<path id="XMLID_749_" class="st10" d="M941.7,105.7c0,4.1-2.9,9.1-6.5,11.2l-101.7,58.7c-0.9,0.5-1.8,0.8-2.6,0.9
						c-0.4-0.7-0.6-1.6-0.6-2.7c0-4.1,2.9-9.2,6.5-11.2l101.7-58.7c0.9-0.5,1.8-0.8,2.5-0.9C941.5,103.7,941.7,104.6,941.7,105.7z"
						/>
				</g>
			</g>
			<g id="XMLID_501_">
				<path id="XMLID_505_" class="st11" d="M587.3,166.5c4.1,2.4,4.1,6.2,0.1,8.5l-15.4,8.9c-4,2.4-10.6,2.3-14.7,0l-15.5-8.9
					c-4.1-2.3-4.1-6.1,0-8.5l15.4-8.9c4-2.4,10.6-2.3,14.7,0L587.3,166.5z"/>
			</g>
			<g id="XMLID_512_">
				<path id="XMLID_516_" class="st11" d="M935.9-43.9c2.3,1.3,2.3,3.5,0,4.8s-6,1.3-8.3,0L893.2-59c-2.3-1.3-2.3-3.5,0-4.8
					s6-1.3,8.3,0L935.9-43.9z"/>
			</g>
			<g id="XMLID_517_">
				<path id="XMLID_521_" class="st11" d="M959.8-30.1c2.3,1.3,2.3,3.5,0,4.8s-6,1.3-8.3,0l-8-4.6c-2.3-1.3-2.3-3.5,0-4.8
					s6-1.3,8.3,0L959.8-30.1z"/>
			</g>
			<g id="XMLID_514_">
				<path id="XMLID_519_" class="st11" d="M975.2-21.5c2.4,1.4,2.5,3.7,0,5.1c-2.4,1.4-6.4,1.4-8.8,0c-2.4-1.4-2.5-3.7,0-5.1
					C968.8-22.9,972.8-22.9,975.2-21.5z"/>
			</g>
		</g>
		<g id="XMLID_591_">
			<g id="XMLID_640_">
				<polygon id="XMLID_643_" class="st12" points="859,-177.3 910.7,-147.4 910.7,-140.4 859.2,-170.2 				"/>
				<polygon id="XMLID_642_" class="st13" points="859,-104 859,-177.3 864.8,-174 864.8,-100.7 				"/>
				<polygon id="XMLID_641_" class="st13" points="905,-77.4 905,-150.7 910.7,-147.4 910.7,-74.1 				"/>
			</g>
			<g id="XMLID_589_">
				<polygon id="XMLID_567_" class="st14" points="812.9,-115.8 897.1,-67.2 889.5,66.9 805.3,18.3 				"/>
				<polygon id="XMLID_582_" class="st14" points="903.8,-79.5 925.2,-83.4 932.9,41.9 903.8,46.3 				"/>
				<polygon id="XMLID_570_" class="st15" points="903.8,46.3 903.8,-79.5 897.1,-67.2 889.5,66.9 				"/>
				<polygon id="XMLID_584_" class="st16" points="932.9,41.9 903.8,34.5 889.5,66.9 				"/>
			</g>
			<g id="XMLID_590_">
				<polygon id="XMLID_568_" class="st17" points="903.8,-79.5 897.1,-67.2 812.9,-115.8 835.1,-119.2 841,-132 925.2,-83.4 				"/>
				<g id="XMLID_588_">
					<polygon id="XMLID_569_" class="st18" points="900.8,-81.2 895,-70.5 818.5,-114.6 837.9,-117.6 843,-128.8 919.5,-84.6 					
						"/>
					<polygon id="XMLID_587_" class="st19" points="837.9,-117.6 837.9,-103.5 818.5,-114.6 					"/>
					<polygon id="XMLID_586_" class="st20" points="843,-128.8 843,-100.5 837.9,-103.5 837.9,-117.6 					"/>
				</g>
			</g>
			<g id="XMLID_638_">
				<polygon id="XMLID_636_" class="st12" points="823.4,-156.7 875.1,-126.9 875.1,-119.8 823.6,-149.6 				"/>
				<polygon id="XMLID_633_" class="st13" points="823.4,-83.4 823.4,-156.7 829.1,-153.4 829.1,-80.1 				"/>
				<polygon id="XMLID_637_" class="st13" points="869.4,-56.9 869.4,-130.2 875.1,-126.9 875.1,-53.6 				"/>
			</g>
		</g>
		<g id="XMLID_639_" class="st21">
			<path id="XMLID_644_" class="st22" d="M757.1,54.7c13.4,7.7,13.5,20.2,0.2,28l-50.5,29.4c-13.3,7.7-34.9,7.7-48.3,0l-50.9-29.4
				c-13.3-7.7-13.5-20.2-0.2-27.9l50.5-29.4c13.3-7.7,34.9-7.7,48.2,0L757.1,54.7z"/>
		</g>
		<path id="XMLID_3977_" class="st23" d="M849.6,96.3c0,0-30.1,25.2-48.5,29.4c-18.4,4.1-31.5,3-49.4-9.8
			c-13.3-9.5-13.6-9.3-22.6-22.1c-9.7-13.6,12.6-56.2,53.3-48.3C823,53.4,849.6,96.3,849.6,96.3z"/>
		<g id="XMLID_571_">
			<g id="XMLID_528_">
				<path id="XMLID_524_" class="st24" d="M602.8,53.7c0,0,10,1.6,19.3,7.9C631.4,68,638,77,638,77v10.3c0,0-4.5,12.4-14.6,6.9
					c-10.1-5.5-18.7-15.4-20.3-26.2C601.5,57.2,602.8,53.7,602.8,53.7z"/>
				<polygon id="XMLID_527_" class="st25" points="608.4,81.1 624.4,64.6 627.6,66.9 610.7,83.9 				"/>
				<polygon id="XMLID_529_" class="st25" points="613.4,86.4 630,68.7 636.4,74.2 619.3,92 				"/>
			</g>
			<g id="XMLID_593_">
				<path id="XMLID_698_" class="st24" d="M652,81.2c0,0,10,1.6,19.3,7.9c9.3,6.4,15.9,15.4,15.9,15.4v10.3c0,0-4.5,12.4-14.6,6.9
					c-10.1-5.6-18.7-15.4-20.3-26.2S652,81.2,652,81.2z"/>
				<polygon id="XMLID_692_" class="st25" points="657.6,108.6 673.6,92 676.8,94.3 659.9,111.4 				"/>
				<polygon id="XMLID_691_" class="st25" points="662.6,113.8 679.2,96.1 685.6,101.7 668.5,119.4 				"/>
			</g>
			<g id="XMLID_615_">
				<g id="XMLID_616_" class="st2">
					<g id="XMLID_631_" class="st2">
						<g>
							<defs>
								<path id="SVGID_1_" d="M740.9,87.4l-1.7-1c-0.1,0-0.1-0.1-0.1-0.1l1.7,1C740.8,87.3,740.8,87.3,740.9,87.4z"/>
							</defs>
							<clipPath id="SVGID_2_">
								<use xlink:href="#SVGID_1_"  style="overflow:visible;"/>
							</clipPath>
							<g id="XMLID_632_" class="st26">
								<path id="XMLID_634_" class="st27" d="M740.9,87.4l-1.7-1c-0.1,0-0.1-0.1-0.1-0.1l1.7,1C740.8,87.3,740.8,87.3,740.9,87.4"
									/>
							</g>
						</g>
					</g>
					<g id="XMLID_628_">
						<polygon id="XMLID_630_" class="st28" points="740.7,87.3 739,86.3 733.2,81.4 735,82.4 						"/>
					</g>
					<g id="XMLID_626_">
						<polygon id="XMLID_627_" class="st28" points="690.7,101.8 688.9,100.8 735.4,77.1 737.1,78.1 						"/>
					</g>
					<g id="XMLID_624_">
						<polygon id="XMLID_625_" class="st29" points="690.7,108 689,107 688.9,100.8 690.7,101.8 						"/>
					</g>
					<g id="XMLID_620_">
						<path id="XMLID_623_" class="st30" d="M690.7,101.8l46.4-23.7l6.7,4.4c1.2,0.8,0.3,3.8-1.5,4.8c-0.6,0.4-1.2,0.4-1.6,0
							l-5.7-4.8L690.7,108V101.8z"/>
					</g>
				</g>
			</g>
			<g id="XMLID_572_">
				<g id="XMLID_573_" class="st2">
					<g id="XMLID_583_" class="st2">
						<g>
							<defs>
								<path id="SVGID_3_" d="M649.9,34.9l-1.7-1c-0.1,0-0.1-0.1-0.1-0.1l1.7,1C649.8,34.8,649.9,34.8,649.9,34.9z"/>
							</defs>
							<clipPath id="SVGID_4_">
								<use xlink:href="#SVGID_3_"  style="overflow:visible;"/>
							</clipPath>
							<g id="XMLID_585_" class="st31">
								<path id="XMLID_594_" class="st27" d="M649.9,34.9l-1.7-1c-0.1,0-0.1-0.1-0.1-0.1l1.7,1C649.8,34.8,649.9,34.8,649.9,34.9"
									/>
							</g>
						</g>
					</g>
					<g id="XMLID_580_">
						<polygon id="XMLID_581_" class="st28" points="649.8,34.8 648,33.8 642.3,28.9 644,29.9 						"/>
					</g>
					<g id="XMLID_578_">
						<polygon id="XMLID_579_" class="st28" points="599.7,49.3 598,48.3 644.4,24.6 646.2,25.6 						"/>
					</g>
					<g id="XMLID_576_">
						<polygon id="XMLID_577_" class="st29" points="599.8,55.5 598,54.5 598,48.3 599.7,49.3 						"/>
					</g>
					<g id="XMLID_574_">
						<path id="XMLID_575_" class="st30" d="M599.7,49.3l46.4-23.7l6.7,4.4c1.2,0.8,0.3,3.8-1.5,4.8c-0.6,0.4-1.2,0.4-1.6,0L644,30
							l-44.3,25.6V49.3z"/>
					</g>
				</g>
			</g>
			<g id="XMLID_600_">
				<g id="XMLID_607_" class="st2">
					<path id="XMLID_599_" class="st30" d="M630.1,93.6c-1.9-0.3-4.2-1.2-6.5-2.6c-6.6-3.8-13.8-11-16-18
						c-2.4-7.5-3.9-16.6-0.5-18.6l-2.3,1.3c-3.4,2-1.9,11.1,0.5,18.6c2.2,6.9,9.5,14.2,16,18c2.3,1.3,4.6,2.3,6.5,2.6
						c1.6,0.3,2.9,0,4-0.6l2.3-1.3C633,93.6,631.7,93.9,630.1,93.6z"/>
					<path id="XMLID_597_" class="st30" d="M639.8,81.3c-0.5,0.3-0.8,0.9-0.8,1.7v0.5c0,5.1-1.5,9.1-4.5,11.3
						c-0.2,0.2-0.5,0.3-0.7,0.5l2.3-1.3c0.2-0.1,0.5-0.3,0.7-0.5c2.9-2.1,4.5-6.2,4.5-11.3v-0.5c0-0.8,0.3-1.4,0.8-1.7L639.8,81.3z"
						/>
					<g id="XMLID_621_">
						<path id="XMLID_622_" class="st30" d="M653.1,85.3l2.3-1.3c-0.8,0.5-1.4,1.3-1.5,2.6c-0.6,6.4,1.1,18.5,8.4,25.7
							c1.9,1.9,4.1,3.6,6.5,4.9c5.3,3.1,11,4.4,14.2,2.5l-2.3,1.3c-3.2,1.9-8.9,0.5-14.2-2.5c-2.3-1.3-4.6-3-6.5-4.9
							c-7.3-7.2-9-19.2-8.4-25.7C651.7,86.6,652.3,85.8,653.1,85.3z"/>
					</g>
					<g id="XMLID_617_">
						<path id="XMLID_618_" class="st30" d="M689.3,109.2l2.3-1.3c-5,2.9-2.5,11.2-6.9,13.7l-2.3,1.3
							C686.8,120.3,684.3,112.1,689.3,109.2z"/>
					</g>
					<path id="XMLID_601_" class="st28" d="M668.9,85.1c-9-5.2-16.7-4.6-17.2-4.9c-0.2-0.1-0.9-0.6-1.8-1.2
						c-1.2-0.9-2.5-1.6-3.7-2.4c-1.2-0.7-2.5-1.3-3.7-1.9c-0.9-0.4-1.6-0.7-1.8-0.8c-0.5-0.3-8.1-9.7-17.1-14.9
						c-9-5.2-23.9-12.4-24.6-12.8l-2.3,1.3c0.8,0.4,15.6,7.6,24.6,12.8c9,5.2,16.6,14.6,17.1,14.9c0.2,0.1,0.9,0.4,1.8,0.8
						c1.2,0.6,2.5,1.2,3.7,1.9c1.2,0.7,2.5,1.5,3.7,2.4c0.9,0.6,1.6,1.1,1.8,1.2c0.5,0.3,8.2-0.3,17.2,4.9
						c9,5.2,23.8,15.1,24.6,15.7l2.3-1.3C692.7,100.3,677.9,90.3,668.9,85.1z"/>
					<g id="XMLID_610_">
						<path id="XMLID_611_" class="st14" d="M666.6,86.5c9,5.2,23.8,15.1,24.6,15.7v6.3c-10.3,2.5,0.4,20.1-19,13.9
							c-2.1-0.7-4-1.5-5.8-2.6c-6.3-3.7-10.5-9.2-13.2-14.2c-2.9-5.5-4.4-11.3-4.4-16.4v-0.5c0-1.7-1.2-3.7-2.6-4.6l-2.3-1.3
							l-2.3-1.3c-1.5-0.8-2.7-0.2-2.7,1.5v0.5c0,5.1-1.5,9.1-4.5,11.3c-2.7,1.9-6.9,2.6-13.2-1c-1.8-1-3.7-2.4-5.8-4.1
							c-19.3-16.1-8.6-21.4-18.8-35.7v-6.3c0.8,0.4,15.6,7.6,24.6,12.8c9,5.2,16.6,14.6,17.1,14.9c0.2,0.1,0.9,0.4,1.8,0.8
							c1.2,0.6,2.5,1.2,3.7,1.9c1.2,0.7,2.5,1.5,3.7,2.4c0.9,0.6,1.6,1.1,1.8,1.2C649.9,81.9,657.6,81.3,666.6,86.5z M627.8,95
							c7.3,1.2,9.1-8.8,8.6-15.9c-0.6-7.1-11.4-14.2-11.9-14.5c-0.1-0.1-2.7-1.9-6.5-4.1c-2.9-1.7-6.4-3.5-9.7-4.7
							c-7.6-2.7-6,9.2-3,18.6c2.2,6.9,9.5,14.2,16,18C623.6,93.7,625.9,94.6,627.8,95 M682.6,119c3-5.9,4.7-16-2.9-22
							c-3.3-2.6-6.8-4.8-9.7-6.5c-3.7-2.2-6.3-3.3-6.5-3.4c-0.6-0.3-11.4-5.7-12,0.7c-0.6,6.4,1.1,18.5,8.4,25.7
							c1.9,1.9,4.1,3.6,6.5,4.9C673.1,122.3,680.3,123.4,682.6,119"/>
					</g>
					<g id="XMLID_608_">
						<polygon id="XMLID_609_" class="st30" points="691.2,102.2 693.5,100.8 693.5,107.1 691.2,108.4 						"/>
					</g>
				</g>
			</g>
		</g>
		<g id="XMLID_482_">
			<g id="XMLID_525_">
				<g id="XMLID_534_">
					<g id="XMLID_535_" class="st2">
						<g id="XMLID_536_">
							<polygon id="XMLID_537_" class="st32" points="733.5,75.3 733.5,-16.4 814.7,-63.3 814.7,28.4 							"/>
						</g>
					</g>
				</g>
				<g id="XMLID_530_">
					<g id="XMLID_531_" class="st2">
						<g id="XMLID_532_">
							<polygon id="XMLID_533_" class="st33" points="652.4,28.5 652.4,-63.2 733.5,-16.4 733.5,75.3 							"/>
						</g>
					</g>
				</g>
				<polygon id="XMLID_526_" class="st34" points="652.4,-63.2 733.7,-110.1 814.7,-63.3 733.5,-16.4 				"/>
				<g id="XMLID_539_">
					<g id="XMLID_550_" class="st2">
						<g id="XMLID_551_">
							<polygon id="XMLID_552_" class="st13" points="767.2,55.9 767.2,-35.9 780.9,-43.8 780.9,47.9 							"/>
						</g>
					</g>
				</g>
				<g id="XMLID_553_">
					<g id="XMLID_554_" class="st2">
						<g id="XMLID_555_">
							<polygon id="XMLID_556_" class="st13" points="699.8,55.9 699.8,-35.9 686.1,-43.8 686.1,47.9 							"/>
						</g>
					</g>
				</g>
			</g>
			<g id="XMLID_540_">
				<g id="XMLID_546_">
					<g id="XMLID_547_" class="st2">
						<g id="XMLID_548_">
							<polygon id="XMLID_549_" class="st33" points="733.5,-2.2 733.5,-20.8 823.2,-72.6 823.2,-54.1 							"/>
						</g>
					</g>
				</g>
				<g id="XMLID_542_">
					<g id="XMLID_543_" class="st2">
						<g id="XMLID_544_">
							<polygon id="XMLID_545_" class="st35" points="644,-53.9 644,-72.4 733.5,-20.8 733.5,-2.2 							"/>
						</g>
					</g>
				</g>
				<polygon id="XMLID_541_" class="st36" points="644,-72.4 733.8,-124.2 823.2,-72.6 733.5,-20.8 				"/>
				<g id="XMLID_557_">
					<g id="XMLID_558_" class="st2">
						<g id="XMLID_559_">
							<polygon id="XMLID_560_" class="st12" points="772,-24.4 772,-43 785.7,-50.9 785.7,-32.4 							"/>
						</g>
					</g>
				</g>
				<g id="XMLID_561_">
					<g id="XMLID_562_" class="st2">
						<g id="XMLID_563_">
							<polygon id="XMLID_564_" class="st37" points="694.1,-24.9 694.1,-43.5 680.4,-51.4 680.4,-32.9 							"/>
						</g>
					</g>
				</g>
				<polygon id="XMLID_566_" class="st38" points="770.1,-103.2 680.4,-51.4 694.1,-43.5 783.9,-95.3 				"/>
				<polygon id="XMLID_565_" class="st39" points="696,-102.7 785.7,-50.9 772,-43 682.2,-94.8 				"/>
			</g>
			<path id="XMLID_538_" class="st40" d="M733.5,75.3"/>
		</g>
		<g id="XMLID_592_">
			<g id="XMLID_702_">
				<g id="XMLID_716_">
					<g id="XMLID_717_" class="st2">
						<g id="XMLID_718_">
							<polygon id="XMLID_719_" class="st41" points="661.2,76.9 661.2,57.8 678.2,48 678.2,67.1 							"/>
						</g>
					</g>
				</g>
				<g id="XMLID_712_">
					<g id="XMLID_713_" class="st2">
						<g id="XMLID_714_">
							<polygon id="XMLID_715_" class="st42" points="644.3,67.2 644.3,48 661.2,57.8 661.2,76.9 							"/>
						</g>
					</g>
				</g>
				<polygon id="XMLID_711_" class="st38" points="644.3,48 661.3,38.3 678.2,48 661.2,57.8 				"/>
			</g>
			<g id="XMLID_699_">
				<g id="XMLID_725_">
					<g id="XMLID_726_" class="st2">
						<g id="XMLID_727_">
							<polygon id="XMLID_728_" class="st41" points="661.2,54.4 661.2,49.6 671.8,43.5 671.8,48.3 							"/>
						</g>
					</g>
				</g>
				<g id="XMLID_721_">
					<g id="XMLID_722_" class="st2">
						<g id="XMLID_723_">
							<polygon id="XMLID_724_" class="st42" points="650.6,48.3 650.6,43.5 661.2,49.6 661.2,54.4 							"/>
						</g>
					</g>
				</g>
				<polygon id="XMLID_701_" class="st38" points="650.6,43.5 661.2,37.4 671.8,43.5 661.2,49.6 				"/>
			</g>
			<g id="XMLID_730_">
				<g id="XMLID_736_">
					<g id="XMLID_737_" class="st2">
						<g id="XMLID_738_">
							<polygon id="XMLID_739_" class="st43" points="661.2,46.6 661.2,15.5 664,13.7 666.6,43.5 							"/>
						</g>
					</g>
				</g>
				<g id="XMLID_732_">
					<g id="XMLID_733_" class="st2">
						<g id="XMLID_734_">
							<polygon id="XMLID_735_" class="st44" points="655.8,43.5 658.4,13.7 661.2,15.5 661.2,46.6 							"/>
						</g>
					</g>
				</g>
				<polygon id="XMLID_731_" class="st45" points="658.4,13.7 661.2,12.1 664,13.7 661.2,15.5 				"/>
			</g>
		</g>
		<g id="XMLID_710_">
			<g id="XMLID_700_">
				<g id="XMLID_704_" class="st2">
					<g id="XMLID_707_">
						<path id="XMLID_748_" class="st44" d="M700.5,35.4l-0.1,52c0,1.3-0.9,2.6-2.6,3.6c-1.2,0.7-2.7,1.1-4.2,1.4
							c-2.9,0.4-6-0.1-8.2-1.4c-1.7-1-2.6-2.3-2.6-3.6l0.1-52c0,1.3,0.9,2.6,2.6,3.6c2.2,1.3,5.3,1.7,8.1,1.4
							c1.6-0.2,3.1-0.7,4.4-1.4C699.6,38,700.5,36.7,700.5,35.4z"/>
					</g>
					<g id="XMLID_705_">
						<path id="XMLID_706_" class="st45" d="M697.9,31.8c3.4,2,3.5,5.2,0,7.2c-3.4,2-9,2-12.4,0s-3.5-5.2,0-7.2
							C688.9,29.8,694.4,29.8,697.9,31.8z"/>
					</g>
				</g>
			</g>
			<path id="XMLID_745_" class="st43" d="M700.5,35.4l-0.1,52c0,1.3-0.9,2.6-2.6,3.6c-1.2,0.7-2.7,1.1-4.2,1.4v-52
				c1.6-0.2,3.1-0.7,4.4-1.4C699.6,38,700.5,36.7,700.5,35.4z"/>
			<g id="XMLID_703_">
				<path id="XMLID_709_" class="st32" d="M700.5,47.1l-0.1,3.3c0,1.3-0.9,2.6-2.6,3.6c-3.4,2-9,2-12.4,0c-1.7-1-2.6-2.3-2.6-3.6
					l0.1-3.3c0,1.3,0.9,2.6,2.6,3.6c3.4,2,9,2,12.4,0C699.6,49.7,700.5,48.4,700.5,47.1z"/>
			</g>
		</g>
		<g id="XMLID_648_">
			<g id="XMLID_660_">
				<polygon id="XMLID_664_" class="st46" points="804.7,-38.5 861.7,-5.6 856.5,85.1 799.5,52.2 				"/>
				<polygon id="XMLID_663_" class="st46" points="866.2,-14 880.7,-16.6 885.9,68.1 866.2,71.1 				"/>
				<polygon id="XMLID_662_" class="st47" points="866.2,71.1 866.2,-14 861.7,-5.6 856.5,85.1 				"/>
				<polygon id="XMLID_661_" class="st48" points="885.9,68.1 866.2,63.2 856.5,85.1 				"/>
			</g>
			<g id="XMLID_653_">
				<polygon id="XMLID_658_" class="st17" points="866.2,-14 861.7,-5.6 804.7,-38.5 819.8,-40.8 823.7,-49.5 880.7,-16.6 				"/>
				<g id="XMLID_654_">
					<polygon id="XMLID_657_" class="st18" points="864.2,-15.1 860.3,-7.9 808.5,-37.7 821.6,-39.7 825,-47.3 876.8,-17.4 					"/>
					<polygon id="XMLID_656_" class="st19" points="821.6,-39.7 821.6,-30.2 808.5,-37.7 					"/>
					<polygon id="XMLID_655_" class="st20" points="825,-47.3 825,-28.2 821.6,-30.2 821.6,-39.7 					"/>
				</g>
			</g>
			<g id="XMLID_649_">
				<polygon id="XMLID_652_" class="st12" points="811.8,14.8 846.8,35 846.8,39.7 811.9,19.6 				"/>
				<polygon id="XMLID_651_" class="st13" points="811.8,19.5 811.8,-15.3 815.7,-13.1 815.7,21.8 				"/>
				<polygon id="XMLID_650_" class="st13" points="842.9,37.5 842.9,2.6 846.8,4.9 846.8,39.7 				"/>
			</g>
		</g>
		<g id="XMLID_3964_">
			<g id="XMLID_3965_">
				<path id="XMLID_3976_" class="st49" d="M775.8,54.2c0,0-0.5,6-0.5,7.2c0.1,1.2,0.2,10.1,0.2,10.1l-1.9,1.7l-0.4-1.1l-1.5-12.7
					l-1.6-7.5l0.8-1.9l2.1-0.5L775.8,54.2z"/>
				<path id="XMLID_3975_" class="st50" d="M851.8,97c0,0,1.5,5.1-6.5,6.9s-13.9,2.3-20.9,1.7c-7.1-0.6-18.6-3.2-18.6-3.2
					s-0.8-1.1-0.5-1.4c0.3-0.4,13.3-2.8,13.3-2.8s24.8,2.8,25.6,2.5C845,100.3,851.8,97,851.8,97z"/>
				<path id="XMLID_3974_" class="st51" d="M848.2,91.3c0,0,4.7,3.2,3.5,6.8c-1.2,3.6-12.6,5.7-13.7,5s-27-8.7-27-8.7l-20.4-28.7
					l-11.4-12c0,0-10.4-10.1-12.6-11.7c-2.2-1.6-9.2-9.6-9.4-11.3c-0.1-1.7,0-6,5.4-7.4c0,0,8.6,1.1,18.3,11.2
					c9.7,10.1,17.9,19.5,17.9,19.5s16.3,18.7,20.6,21.4C823.8,78.1,848.2,91.3,848.2,91.3z"/>
				<path id="XMLID_3973_" class="st50" d="M756.2,107.2c0,0,0.5,8.3,5.8,12.6c5.3,4.3,17.5,8.2,24.3,8.5s17.5-0.3,21.2-2.3
					c3.7-1.9,4.1-3,3.1-7.9C809.6,113.2,756.2,107.2,756.2,107.2z"/>
				<path id="XMLID_3972_" class="st50" d="M739.2,37.6c0,0-1.8,3,0,8.9s8.4,20,8.4,20V54.2L739.2,37.6z"/>
				<path id="XMLID_3971_" class="st51" d="M810.6,118.2c0,0,2.1,4-4.7,6.2c-6.8,2.2-17.4,2.5-17.4,2.5L757,94.6
					c0,0-9.1-32.6-10.6-35.4s-8.8-18.1-7-23.1c1.8-5,11-7.4,16-2.7c0,0,7.2,6.9,12.6,24.1c5.3,16.7,9.2,25.6,15,31.1
					C783,88.4,807.2,107.5,810.6,118.2z"/>
				<path id="XMLID_3970_" class="st50" d="M825.1,67.9c0,0-9.6-11.6-11.7-15.9c-2.1-4.3-18.3-30.6-26.1-37.8
					c-7.8-7.1-15.9-10.9-18-7.8l-1.8,2.4l1,0.1c0,0,3.7-0.8,5.9,0.3c2.2,1.1,11.7,7.9,17.8,17.3c6.1,9.4,10.6,16.4,8.7,22.2
					c-1.9,5.8-2.1,5.2-2.1,5.2s14.7,18.6,20,22.2s29.3,15.1,29.3,15.1s-0.2-4.1-1.2-5.5C845.9,84.5,825.1,67.9,825.1,67.9z"/>
				<path id="XMLID_3969_" class="st50" d="M757.5,28c0,0-2.5,5.6,2,10.5s6.5,8.6,8.1,13.5c1.7,4.8,2.3,11,2.3,11l3.3,9.2
					c0,0-0.3-11.9-0.8-13.8s-1-6-0.7-6.4l0,0c0.4-0.6,1.2-0.7,1.6-0.2l6.4,6.4l0.8-1.7l-1.3-2.7L757.5,28z"/>
				<path id="XMLID_3968_" class="st52" d="M806.6,101.8c0,0,10.4,3.1,17.3,2.7c6.9-0.4,14-1.3,14-1.3s-1.4-11.9,2.4-15.7
					c3.9-3.9,6.6-1.5,6.6-1.5s-5.6-7.7-13.1-12.5c-7.6-4.8-8.7-5.5-8.7-5.5s3.8,5.7,1.6,7.7c-2.2,2-11,8-14.9,8s-9.8-0.1-15.5-12.1
					S770.5,22,769.8,19.4c-0.7-2.7-2.1-11.1-0.6-12.8c0,0-3.9,2.6-4.3,3.5c-0.4,0.9-1.1,6.3,2.3,14c3.4,7.6,14.6,28.1,14.6,28.1
					l6.2,27.5L806.6,101.8z"/>
				<path id="XMLID_3967_" class="st50" d="M799.6,87.3c0,0-10.4-17.1-11.7-21.4c-1.3-4.3-6.2-19.9-9.7-26.6s-20-31.2-30.4-25.1
					l-1.3,3.5c0,0,4.2-2,6.4-1.3c2.3,0.8,12.4,7.1,17.9,16.7c5.5,9.6,11.6,23.9,7.7,31.5s-5.4,7-5.4,7s4.1,12.3,11.4,18
					c7.3,5.8,18.9,17.5,21.2,20.2c2.3,2.8,4.9,8.2,4.9,8.2s1.7-2.1,1.2-4.3c-0.5-2.3-11.5-22-11.5-22L799.6,87.3z"/>
				<path id="XMLID_3966_" class="st52" d="M747.8,14.3c0,0-4.7,1.8-6.5,10.7s0.2,15.7,3.3,23.9c2.3,6.1,3,15.7,3.2,20.1
					c0.1,1.7,0.3,3.4,0.8,5.1c1.8,7,6.6,25.8,7,29.1c0.5,4,2.2,13.4,11.9,18.9c9.7,5.5,21.2,4.8,21.2,4.8s-4.7-11.7,9-16.9
					c13.7-5.2,14.2,3.8,14.2,3.8s1.5,0-8.1-17.4l-4.1-9.1c0,0,1,7.1-10,9.6s-21.5,6-26.2,1.2c-4.7-4.8-11.5-35.9-14.2-43.3
					c-2.7-7.3-6.3-16.5-6-23.4C743.5,24.6,747.8,14.3,747.8,14.3z"/>
			</g>
		</g>
		<g id="XMLID_666_">
			<g id="XMLID_646_">
				<path id="XMLID_669_" class="st46" d="M663.4-32.5l-10.8-9.3c-2.3-2-5.7-2-7.9,0l-10.8,9.3c-1.3,1.1-2.1,2.8-2.1,4.6V4.5
					c0,3.3,2.7,6.1,6.1,6.1h21.5c3.3,0,6.1-2.7,6.1-6.1V-28C665.5-29.7,664.7-31.4,663.4-32.5z M648.7-30.6c-1.9,0-3.4-1.5-3.4-3.4
					s1.5-3.4,3.4-3.4s3.4,1.5,3.4,3.4C652-32.1,650.5-30.6,648.7-30.6z"/>
				<text id="XMLID_645_" transform="matrix(1 0 0 1 639.2717 -0.6112)" class="st38 st53 st54">%</text>
			</g>
			<g id="XMLID_670_">
				<path id="XMLID_671_" class="st44" d="M648.7-35.8C648.7-35.8,648.6-35.8,648.7-35.8c-0.6,0-1-0.5-1-1.1
					c1.8-32,18.9-34.6,19.6-34.7c0.5-0.1,1.1,0.3,1.1,0.9c0.1,0.5-0.3,1-0.9,1.1c-0.2,0-16.2,2.7-17.9,32.9
					C649.6-36.2,649.2-35.8,648.7-35.8z"/>
			</g>
		</g>
		<g id="XMLID_3834_">
			<path id="XMLID_3897_" class="st55" d="M671.2-124c0,0-29.2,12.6-26.3,35.6s17.7,35.9,60.6,42.7c42.9,6.9,76.4-3.5,82.8-11.3
				c6.4-7.7,13.5-19-5.1-35.9c-18.6-16.8-21.9-17.5-21.9-17.5L671.2-124z"/>
			<path id="XMLID_3907_" class="st55" d="M667.7-90.7c1.8,5.4,10.2,14.5,44.3,18.3s52.2-8.6,54-11.3c1.3-1.9,2-14.9,0.4-23.9l0,0
				c-0.6-3.4-1.5-6.2-2.8-7.6c-4.9-5.4-5.3-6.5-5.5-15.1c-0.2-8.6-4.2-12.5-14.6-18.5s-30.1-2.6-44.3,0c-14.2,2.6-20.4,3.2-24.1,8.2
				c-2.2,3-4.4,20-5.8,33.4C668.3-98.1,667.7-90.7,667.7-90.7z"/>
			<path id="XMLID_3896_" class="st56" d="M671-122.4c0,0-17.5,11.5-21,24.9c-2.3,8.5-2.2,19.2,4.9,29.4c0,0-3.1-22.4,13.7-32.6
				L671-122.4z"/>
			<path id="XMLID_3905_" class="st57" d="M667.7-90.7c1.8,5.4,10.2,14.5,44.3,18.3s52.2-8.6,54-11.3c1.3-1.9,2-14.9,0.4-23.9l0,0
				c0,0-17,17.5-53.3,15.7c-36.3-1.8-43.7-15.7-43.7-15.7l-0.1,0.4C668.3-98.1,667.7-90.7,667.7-90.7z"/>
			<g id="XMLID_647_">
				<g id="XMLID_694_">
					<path id="XMLID_1567_" class="st58" d="M692.5-90.9c-0.3,0.8-0.5,1.2-0.5,1.2c-0.6,0-1.2,0-1.9-0.1c0,0-0.1-0.4-0.1-1.1l0,0
						c-0.1-1.5-0.1-4.3,0.4-6.6c0.7-3.3,1.2-4.4,1.3-4.4c0.1,0,0.2,0.1,0.3,0.1c0.1-0.1,0.3-0.2,0.4-0.3l0,0
						c0.1,0.1,0.3,0.2,0.4,0.2c0.1,0,0.2-0.1,0.3-0.1c0,0,1.3,0.9,1.2,4.2C694.2-95.3,693.1-92.5,692.5-90.9z"/>
					<path id="XMLID_695_" class="st59" d="M694.3-97.6c0.1-3.4-1.2-4.2-1.2-4.2c-0.1,0-0.2,0.1-0.3,0.1c-0.1-0.1-0.3-0.2-0.4-0.2
						c0.8,1.1,1.4,3.4,0.6,6.2c-0.6,2.1-1,3.8-1.3,5c-0.1,0.3-0.4,0.6-0.7,0.6l0,0c-0.5,0-0.8-0.3-1-0.6c0,0.7,0.1,1.1,0.1,1.1
						c0.5,0,0.9,0,1.4,0c0.2,0,0.3,0,0.5,0C692-89.7,694.1-94.2,694.3-97.6z"/>
				</g>
				<g id="XMLID_689_">
					<path id="XMLID_693_" class="st58" d="M688-90.4c0.3,0.7,0.5,1.1,0.5,1.1c-0.5,0.4-1.1,0.8-1.6,1.1c0,0-0.4-0.2-0.9-0.7l0,0
						c-1.2-0.9-3.4-2.6-4.5-4.6c-1.5-2.9-1.3-4.6-1.3-4.6c0.1,0,0.2,0,0.3,0c0.1-0.2,0.1-0.3,0.2-0.5l0,0c0.1,0,0.2,0,0.4,0.1
						c0.1-0.1,0.1-0.2,0.2-0.2c0,0,1.2,0.5,3.4,2.9C686.2-94.1,687.4-91.8,688-90.4z"/>
					<path id="XMLID_690_" class="st59" d="M684.7-95.7c-2.2-2.4-3.4-2.9-3.4-2.9c-0.1,0.1-0.1,0.2-0.2,0.2c-0.1,0-0.2,0-0.4-0.1
						c0.9,0.9,2.8,2.4,4.2,4.7c1.1,1.7,2,3.1,2.6,4c0.2,0.3,0.1,0.6-0.2,0.8l0,0c-0.4,0.3-0.9,0.3-1.3,0.2c0.6,0.4,0.9,0.7,0.9,0.7
						c0.4-0.3,0.8-0.6,1.2-0.8c0.1-0.1,0.3-0.2,0.4-0.3C688.5-89.3,686.9-93.3,684.7-95.7z"/>
				</g>
				<g id="XMLID_687_">
					<path id="XMLID_688_" class="st58" d="M684.7-87.2c0.8,0.3,1.2,0.5,1.2,0.5c-0.1,0.6-0.3,1.2-0.4,1.7c0,0-0.5,0-1.2,0l0,0
						c-1.6,0-4.7,0.1-7.3-0.4c-3.8-0.7-4.9-1.8-4.9-1.8c0.1-0.1,0.2-0.2,0.3-0.2c-0.1-0.1-0.1-0.3-0.2-0.4l0,0
						c0.1-0.1,0.3-0.2,0.4-0.2c0-0.1,0-0.2,0-0.3c0,0,1.4-0.6,5.1-0.3C680.2-88.6,683.1-87.8,684.7-87.2z"/>
					<path id="XMLID_1551_" class="st59" d="M677.7-88.8c-3.7-0.3-5.1,0.3-5.1,0.3c0,0.1,0,0.2,0,0.3c-0.1,0.1-0.3,0.2-0.4,0.2
						c1.5-0.2,4.3-0.4,7.2,0.3c2.3,0.5,4.1,0.9,5.2,1.1c0.3,0.1,0.6,0.4,0.5,0.7l0,0c-0.1,0.4-0.5,0.7-0.9,0.9c0.7,0,1.2,0,1.2,0
						c0.1-0.4,0.2-0.8,0.3-1.3c0-0.2,0.1-0.3,0.1-0.5C686-86.8,681.5-88.5,677.7-88.8z"/>
				</g>
				<g id="XMLID_1544_">
					<path id="XMLID_1549_" class="st58" d="M684.6-83.3c0.8-0.2,1.3-0.3,1.3-0.3c0.3,0.5,0.7,1,1,1.5c0,0-0.3,0.3-0.8,0.7l0,0
						c-1.1,0.9-3,2.3-5.1,3.1c-3,1.1-4.8,1.2-4.8,1.2c0-0.1-0.1-0.2-0.1-0.2c-0.2,0-0.4-0.1-0.6-0.1l0,0c0-0.1,0-0.2,0-0.3
						c-0.1-0.1-0.2-0.1-0.3-0.2c0,0,0.3-1.1,3.1-2.8C680.3-81.9,683-82.8,684.6-83.3z"/>
					<path id="XMLID_1545_" class="st59" d="M678.3-80.8c-2.9,1.7-3.1,2.8-3.1,2.8c0.1,0.1,0.2,0.1,0.3,0.2c0,0.1,0,0.2,0,0.3
						c0.7-0.9,2.4-2.4,5.1-3.4c2-0.8,3.5-1.4,4.6-1.8c0.3-0.1,0.7,0,0.8,0.2l0,0c0.3,0.4,0.2,0.8,0.1,1.1c0.5-0.4,0.8-0.7,0.8-0.7
						c-0.2-0.4-0.5-0.7-0.7-1.1c-0.1-0.1-0.2-0.3-0.3-0.4C685.9-83.6,681.2-82.5,678.3-80.8z"/>
				</g>
				<g id="XMLID_1538_">
					<path id="XMLID_1543_" class="st58" d="M687.5-80.2c0.3-0.6,0.6-0.9,0.6-0.9c0.6,0.2,1.1,0.5,1.7,0.7c0,0,0,0.4-0.1,1l0,0
						c-0.1,1.3-0.3,3.7-1.1,5.5c-1.1,2.7-2.2,3.5-2.2,3.4s-0.1-0.2-0.1-0.3c-0.1,0-0.2,0.1-0.4,0.1l0,0c0-0.1-0.1-0.3-0.1-0.4
						c-0.1,0-0.2,0-0.2-0.1c0,0-0.3-1.4,0.1-4.1C685.8-77,686.8-79,687.5-80.2z"/>
					<path id="XMLID_1539_" class="st59" d="M685.6-75.2c-0.4,2.7-0.1,4.1-0.1,4.1c0.1,0,0.2,0,0.2,0.1s0.1,0.3,0.1,0.4
						c0.1-1.4,0.1-3.6,0.9-5.6c0.6-1.6,1.1-2.9,1.5-3.8c0.1-0.3,0.4-0.4,0.7-0.3l0,0c0.4,0.2,0.6,0.6,0.8,0.9c0.1-0.6,0.1-1,0.1-1
						c-0.4-0.2-0.8-0.4-1.2-0.5c-0.1-0.1-0.3-0.1-0.5-0.2C688-81.1,685.9-77.9,685.6-75.2z"/>
				</g>
				<g id="XMLID_1532_">
					<path id="XMLID_1537_" class="st58" d="M691.4-79.1c-0.1-0.7-0.2-1.2-0.2-1.2c0.5-0.1,1-0.3,1.5-0.4c0,0,0.2,0.4,0.5,0.9l0,0
						c0.7,1.3,1.8,3.7,2.3,5.9c0.7,3.2,0.2,4.7,0.2,4.7c-0.1,0-0.2-0.1-0.3-0.1c-0.1,0.1-0.2,0.3-0.3,0.4l0,0
						c-0.1-0.1-0.2-0.1-0.3-0.2c-0.1,0.1-0.2,0.1-0.2,0.2c0,0-0.8-1-1.7-4.1C692.2-75.1,691.6-77.6,691.4-79.1z"/>
					<path id="XMLID_1533_" class="st59" d="M692.9-73c1,3.1,1.7,4.2,1.7,4.1c0.1-0.1,0.2-0.1,0.2-0.2c0.1,0.1,0.2,0.1,0.3,0.2
						c-0.6-1.2-1.5-3.5-2.1-6c-0.5-2-0.9-3.5-1.2-4.5c-0.1-0.3,0-0.6,0.3-0.7l0,0c0.4-0.1,0.8,0.1,1,0.3c-0.3-0.6-0.5-0.9-0.5-0.9
						c-0.4,0.1-0.7,0.2-1.1,0.3c-0.1,0-0.3,0.1-0.4,0.1C691.1-80.2,691.8-76.1,692.9-73z"/>
				</g>
				<g id="XMLID_1526_">
					<path id="XMLID_1531_" class="st58" d="M694.6-80.5c-0.5-0.6-0.8-0.9-0.8-0.9c0.3-0.5,0.6-0.9,0.9-1.4c0,0,0.3,0.2,0.9,0.4l0,0
						c1.2,0.6,3.1,1.9,4.7,3.5c2.4,2.2,3.6,3.2,3.6,3.2c-0.1,0-0.2,0.1-0.2,0.1c0.1,0.1,0.1,0.3,0.2,0.4l0,0c-0.1,0-0.3,0.1-0.4,0.1
						c0,0.1,0,0.2,0,0.2s-1.6,0.2-4.3-1.5C697.2-77.5,695.5-79.4,694.6-80.5z"/>
					<path id="XMLID_1527_" class="st59" d="M699-76.4c2.7,1.7,4.4,1.4,4.3,1.5c0-0.1,0-0.2,0-0.2c0.1,0,0.3-0.1,0.4-0.1
						c-1.5-0.2-3.9-1-5.7-2.8c-1.4-1.4-2.5-2.5-3.3-3.2c-0.2-0.2-0.3-0.6-0.1-0.8l0,0c0.2-0.4,0.6-0.5,0.9-0.5
						c-0.5-0.3-0.9-0.4-0.9-0.4c-0.2,0.4-0.4,0.7-0.7,1c-0.1,0.1-0.2,0.3-0.2,0.4C693.8-81.5,696.4-78,699-76.4z"/>
				</g>
				<g id="XMLID_1520_">
					<path id="XMLID_1525_" class="st58" d="M696.1-84.2c-0.6-0.1-1.1-0.2-1.1-0.2c0-0.6,0-1.2,0-1.9c0,0,0.4-0.1,1-0.3l0,0
						c1.3-0.4,3.7-1.1,5.6-0.9c2.7,0.3,3.5,1.1,3.5,1.1c-0.1,0.1-0.1,0.2-0.2,0.3c0.1,0.1,0.1,0.3,0.2,0.4l0,0
						c-0.1,0.1-0.2,0.2-0.2,0.3s0,0.2,0,0.3c0,0-0.9,0.9-3.5,1.2C699.7-83.6,697.5-84,696.1-84.2z"/>
					<path id="XMLID_1521_" class="st59" d="M701.4-83.8c2.6-0.3,3.5-1.2,3.5-1.2c0-0.1,0-0.2,0-0.3c0.1-0.1,0.2-0.2,0.2-0.3
						c-1.1,0.5-2.9,1.2-5.1,1c-1.7-0.2-3.1-0.2-4-0.2c-0.3,0-0.5-0.2-0.5-0.6l0,0c0-0.5,0.3-0.8,0.6-1.1c-0.6,0.2-1,0.3-1,0.3
						c0,0.5,0,0.9,0,1.4c0,0.2,0,0.3,0,0.5C695.1-84.4,698.9-83.5,701.4-83.8z"/>
				</g>
				<g id="XMLID_1514_">
					<path id="XMLID_1519_" class="st58" d="M695.6-88.4c-0.6,0.4-1.1,0.7-1.1,0.7c-0.4-0.4-0.7-0.9-1.1-1.3c0,0,0.2-0.4,0.7-1l0,0
						c0.9-1.3,2.9-3.7,5-5.4c3.1-2.4,4.7-2.9,4.7-2.9c0,0.1,0,0.2,0,0.3c0.2,0,0.3,0,0.5,0l0,0c0,0.2-0.1,0.3-0.1,0.5
						c0.1,0.1,0.1,0.1,0.2,0.2c0,0-0.6,1.6-3.3,4.4C699.2-91.1,696.9-89.4,695.6-88.4z"/>
					<path id="XMLID_1515_" class="st59" d="M701-92.9c2.7-2.8,3.4-4.5,3.3-4.4c-0.1-0.1-0.1-0.1-0.2-0.2c0-0.2,0.1-0.3,0.1-0.5
						c-0.9,1.4-2.8,3.9-5.1,5.8c-1.8,1.5-3.2,2.6-4,3.4c-0.3,0.2-0.6,0.2-0.8,0l0,0c-0.3-0.3-0.3-0.8-0.2-1.2c-0.4,0.6-0.7,1-0.7,1
						c0.3,0.3,0.6,0.6,0.8,1c0.1,0.1,0.2,0.2,0.3,0.4C694.6-87.7,698.4-90.1,701-92.9z"/>
				</g>
				<g id="XMLID_1508_">
					<path id="XMLID_1513_" class="st58" d="M696.2-86.4c-0.7,0.2-1.1,0.3-1.1,0.3c-0.2-0.6-0.4-1.1-0.6-1.7c0,0,0.3-0.3,0.9-0.7
						l0,0c1.2-0.9,3.6-2.6,5.8-3.4c3.2-1.2,4.3-0.9,4.3-0.9c0,0.1-0.1,0.2-0.1,0.4c0.1,0.1,0.2,0.2,0.3,0.3l0,0
						c-0.1,0.1-0.2,0.3-0.2,0.4c0,0.1,0.1,0.2,0.1,0.3c0,0-1,1.4-3.7,3C699.9-87.4,697.6-86.8,696.2-86.4z"/>
					<path id="XMLID_1509_" class="st59" d="M701.7-88.5c2.7-1.6,3.7-3,3.7-3c0-0.1-0.1-0.2-0.1-0.3c0.1-0.1,0.2-0.3,0.2-0.4
						c-1.2,1.1-3.2,2.8-5.5,3.6c-1.8,0.7-3.3,1.3-4.2,1.7c-0.3,0.1-0.6,0-0.7-0.3l0,0c-0.1-0.4,0-0.9,0.2-1.3
						c-0.6,0.4-0.9,0.7-0.9,0.7c0.1,0.4,0.3,0.8,0.4,1.3c0.1,0.2,0.1,0.3,0.2,0.5C695.1-86.1,699-86.9,701.7-88.5z"/>
				</g>
				<g id="XMLID_1502_">
					<path id="XMLID_1507_" class="st58" d="M694.4-90c-0.5,0.7-0.9,1.1-0.9,1.1c-0.5-0.3-1.1-0.5-1.6-0.7c0,0,0.1-0.4,0.3-1.1l0,0
						c0.5-1.5,1.5-4.3,3-6.4c2.1-3.1,3.4-4,3.4-4c0.1,0.1,0.1,0.2,0.2,0.2c0.2-0.1,0.4-0.1,0.5-0.2l0,0c0.1,0.1,0.1,0.2,0.2,0.4
						c0.1,0,0.2,0,0.3,0c0,0,0.4,1.3-1.4,4.7C697.4-93.8,695.4-91.4,694.4-90z"/>
					<path id="XMLID_1503_" class="st59" d="M698.5-96.1c1.8-3.4,1.4-4.7,1.4-4.7c-0.1,0-0.2,0-0.3,0c-0.1-0.1-0.1-0.2-0.2-0.4
						c-0.1,1.4-0.9,4-2.7,6.5c-1.4,2-2.4,3.5-3,4.6c-0.2,0.3-0.5,0.4-0.8,0.3l0,0c-0.4-0.2-0.6-0.6-0.6-1c-0.2,0.7-0.3,1.1-0.3,1.1
						c0.4,0.2,0.8,0.4,1.2,0.5c0.1,0.1,0.3,0.1,0.4,0.2C693.5-89,696.7-92.7,698.5-96.1z"/>
				</g>
				<g id="XMLID_686_">
					<path id="XMLID_1501_" class="st58" d="M690.3-91c0,0.8,0,1.3,0,1.3c-0.6,0.2-1.3,0.4-1.9,0.6c0,0-0.2-0.4-0.5-0.9l0,0
						c-0.7-1.3-1.8-3.7-2.2-5.9c-0.5-3.3-0.3-4.6-0.3-4.6c0.1,0,0.2,0,0.3,0.1c0.1-0.1,0.2-0.3,0.2-0.4l0,0c0.1,0.1,0.3,0.1,0.4,0.2
						c0.1-0.1,0.2-0.1,0.2-0.2c0,0,1.5,0.7,2.8,3.6C690.2-95.4,690.3-92.6,690.3-91z"/>
					<path id="XMLID_1497_" class="st59" d="M689.4-97.4c-1.3-3-2.8-3.6-2.8-3.6c-0.1,0.1-0.2,0.1-0.2,0.2c-0.1-0.1-0.3-0.1-0.4-0.2
						c1,1,2.6,2.9,3,5.6c0.3,2,0.5,3.7,0.7,4.8c0.1,0.3-0.2,0.6-0.5,0.7l0,0c-0.5,0.2-0.9,0-1.3-0.2c0.3,0.6,0.5,0.9,0.5,0.9
						c0.5-0.1,0.9-0.3,1.4-0.4c0.2-0.1,0.3-0.1,0.5-0.2C690.2-89.8,690.6-94.4,689.4-97.4z"/>
				</g>
				<g id="XMLID_1490_">
					<path id="XMLID_1495_" class="st58" d="M686-89c0.6,0.5,0.9,0.8,0.9,0.8c-0.4,0.5-0.7,1-1.1,1.5c0,0-0.4-0.1-1.1-0.3l0,0
						c-1.5-0.5-4.4-1.3-6.4-2.7c-2.8-2-2.8-3.6-2.9-3.6c0.1,0,0.2-0.1,0.3-0.1c0-0.2,0.1-0.4,0.1-0.5l0,0c0.1,0,0.3-0.1,0.4-0.1
						c0.1-0.1,0.1-0.2,0.2-0.3c0,0,1.2,0,4.1,1.6C682.6-91.7,684.9-90.1,686-89z"/>
					<path id="XMLID_1491_" class="st59" d="M680.6-92.8c-3-1.5-4.1-1.6-4.1-1.6c-0.1,0.1-0.1,0.2-0.2,0.3c-0.1,0-0.3,0.1-0.4,0.1
						c1.1,0.4,3.4,1.3,5.7,2.8c1.7,1.2,3.2,2.1,4.2,2.7c0.3,0.2,0.4,0.5,0.2,0.8l0,0c-0.3,0.4-0.8,0.5-1.2,0.6
						c0.7,0.2,1.1,0.3,1.1,0.3c0.3-0.4,0.5-0.7,0.8-1.1c0.1-0.1,0.2-0.3,0.3-0.4C687-88.2,683.7-91.3,680.6-92.8z"/>
				</g>
				<g id="XMLID_1484_">
					<path id="XMLID_1489_" class="st58" d="M684.2-85.2c0.8,0,1.4,0.1,1.4,0.1c0.1,0.6,0.2,1.1,0.4,1.7c0,0-0.4,0.2-1.1,0.4l0,0
						c-1.4,0.5-4.1,1.3-6.8,1.5c-3.9,0.3-5.8,0-5.8,0c0-0.1,0.1-0.2,0.1-0.3c-0.2-0.1-0.3-0.2-0.5-0.3l0,0c0.1-0.1,0.2-0.2,0.2-0.3
						c-0.1-0.1-0.1-0.2-0.2-0.2c0,0,1.1-1,4.9-1.9C679.3-85.2,682.5-85.3,684.2-85.2z"/>
					<path id="XMLID_1485_" class="st59" d="M676.8-84.6c-3.8,0.9-4.9,1.9-4.9,1.9c0.1,0.1,0.1,0.2,0.2,0.2
						c-0.1,0.1-0.2,0.2-0.2,0.3c1.4-0.7,4.1-1.7,7.2-2c2.4-0.2,4.2-0.4,5.4-0.5c0.3,0,0.7,0.2,0.7,0.5l0,0c0.1,0.4-0.1,0.8-0.4,1
						c0.7-0.2,1.1-0.4,1.1-0.4c-0.1-0.4-0.2-0.8-0.3-1.2c0-0.2-0.1-0.3-0.1-0.5C685.6-85.2,680.6-85.5,676.8-84.6z"/>
				</g>
				<g id="XMLID_1478_">
					<path id="XMLID_1483_" class="st58" d="M685.8-81.5c0.6-0.4,1-0.7,1-0.7c0.5,0.4,1,0.8,1.4,1.2c0,0-0.2,0.3-0.4,0.9l0,0
						c-0.6,1.2-1.6,3.1-3,4.4c-1.9,1.9-3.2,2.2-3.2,2.2c-0.1-0.1-0.1-0.2-0.2-0.3c-0.2,0-0.3,0-0.5,0l0,0c0-0.1-0.1-0.2-0.1-0.3
						c-0.1,0-0.2-0.1-0.3-0.1c0,0-0.3-1.1,1.1-3.4C682.7-79.2,684.6-80.7,685.8-81.5z"/>
					<path id="XMLID_1479_" class="st59" d="M681.7-77.7c-1.4,2.2-1.1,3.3-1.1,3.4c0.1,0,0.2,0.1,0.3,0.1c0,0.1,0.1,0.2,0.1,0.3
						c0.2-1.1,0.7-2.9,2.4-4.4c1.3-1.2,2.3-2.2,3-2.9c0.2-0.2,0.6-0.2,0.8,0l0,0c0.4,0.3,0.5,0.7,0.5,1.1c0.3-0.5,0.4-0.9,0.4-0.9
						c-0.3-0.3-0.7-0.6-1.1-0.9c-0.1-0.1-0.3-0.2-0.4-0.3C686.8-82.2,683.1-79.9,681.7-77.7z"/>
				</g>
				<g id="XMLID_1472_">
					<path id="XMLID_1477_" class="st58" d="M689.4-79.3c0.1-0.7,0.2-1.1,0.2-1.1c0.6,0.1,1.1,0.1,1.7,0.2c0,0,0.1,0.4,0.2,1l0,0
						c0.3,1.4,0.8,3.9,0.6,6.1c-0.4,3.2-1.5,4.5-1.5,4.5c-0.1-0.1-0.1-0.1-0.2-0.2c-0.1,0.1-0.2,0.2-0.4,0.3l0,0
						c0-0.1-0.1-0.2-0.1-0.3c-0.1,0-0.2,0-0.2,0s-0.2-1.4-0.4-4.6C689.1-75.6,689.2-77.9,689.4-79.3z"/>
					<path id="XMLID_1473_" class="st59" d="M689.3-73.5c0.2,3.2,0.4,4.6,0.4,4.6c0.1,0,0.2,0,0.2,0c0.1,0.1,0.1,0.2,0.1,0.3
						c0-1.5-0.2-4-0.2-6.5c0.1-1.9,0.1-3.4,0.1-4.4c0-0.3,0.2-0.5,0.5-0.5l0,0c0.4,0,0.7,0.4,1,0.7c-0.1-0.6-0.2-1-0.2-1
						c-0.4,0-0.8-0.1-1.2-0.1c-0.1,0-0.3,0-0.5,0C689.5-80.4,689-76.6,689.3-73.5z"/>
				</g>
				<g id="XMLID_1466_">
					<path id="XMLID_1471_" class="st58" d="M693.1-79.5c-0.3-0.7-0.5-1.1-0.5-1.1c0.4-0.3,0.8-0.6,1.2-1c0,0,0.3,0.3,0.7,0.7l0,0
						c1,1,2.6,3,3.8,4.9c1.8,2.8,2.4,4,2.4,4c-0.1,0-0.2,0-0.3,0c0,0.1,0,0.3,0,0.4l0,0c-0.1,0-0.3,0-0.4,0
						c-0.1,0.1-0.1,0.2-0.2,0.2c0,0-1.5-0.3-3.5-2.8C695-75.7,693.8-78.1,693.1-79.5z"/>
					<path id="XMLID_1467_" class="st59" d="M696.3-74c2,2.5,3.5,2.8,3.5,2.8c0.1-0.1,0.1-0.2,0.2-0.2s0.3,0,0.4,0
						c-1.3-0.7-3.2-2.2-4.5-4.5c-1-1.8-1.8-3.1-2.4-4.1c-0.2-0.3-0.1-0.6,0.1-0.8l0,0c0.3-0.2,0.7-0.2,1-0.1
						c-0.4-0.5-0.7-0.7-0.7-0.7c-0.3,0.2-0.6,0.5-0.9,0.7c-0.1,0.1-0.2,0.2-0.3,0.3C692.6-80.6,694.3-76.6,696.3-74z"/>
				</g>
				<g id="XMLID_1460_">
					<path id="XMLID_1465_" class="st58" d="M695.6-82.2c-0.6-0.4-1-0.6-1-0.6c0.1-0.6,0.3-1.2,0.5-1.7c0,0,0.4,0,1,0.1l0,0
						c1.3,0.1,3.5,0.5,5.1,1.5c2.4,1.4,3.5,2.4,3.5,2.4c-0.1,0.1-0.1,0.1-0.2,0.2c0.1,0.1,0.2,0.3,0.3,0.4l0,0
						c-0.1,0.1-0.2,0.1-0.3,0.2c0,0.1,0,0.2,0.1,0.3c0,0-1.1,0.5-3.9-0.3C698.8-80.2,696.8-81.4,695.6-82.2z"/>
					<path id="XMLID_1461_" class="st59" d="M700.6-79.7c2.8,0.7,3.9,0.3,3.9,0.3c0-0.1,0-0.2-0.1-0.3c0.1-0.1,0.2-0.1,0.3-0.2
						c-1.2,0.1-3.3-0.1-5.4-1.2c-1.6-0.8-2.8-1.5-3.8-1.9c-0.3-0.1-0.4-0.4-0.3-0.7l0,0c0.1-0.4,0.5-0.7,0.8-0.8
						c-0.6-0.1-1-0.1-1-0.1c-0.1,0.4-0.2,0.9-0.3,1.3c0,0.2-0.1,0.3-0.1,0.5C694.7-82.8,697.9-80.5,700.6-79.7z"/>
				</g>
				<path id="XMLID_1459_" class="st60" d="M692.7-80.5c-2.1,1-5,0-6.6-2.3c-0.8-1.1-1-2.4-0.5-3.6c0.4-1.2,1.4-2.3,2.8-3
					c2.8-1.4,5.8-0.4,6.6,2.3c0.3,1,0.3,2.1,0.2,3.1C694.8-82.4,694-81.1,692.7-80.5z"/>
				<path id="XMLID_1458_" class="st61" d="M692.7-80.5c-2.1,1-5,0-6.6-2.3c-0.8-1.1-1-2.4-0.5-3.6c-0.1,0,1,3.2,4.4,4.3
					c3,1.1,5-1.9,5.1-2l0,0C694.8-82.4,694-81.1,692.7-80.5z"/>
			</g>
		</g>
		<g id="XMLID_754_">
			<g id="XMLID_753_">
				<rect id="XMLID_683_" x="726.5" y="104.5" class="st62" width="7.6" height="5.8"/>
				<circle id="XMLID_679_" class="st63" cx="730.5" cy="83.2" r="24.1"/>
				<circle id="XMLID_680_" class="st64" cx="730.5" cy="83.2" r="20.2"/>
				<g id="XMLID_757_">
					<path id="XMLID_762_" class="st65" d="M722,84.1c-4.2,1.7-6.9,4.7-6.9,8.1c0,1.8,0.8,3.5,2.1,4.9L722,84.1z"/>
					<path id="XMLID_763_" class="st65" d="M720.3,99.4c0.9,0.5,2,1,3.1,1.3l6.7-18.3c-1.3,0-2.5,0.1-3.7,0.3L720.3,99.4z"/>
					<path id="XMLID_764_" class="st65" d="M731.5,82.5l-6.9,18.6c1.8,0.5,3.7,0.7,5.8,0.7c8.5,0,15.3-4.3,15.3-9.7
						C745.7,87,739.4,82.9,731.5,82.5z"/>
				</g>
			</g>
			<g id="XMLID_681_">
				<g id="XMLID_672_">
					<g id="XMLID_675_" class="st2">
						<g id="XMLID_678_">
							<path id="XMLID_761_" class="st62" d="M754.9,123.5v8.5c0,3.6-2.4,7.2-7.2,10c-8.3,4.8-21.1,5.5-30.6,1.9
								c-1.5-0.5-2.9-1.2-4.2-1.9c-0.8-0.5-1.5-0.9-2.2-1.4c-3.4-2.6-5.1-5.7-5.1-8.7v-8.4c0,3.1,1.7,6.1,5.1,8.7
								c0.7,0.5,1.4,1,2.2,1.4c1.3,0.7,2.7,1.4,4.1,1.9c9.5,3.5,22.4,2.9,30.7-1.9C752.5,130.8,754.9,127.2,754.9,123.5z"/>
						</g>
						<g id="XMLID_676_">
							<path id="XMLID_677_" class="st66" d="M747.6,113.4c9.6,5.6,9.7,14.6,0.1,20.2s-25.2,5.6-34.8,0s-9.7-14.6-0.1-20.2
								C722.4,107.8,738,107.8,747.6,113.4z"/>
						</g>
					</g>
				</g>
				<g id="XMLID_674_">
					<path id="XMLID_760_" class="st62" d="M749.8,124.9c-0.5,2.4-2.4,4.8-5.6,6.7c-7.7,4.4-20.1,4.4-27.8,0
						c-3.3-1.9-5.1-4.3-5.7-6.7c-0.7-3.3,1.2-6.8,5.6-9.4c7.7-4.5,20.1-4.5,27.8,0C748.6,118,750.5,121.5,749.8,124.9z"/>
				</g>
				<g id="XMLID_682_">
					<path id="XMLID_758_" class="st67" d="M749.8,124.9c-0.5,2.4-2.4,4.8-5.6,6.7c-7.7,4.4-20.1,4.4-27.8,0
						c-3.3-1.9-5.1-4.3-5.7-6.7c0.5-2.4,2.4-4.8,5.6-6.7c7.7-4.5,20.1-4.5,27.8,0C747.4,120,749.3,122.4,749.8,124.9z"/>
				</g>
				<path id="XMLID_755_" class="st63" d="M717.1,135.5v8.5c-1.5-0.5-2.9-1.2-4.2-1.9c-0.8-0.5-1.5-0.9-2.2-1.4v-8.5
					c0.7,0.5,1.4,1,2.2,1.4C714.2,134.3,715.6,134.9,717.1,135.5z"/>
			</g>
		</g>
		<path id="XMLID_603_" class="st68" d="M625.9-28.7c-9.7,0-17.5-7.8-17.5-17.5c0,9.7-7.8,17.5-17.5,17.5c9.7,0,17.5,7.8,17.5,17.5
			C608.4-20.9,616.2-28.7,625.9-28.7z"/>
		<path id="XMLID_495_" class="st68" d="M968.8-119.8c-9.7,0-17.5-7.8-17.5-17.5c0,9.7-7.8,17.5-17.5,17.5c9.7,0,17.5,7.8,17.5,17.5
			C951.3-112,959.1-119.8,968.8-119.8z"/>
		<path id="XMLID_596_" class="st68" d="M793.3-124.2c-5.3,0-9.6-4.3-9.6-9.6c0,5.3-4.3,9.6-9.6,9.6c5.3,0,9.6,4.3,9.6,9.6
			C783.7-119.9,788-124.2,793.3-124.2z"/>
		<path id="XMLID_595_" class="st68" d="M812.7-158.8c-9.7,0-17.5-7.8-17.5-17.5c0,9.7-7.8,17.5-17.5,17.5c9.7,0,17.5,7.8,17.5,17.5
			C795.2-151,803-158.8,812.7-158.8z"/>
		<g id="XMLID_708_">
			<g id="XMLID_744_">
				<g id="XMLID_729_" class="st2">
					<path id="XMLID_720_" class="st56" d="M1068,198l-75.5,43.9c-3,1.8-8,1.8-11,0l-132.1-76.3c-1.5-0.9-2.3-2.1-2.3-3.2v8.6
						c0,1.2,0.8,2.3,2.3,3.2l132.1,76.3c3.1,1.8,8,1.8,11,0l75.5-43.9c1.5-0.9,2.3-2,2.3-3.2v-8.6
						C1070.2,195.9,1069.5,197.1,1068,198z"/>
					<g id="XMLID_740_">
						<path id="XMLID_741_" class="st55" d="M1067.9,191.6c3.1,1.8,3.1,4.6,0,6.4l-75.5,43.9c-3,1.8-8,1.8-11,0l-132.1-76.3
							c-3.1-1.8-3.1-4.6,0-6.4l75.5-43.9c3-1.8,8-1.8,11,0L1067.9,191.6z"/>
					</g>
				</g>
			</g>
			<g id="XMLID_812_">
				<g id="XMLID_828_">
					<polygon id="XMLID_829_" class="st38" points="958.6,134.3 955.1,136.4 951.4,134.2 931.9,145.6 928.4,143.5 947.9,132.2 
						944.2,130 947.7,128 					"/>
				</g>
				<g id="XMLID_826_">
					<polygon id="XMLID_827_" class="st57" points="1002.1,226.3 992.5,231.9 866.9,159.3 876.4,153.8 					"/>
				</g>
				<g id="XMLID_824_">
					<polygon id="XMLID_825_" class="st38" points="977.7,145.3 954.6,158.7 951.1,156.7 965.6,148.3 948.1,154.9 945.3,153.3 
						956.3,142.9 941.9,151.3 938.4,149.3 961.4,135.9 966.5,138.8 953.2,150.3 972.8,142.5 					"/>
				</g>
				<g id="XMLID_820_">
					<path id="XMLID_821_" class="st38" d="M944.1,126L925,141.6l-3.7-2.1l4.5-3.6l-3.6-2.1l-6.2,2.6l-3.6-2.1l27-11.1L944.1,126z
						 M926.1,132.2l2.6,1.5l7.8-6L926.1,132.2"/>
				</g>
				<g id="XMLID_818_">
					<polygon id="XMLID_819_" class="st57" points="1044,202 1036.8,206.1 962.5,163.2 969.6,159.1 					"/>
				</g>
				<g id="XMLID_816_">
					<polygon id="XMLID_817_" class="st69" points="1037.2,216.1 1016.4,228.2 873.2,145.5 893.9,133.4 					"/>
				</g>
				<g id="XMLID_814_">
					<polygon id="XMLID_815_" class="st57" points="1058.4,193.6 1048.7,199.2 974.4,156.3 984.1,150.7 					"/>
				</g>
			</g>
		</g>
	</g>
</g>
<g id="DESIGNED_BY_FREEPIK" class="st0">
	<g id="XMLID_4812_" class="st70">
		<path id="XMLID_4872_" class="st71" d="M638.5,441.2V441c-0.3,0.4-0.7,0.7-1,1s-0.7,0.4-1.1,0.6c-0.4,0.1-0.8,0.2-1.3,0.2
			c-0.6,0-1.2-0.1-1.7-0.4c-0.5-0.3-1-0.6-1.4-1.1s-0.7-1.1-0.9-1.7c-0.2-0.7-0.3-1.4-0.3-2.1c0-1.6,0.4-2.9,1.2-3.8
			c0.8-0.9,1.8-1.4,3.1-1.4c0.7,0,1.4,0.1,1.9,0.4c0.5,0.3,1,0.7,1.5,1.2v-3.8c0-0.5,0.1-0.9,0.3-1.2c0.2-0.3,0.5-0.4,0.9-0.4
			s0.7,0.1,0.9,0.4c0.2,0.3,0.3,0.6,0.3,1.1v11.4c0,0.5-0.1,0.9-0.3,1.1c-0.2,0.2-0.5,0.4-0.9,0.4s-0.6-0.1-0.9-0.4
			C638.6,442.1,638.5,441.7,638.5,441.2 M633.4,437.4c0,0.7,0.1,1.3,0.3,1.8c0.2,0.5,0.5,0.9,0.9,1.1c0.4,0.3,0.8,0.4,1.2,0.4
			c0.5,0,0.9-0.1,1.3-0.4c0.4-0.2,0.7-0.6,0.9-1.1c0.2-0.5,0.3-1.1,0.3-1.8s-0.1-1.3-0.3-1.8c-0.2-0.5-0.5-0.9-0.9-1.1
			c-0.4-0.3-0.8-0.4-1.3-0.4s-0.9,0.1-1.3,0.4c-0.4,0.3-0.7,0.7-0.9,1.2C633.5,436.2,633.4,436.7,633.4,437.4"/>
		<path id="XMLID_4869_" class="st71" d="M649.9,438.1h-5.1c0,0.6,0.1,1.1,0.4,1.6c0.2,0.5,0.5,0.8,0.9,1s0.8,0.3,1.3,0.3
			c0.3,0,0.6,0,0.9-0.1c0.3-0.1,0.5-0.2,0.7-0.3c0.2-0.2,0.5-0.3,0.7-0.5c0.2-0.2,0.5-0.4,0.8-0.7c0.1-0.1,0.3-0.2,0.6-0.2
			c0.3,0,0.5,0.1,0.6,0.2c0.2,0.1,0.2,0.4,0.2,0.6c0,0.2-0.1,0.5-0.3,0.8c-0.2,0.3-0.5,0.6-0.8,0.9c-0.4,0.3-0.8,0.5-1.4,0.7
			s-1.2,0.3-1.9,0.3c-1.7,0-3-0.5-3.9-1.4s-1.4-2.2-1.4-3.9c0-0.8,0.1-1.5,0.3-2.1c0.2-0.7,0.6-1.2,1-1.7c0.4-0.5,1-0.8,1.6-1.1
			s1.3-0.4,2.1-0.4c1,0,1.9,0.2,2.6,0.6c0.7,0.4,1.3,1,1.6,1.7c0.4,0.7,0.5,1.4,0.5,2.1c0,0.7-0.2,1.1-0.6,1.3
			C651.1,438,650.6,438.1,649.9,438.1 M644.9,436.6h4.7c-0.1-0.9-0.3-1.6-0.7-2s-1-0.7-1.6-0.7s-1.2,0.2-1.6,0.7
			C645.2,435.1,644.9,435.7,644.9,436.6"/>
		<path id="XMLID_4868_" class="st71" d="M661.7,439.3c0,0.7-0.2,1.3-0.5,1.8s-0.9,0.9-1.5,1.2c-0.7,0.3-1.5,0.4-2.5,0.4
			c-0.9,0-1.7-0.1-2.4-0.4c-0.7-0.3-1.2-0.6-1.5-1.1c-0.3-0.4-0.5-0.9-0.5-1.3c0-0.3,0.1-0.5,0.3-0.7c0.2-0.2,0.5-0.3,0.8-0.3
			c0.3,0,0.5,0.1,0.6,0.2c0.1,0.1,0.3,0.3,0.4,0.6c0.3,0.5,0.6,0.8,1,1c0.4,0.2,0.9,0.3,1.5,0.3c0.5,0,0.9-0.1,1.3-0.3
			c0.3-0.2,0.5-0.5,0.5-0.8c0-0.5-0.2-0.8-0.5-1c-0.3-0.2-0.9-0.4-1.7-0.6c-0.9-0.2-1.6-0.5-2.2-0.7c-0.6-0.2-1-0.6-1.3-1
			c-0.3-0.4-0.5-0.9-0.5-1.5c0-0.5,0.2-1,0.5-1.5c0.3-0.5,0.8-0.8,1.4-1.1s1.3-0.4,2.2-0.4c0.7,0,1.3,0.1,1.8,0.2
			c0.5,0.1,1,0.3,1.3,0.6c0.4,0.2,0.6,0.5,0.8,0.8s0.3,0.6,0.3,0.8c0,0.3-0.1,0.5-0.3,0.7s-0.5,0.3-0.9,0.3c-0.3,0-0.5-0.1-0.7-0.2
			c-0.2-0.2-0.4-0.4-0.6-0.7s-0.4-0.5-0.7-0.6c-0.3-0.2-0.6-0.2-1.1-0.2s-0.9,0.1-1.2,0.3c-0.3,0.2-0.5,0.4-0.5,0.7s0.1,0.5,0.3,0.7
			c0.2,0.2,0.5,0.3,0.9,0.4c0.4,0.1,0.9,0.3,1.6,0.4c0.8,0.2,1.5,0.4,2,0.7s0.9,0.6,1.2,1C661.6,438.4,661.7,438.8,661.7,439.3"/>
		<path id="XMLID_4865_" class="st71" d="M664.4,431c-0.4,0-0.7-0.1-0.9-0.3c-0.3-0.2-0.4-0.5-0.4-0.9s0.1-0.7,0.4-0.9
			s0.6-0.4,0.9-0.4c0.3,0,0.6,0.1,0.9,0.3s0.4,0.5,0.4,0.9s-0.1,0.7-0.4,0.9S664.7,431,664.4,431 M665.7,433.6v7.5
			c0,0.5-0.1,0.9-0.4,1.2c-0.2,0.3-0.6,0.4-0.9,0.4c-0.4,0-0.7-0.1-0.9-0.4c-0.2-0.3-0.4-0.7-0.4-1.2v-7.4c0-0.5,0.1-0.9,0.4-1.2
			c0.2-0.3,0.5-0.4,0.9-0.4s0.7,0.1,0.9,0.4C665.5,432.8,665.7,433.2,665.7,433.6"/>
		<path id="XMLID_4862_" class="st71" d="M677,434.1v7.5c0,0.9-0.1,1.6-0.3,2.2c-0.2,0.6-0.5,1.1-0.9,1.5c-0.4,0.4-0.9,0.7-1.6,0.9
			s-1.5,0.3-2.4,0.3c-0.9,0-1.7-0.1-2.4-0.4c-0.7-0.3-1.2-0.6-1.6-1c-0.4-0.4-0.6-0.8-0.6-1.2c0-0.3,0.1-0.6,0.3-0.8
			c0.2-0.2,0.5-0.3,0.8-0.3c0.4,0,0.7,0.2,1,0.5c0.1,0.2,0.3,0.3,0.4,0.5c0.1,0.2,0.3,0.3,0.5,0.4c0.2,0.1,0.4,0.2,0.7,0.3
			c0.3,0.1,0.5,0.1,0.9,0.1c0.7,0,1.2-0.1,1.6-0.3c0.4-0.2,0.6-0.4,0.8-0.8c0.1-0.3,0.2-0.7,0.3-1.1c0-0.4,0-1,0.1-1.8
			c-0.4,0.6-0.9,1-1.4,1.3s-1.1,0.4-1.9,0.4c-0.9,0-1.6-0.2-2.3-0.7c-0.6-0.4-1.1-1.1-1.5-1.9c-0.3-0.8-0.5-1.7-0.5-2.8
			c0-0.8,0.1-1.5,0.3-2.1s0.5-1.2,0.9-1.6c0.4-0.4,0.8-0.8,1.4-1c0.5-0.2,1.1-0.3,1.7-0.3c0.7,0,1.4,0.1,1.9,0.4
			c0.5,0.3,1,0.7,1.5,1.3v-0.4c0-0.5,0.1-0.8,0.3-1c0.2-0.2,0.5-0.4,0.9-0.4c0.5,0,0.8,0.2,1,0.5C676.9,433,677,433.4,677,434.1
			 M669.5,437.3c0,1.1,0.2,1.8,0.7,2.4c0.5,0.5,1.1,0.8,1.8,0.8c0.4,0,0.8-0.1,1.2-0.3c0.4-0.2,0.7-0.6,0.9-1c0.2-0.5,0.4-1,0.4-1.7
			c0-1.1-0.2-1.9-0.7-2.5s-1.1-0.9-1.8-0.9c-0.7,0-1.3,0.3-1.8,0.8C669.7,435.5,669.5,436.3,669.5,437.3"/>
		<path id="XMLID_4861_" class="st71" d="M681.2,433.6v0.3c0.5-0.6,1-1,1.5-1.3s1.2-0.4,1.9-0.4c0.7,0,1.3,0.1,1.8,0.4
			c0.5,0.3,0.9,0.7,1.2,1.3c0.2,0.3,0.3,0.7,0.3,1c0.1,0.4,0.1,0.8,0.1,1.4v4.8c0,0.5-0.1,0.9-0.4,1.2c-0.2,0.3-0.5,0.4-0.9,0.4
			s-0.7-0.1-0.9-0.4c-0.2-0.3-0.4-0.7-0.4-1.2v-4.3c0-0.9-0.1-1.5-0.4-2c-0.2-0.5-0.7-0.7-1.4-0.7c-0.5,0-0.9,0.1-1.3,0.4
			c-0.4,0.3-0.7,0.7-0.8,1.1c-0.1,0.4-0.2,1.1-0.2,2.2v3.2c0,0.5-0.1,0.9-0.4,1.2c-0.2,0.3-0.6,0.4-0.9,0.4c-0.4,0-0.7-0.1-0.9-0.4
			c-0.2-0.3-0.4-0.7-0.4-1.2v-7.5c0-0.5,0.1-0.9,0.3-1.1c0.2-0.2,0.5-0.4,0.9-0.4c0.2,0,0.4,0.1,0.6,0.2c0.2,0.1,0.3,0.3,0.4,0.5
			C681.1,433,681.2,433.3,681.2,433.6"/>
		<path id="XMLID_4858_" class="st71" d="M696.9,438.1h-5.1c0,0.6,0.1,1.1,0.4,1.6c0.2,0.5,0.5,0.8,0.9,1s0.8,0.3,1.3,0.3
			c0.3,0,0.6,0,0.9-0.1c0.3-0.1,0.5-0.2,0.7-0.3c0.2-0.2,0.5-0.3,0.7-0.5c0.2-0.2,0.5-0.4,0.8-0.7c0.1-0.1,0.3-0.2,0.6-0.2
			c0.3,0,0.5,0.1,0.6,0.2c0.2,0.1,0.2,0.4,0.2,0.6c0,0.2-0.1,0.5-0.3,0.8c-0.2,0.3-0.5,0.6-0.8,0.9c-0.4,0.3-0.8,0.5-1.4,0.7
			s-1.2,0.3-1.9,0.3c-1.7,0-3-0.5-3.9-1.4s-1.4-2.2-1.4-3.9c0-0.8,0.1-1.5,0.3-2.1c0.2-0.7,0.6-1.2,1-1.7c0.4-0.5,1-0.8,1.6-1.1
			s1.3-0.4,2.1-0.4c1,0,1.9,0.2,2.6,0.6c0.7,0.4,1.3,1,1.6,1.7c0.4,0.7,0.5,1.4,0.5,2.1c0,0.7-0.2,1.1-0.6,1.3
			C698.1,438,697.6,438.1,696.9,438.1 M691.9,436.6h4.7c-0.1-0.9-0.3-1.6-0.7-2s-1-0.7-1.6-0.7s-1.2,0.2-1.6,0.7
			C692.2,435.1,691.9,435.7,691.9,436.6"/>
		<path id="XMLID_4855_" class="st71" d="M707.5,441.2V441c-0.3,0.4-0.7,0.7-1,1s-0.7,0.4-1.1,0.6c-0.4,0.1-0.8,0.2-1.3,0.2
			c-0.6,0-1.2-0.1-1.7-0.4c-0.5-0.3-1-0.6-1.4-1.1s-0.7-1.1-0.9-1.7c-0.2-0.7-0.3-1.4-0.3-2.1c0-1.6,0.4-2.9,1.2-3.8
			c0.8-0.9,1.8-1.4,3.1-1.4c0.7,0,1.4,0.1,1.9,0.4c0.5,0.3,1,0.7,1.5,1.2v-3.8c0-0.5,0.1-0.9,0.3-1.2c0.2-0.3,0.5-0.4,0.9-0.4
			s0.7,0.1,0.9,0.4c0.2,0.3,0.3,0.6,0.3,1.1v11.4c0,0.5-0.1,0.9-0.3,1.1c-0.2,0.2-0.5,0.4-0.9,0.4s-0.6-0.1-0.9-0.4
			C707.6,442.1,707.5,441.7,707.5,441.2 M702.4,437.4c0,0.7,0.1,1.3,0.3,1.8c0.2,0.5,0.5,0.9,0.9,1.1c0.4,0.3,0.8,0.4,1.2,0.4
			c0.5,0,0.9-0.1,1.2-0.4c0.4-0.2,0.7-0.6,0.9-1.1c0.2-0.5,0.3-1.1,0.3-1.8s-0.1-1.3-0.3-1.8c-0.2-0.5-0.5-0.9-0.9-1.1
			c-0.4-0.3-0.8-0.4-1.3-0.4s-0.9,0.1-1.3,0.4c-0.4,0.3-0.7,0.7-0.9,1.2C702.5,436.2,702.4,436.7,702.4,437.4"/>
		<path id="XMLID_4852_" class="st71" d="M718.1,429.8v4c0.5-0.5,1-0.9,1.5-1.2s1.1-0.4,1.9-0.4c0.9,0,1.6,0.2,2.3,0.6
			c0.6,0.4,1.2,1,1.5,1.8c0.4,0.8,0.5,1.7,0.5,2.8c0,0.8-0.1,1.5-0.3,2.2c-0.2,0.7-0.5,1.2-0.9,1.7c-0.4,0.5-0.8,0.9-1.4,1.1
			c-0.5,0.3-1.1,0.4-1.8,0.4c-0.4,0-0.8,0-1.1-0.1c-0.4-0.1-0.7-0.2-0.9-0.4c-0.2-0.2-0.5-0.3-0.6-0.5c-0.2-0.2-0.4-0.4-0.7-0.7v0.3
			c0,0.5-0.1,0.9-0.4,1.1c-0.2,0.3-0.5,0.4-0.9,0.4c-0.4,0-0.7-0.1-0.9-0.4c-0.2-0.3-0.3-0.6-0.3-1.1v-11.3c0-0.5,0.1-0.9,0.3-1.2
			c0.2-0.3,0.5-0.4,0.9-0.4c0.4,0,0.7,0.1,0.9,0.4C718,428.9,718.1,429.3,718.1,429.8 M718.2,437.5c0,1,0.2,1.8,0.7,2.4
			c0.5,0.6,1.1,0.8,1.9,0.8c0.7,0,1.2-0.3,1.7-0.9c0.5-0.6,0.7-1.4,0.7-2.4c0-0.7-0.1-1.3-0.3-1.8c-0.2-0.5-0.5-0.9-0.8-1.1
			c-0.4-0.3-0.8-0.4-1.3-0.4s-0.9,0.1-1.3,0.4c-0.4,0.3-0.7,0.7-0.9,1.2C718.3,436.2,718.2,436.8,718.2,437.5"/>
		<path id="XMLID_4851_" class="st71" d="M729.1,443l0.2-0.6l-3.2-8c-0.2-0.5-0.3-0.8-0.3-1s0.1-0.4,0.2-0.6
			c0.1-0.2,0.3-0.3,0.5-0.5c0.2-0.1,0.4-0.2,0.6-0.2c0.4,0,0.7,0.1,0.8,0.4c0.2,0.2,0.4,0.6,0.5,1l2.2,6.4l2.1-5.9
			c0.2-0.5,0.3-0.9,0.4-1.1c0.1-0.3,0.3-0.5,0.4-0.5c0.1-0.1,0.4-0.1,0.6-0.1s0.4,0.1,0.6,0.2c0.2,0.1,0.3,0.2,0.4,0.4
			s0.1,0.4,0.1,0.6c0,0.1-0.1,0.3-0.1,0.5c-0.1,0.2-0.1,0.4-0.2,0.7l-3.4,8.9c-0.3,0.8-0.6,1.4-0.9,1.8c-0.3,0.4-0.6,0.8-1.1,1
			s-1.1,0.4-1.9,0.4s-1.3-0.1-1.7-0.2c-0.4-0.2-0.6-0.5-0.6-0.9c0-0.3,0.1-0.5,0.3-0.7c0.2-0.2,0.4-0.2,0.8-0.2c0.1,0,0.3,0,0.4,0.1
			c0.2,0,0.3,0.1,0.4,0.1c0.3,0,0.5,0,0.7-0.1c0.2-0.1,0.3-0.2,0.5-0.5C728.8,443.8,729,443.4,729.1,443"/>
		<path id="XMLID_4850_" class="st71" d="M766.7,432.4h0.6v-0.8c0-0.8,0.1-1.5,0.3-1.9c0.2-0.5,0.6-0.8,1-1c0.5-0.2,1.2-0.3,2-0.3
			c1.5,0,2.3,0.4,2.3,1.1c0,0.2-0.1,0.4-0.2,0.6c-0.2,0.2-0.3,0.3-0.6,0.3c-0.1,0-0.3,0-0.5-0.1c-0.2,0-0.5-0.1-0.6-0.1
			c-0.5,0-0.8,0.1-0.9,0.4c-0.1,0.3-0.2,0.7-0.2,1.2v0.6h0.6c1,0,1.5,0.3,1.5,0.9c0,0.4-0.1,0.7-0.4,0.8s-0.6,0.2-1.1,0.2h-0.6v6.9
			c0,0.5-0.1,0.9-0.4,1.2c-0.2,0.3-0.6,0.4-0.9,0.4c-0.4,0-0.7-0.1-0.9-0.4c-0.2-0.3-0.4-0.7-0.4-1.2v-6.9h-0.7
			c-0.4,0-0.7-0.1-0.9-0.3c-0.2-0.2-0.3-0.4-0.3-0.7C765.4,432.7,765.8,432.4,766.7,432.4"/>
		<path id="XMLID_4849_" class="st71" d="M775.2,439v2.2c0,0.5-0.1,0.9-0.4,1.2c-0.2,0.3-0.6,0.4-0.9,0.4c-0.4,0-0.7-0.1-0.9-0.4
			c-0.2-0.3-0.4-0.7-0.4-1.2V434c0-1.2,0.4-1.7,1.3-1.7c0.4,0,0.7,0.1,0.9,0.4c0.2,0.3,0.3,0.7,0.3,1.2c0.3-0.5,0.6-0.9,0.9-1.2
			s0.8-0.4,1.3-0.4s1.1,0.1,1.6,0.4c0.5,0.3,0.8,0.6,0.8,1.1c0,0.3-0.1,0.6-0.3,0.8c-0.2,0.2-0.5,0.3-0.7,0.3
			c-0.1,0-0.3-0.1-0.7-0.2c-0.4-0.1-0.7-0.2-1-0.2c-0.4,0-0.7,0.1-0.9,0.3c-0.2,0.2-0.4,0.5-0.6,0.9c-0.1,0.4-0.2,0.9-0.3,1.4
			C775.2,437.5,775.2,438.2,775.2,439"/>
		<path id="XMLID_4846_" class="st71" d="M787.1,438.1H782c0,0.6,0.1,1.1,0.4,1.6c0.2,0.4,0.5,0.8,0.9,1s0.8,0.3,1.3,0.3
			c0.3,0,0.6,0,0.8-0.1c0.3-0.1,0.5-0.2,0.7-0.3c0.2-0.2,0.5-0.3,0.7-0.5s0.5-0.4,0.8-0.7c0.1-0.1,0.3-0.2,0.6-0.2
			c0.3,0,0.5,0.1,0.6,0.2c0.2,0.1,0.2,0.4,0.2,0.6c0,0.2-0.1,0.5-0.3,0.8s-0.5,0.6-0.8,0.9c-0.4,0.3-0.8,0.5-1.4,0.7
			c-0.6,0.2-1.2,0.3-1.9,0.3c-1.7,0-3-0.5-3.9-1.4c-0.9-1-1.4-2.2-1.4-3.9c0-0.8,0.1-1.5,0.3-2.1c0.2-0.7,0.6-1.2,1-1.7
			s1-0.8,1.6-1.1c0.6-0.2,1.3-0.4,2.1-0.4c1,0,1.9,0.2,2.6,0.6c0.7,0.4,1.3,1,1.6,1.7c0.4,0.7,0.5,1.4,0.5,2.1
			c0,0.6-0.2,1.1-0.6,1.3C788.3,438,787.8,438.1,787.1,438.1 M782,436.6h4.7c-0.1-0.9-0.3-1.5-0.7-2c-0.4-0.4-1-0.7-1.6-0.7
			c-0.6,0-1.2,0.2-1.6,0.7S782.1,435.7,782,436.6"/>
		<path id="XMLID_4843_" class="st71" d="M797.9,438.1h-5.1c0,0.6,0.1,1.1,0.4,1.6c0.2,0.4,0.5,0.8,0.9,1s0.8,0.3,1.3,0.3
			c0.3,0,0.6,0,0.8-0.1c0.3-0.1,0.5-0.2,0.8-0.3c0.2-0.2,0.5-0.3,0.7-0.5s0.5-0.4,0.8-0.7c0.1-0.1,0.3-0.2,0.6-0.2
			c0.3,0,0.5,0.1,0.7,0.2c0.2,0.1,0.2,0.4,0.2,0.6c0,0.2-0.1,0.5-0.3,0.8c-0.2,0.3-0.5,0.6-0.8,0.9c-0.4,0.3-0.8,0.5-1.4,0.7
			s-1.2,0.3-1.9,0.3c-1.7,0-3-0.5-3.9-1.4c-0.9-1-1.4-2.2-1.4-3.9c0-0.8,0.1-1.5,0.3-2.1c0.2-0.7,0.6-1.2,1-1.7
			c0.4-0.5,1-0.8,1.6-1.1c0.6-0.2,1.3-0.4,2.1-0.4c1,0,1.9,0.2,2.6,0.6c0.7,0.4,1.3,1,1.6,1.7c0.4,0.7,0.5,1.4,0.5,2.1
			c0,0.6-0.2,1.1-0.6,1.3C799.1,438,798.6,438.1,797.9,438.1 M792.8,436.6h4.7c-0.1-0.9-0.3-1.5-0.7-2c-0.4-0.4-1-0.7-1.6-0.7
			c-0.6,0-1.2,0.2-1.6,0.7C793.2,435.1,792.9,435.7,792.8,436.6"/>
		<path id="XMLID_4840_" class="st71" d="M803.6,433.6v0.3c0.5-0.6,1-1,1.5-1.3s1.1-0.4,1.8-0.4c0.8,0,1.5,0.2,2.2,0.6
			c0.7,0.4,1.2,1,1.6,1.8s0.6,1.7,0.6,2.8c0,0.8-0.1,1.5-0.3,2.2c-0.2,0.7-0.5,1.2-0.9,1.7s-0.9,0.8-1.4,1s-1.1,0.4-1.7,0.4
			c-0.7,0-1.4-0.1-1.9-0.4c-0.5-0.3-1-0.7-1.4-1.3v3.9c0,1.1-0.4,1.7-1.2,1.7c-0.5,0-0.8-0.1-1-0.4c-0.2-0.3-0.2-0.7-0.2-1.3v-11.2
			c0-0.5,0.1-0.9,0.3-1.1c0.2-0.2,0.5-0.4,0.9-0.4s0.7,0.1,0.9,0.4C803.5,432.8,803.6,433.1,803.6,433.6 M808.7,437.4
			c0-0.7-0.1-1.3-0.3-1.8c-0.2-0.5-0.5-0.9-0.9-1.1c-0.4-0.3-0.8-0.4-1.2-0.4c-0.7,0-1.3,0.3-1.8,0.8c-0.5,0.6-0.7,1.4-0.7,2.5
			c0,1,0.2,1.8,0.7,2.4c0.5,0.6,1.1,0.9,1.8,0.9c0.4,0,0.8-0.1,1.2-0.4c0.4-0.3,0.7-0.6,0.9-1.1
			C808.6,438.7,808.7,438.1,808.7,437.4"/>
		<path id="XMLID_4834_" class="st71" d="M813.9,430.9c-0.4,0-0.7-0.1-0.9-0.3c-0.3-0.2-0.4-0.5-0.4-0.9s0.1-0.7,0.4-0.9
			s0.6-0.4,0.9-0.4c0.3,0,0.6,0.1,0.9,0.3s0.4,0.5,0.4,0.9s-0.1,0.7-0.4,0.9C814.5,430.8,814.2,430.9,813.9,430.9 M815.2,433.6v7.5
			c0,0.5-0.1,0.9-0.4,1.2c-0.3,0.3-0.6,0.4-0.9,0.4c-0.4,0-0.7-0.1-0.9-0.4c-0.2-0.3-0.4-0.7-0.4-1.2v-7.4c0-0.5,0.1-0.9,0.4-1.2
			c0.2-0.3,0.5-0.4,0.9-0.4s0.7,0.1,0.9,0.4C815,432.8,815.2,433.2,815.2,433.6"/>
		<path id="XMLID_4833_" class="st71" d="M823.5,441.5l-2.3-3.8l-1.4,1.3v2.1c0,0.5-0.1,0.9-0.4,1.1c-0.3,0.3-0.6,0.4-0.9,0.4
			c-0.4,0-0.7-0.1-0.9-0.4c-0.2-0.3-0.3-0.7-0.3-1.2v-11.1c0-0.6,0.1-1,0.3-1.3s0.5-0.5,1-0.5c0.4,0,0.7,0.1,0.9,0.4
			c0.2,0.3,0.4,0.7,0.4,1.2v6.3l2.9-3.1c0.4-0.4,0.6-0.6,0.8-0.8c0.2-0.1,0.4-0.2,0.7-0.2c0.3,0,0.6,0.1,0.8,0.3
			c0.2,0.2,0.3,0.5,0.3,0.8c0,0.4-0.4,0.9-1.1,1.5L823,436l2.7,4.2c0.2,0.3,0.3,0.5,0.4,0.7c0.1,0.2,0.1,0.3,0.1,0.5
			c0,0.4-0.1,0.7-0.3,1c-0.2,0.2-0.5,0.4-0.9,0.4c-0.3,0-0.6-0.1-0.7-0.3C824.1,442.3,823.8,442,823.5,441.5"/>
		<path id="XMLID_4832_" class="st71" d="M829.2,442.7c-0.4,0-0.7-0.1-1-0.4c-0.3-0.2-0.4-0.6-0.4-1.1c0-0.4,0.1-0.7,0.4-1
			s0.6-0.4,1-0.4s0.7,0.1,1,0.4c0.3,0.3,0.4,0.6,0.4,1c0,0.5-0.1,0.8-0.4,1.1S829.5,442.7,829.2,442.7"/>
		<path id="XMLID_4831_" class="st71" d="M842.1,439.5c0,0.3-0.1,0.7-0.3,1c-0.2,0.4-0.5,0.7-0.9,1s-0.9,0.6-1.5,0.8s-1.3,0.3-2,0.3
			c-1.6,0-2.9-0.5-3.8-1.4s-1.3-2.2-1.3-3.8c0-1.1,0.2-2,0.6-2.8c0.4-0.8,1-1.4,1.8-1.9c0.8-0.4,1.7-0.7,2.8-0.7
			c0.7,0,1.3,0.1,1.9,0.3s1,0.5,1.4,0.8c0.4,0.3,0.7,0.6,0.9,1s0.3,0.7,0.3,1s-0.1,0.6-0.3,0.8s-0.5,0.3-0.8,0.3
			c-0.2,0-0.4-0.1-0.5-0.2c-0.1-0.1-0.3-0.3-0.5-0.5c-0.3-0.5-0.6-0.8-1-1.1c-0.3-0.2-0.8-0.4-1.3-0.4c-0.8,0-1.4,0.3-1.9,0.9
			c-0.5,0.6-0.7,1.4-0.7,2.5c0,0.5,0.1,0.9,0.2,1.3c0.1,0.4,0.3,0.8,0.5,1c0.2,0.3,0.5,0.5,0.8,0.7c0.3,0.2,0.7,0.2,1.1,0.2
			c0.5,0,1-0.1,1.3-0.4c0.4-0.2,0.7-0.6,1-1.1c0.2-0.3,0.3-0.5,0.5-0.7s0.4-0.2,0.7-0.2s0.6,0.1,0.8,0.4
			C842,439,842.1,439.2,842.1,439.5"/>
		<path id="XMLID_4828_" class="st71" d="M853.2,437.4c0,0.8-0.1,1.5-0.4,2.1c-0.2,0.7-0.6,1.2-1,1.7c-0.5,0.5-1,0.8-1.6,1.1
			c-0.6,0.2-1.3,0.4-2.1,0.4c-0.8,0-1.5-0.1-2.1-0.4c-0.6-0.2-1.2-0.6-1.6-1.1c-0.5-0.5-0.8-1-1.1-1.7c-0.2-0.6-0.4-1.4-0.4-2.1
			c0-0.8,0.1-1.5,0.4-2.2c0.2-0.7,0.6-1.2,1-1.7c0.5-0.5,1-0.8,1.6-1.1c0.6-0.2,1.3-0.4,2.1-0.4c0.8,0,1.5,0.1,2.1,0.4
			c0.6,0.3,1.2,0.6,1.6,1.1c0.5,0.5,0.8,1,1,1.7C853.1,435.9,853.2,436.6,853.2,437.4 M850.6,437.4c0-1.1-0.2-1.9-0.7-2.5
			s-1.1-0.9-1.9-0.9c-0.5,0-1,0.1-1.3,0.4c-0.4,0.3-0.7,0.6-0.9,1.2c-0.2,0.5-0.3,1.1-0.3,1.8s0.1,1.3,0.3,1.8
			c0.2,0.5,0.5,0.9,0.9,1.2s0.8,0.4,1.4,0.4c0.8,0,1.4-0.3,1.9-0.9C850.4,439.3,850.6,438.5,850.6,437.4"/>
		<path id="XMLID_4827_" class="st71" d="M863.1,437.6v3.4c0,0.5-0.1,1-0.4,1.2c-0.3,0.3-0.6,0.4-1,0.4s-0.7-0.1-1-0.4
			c-0.2-0.3-0.4-0.7-0.4-1.2v-4.1c0-0.7,0-1.2-0.1-1.5c0-0.4-0.2-0.7-0.4-0.9c-0.2-0.2-0.5-0.4-0.9-0.4c-0.9,0-1.4,0.3-1.7,0.9
			c-0.3,0.6-0.4,1.4-0.4,2.5v3.5c0,0.5-0.1,0.9-0.4,1.2c-0.2,0.3-0.6,0.4-1,0.4s-0.7-0.1-1-0.4c-0.3-0.3-0.4-0.7-0.4-1.2v-7.4
			c0-0.5,0.1-0.9,0.3-1.1c0.2-0.3,0.5-0.4,0.9-0.4s0.7,0.1,0.9,0.4c0.2,0.2,0.4,0.6,0.4,1v0.2c0.5-0.5,0.9-0.9,1.4-1.2
			s1.1-0.4,1.7-0.4c0.7,0,1.2,0.1,1.7,0.4c0.5,0.3,0.9,0.7,1.2,1.2c0.4-0.5,0.9-0.9,1.4-1.2s1.1-0.4,1.7-0.4c0.7,0,1.3,0.1,1.8,0.4
			c0.5,0.3,0.9,0.7,1.1,1.2c0.2,0.5,0.3,1.2,0.3,2.2v5.1c0,0.5-0.1,1-0.4,1.2c-0.2,0.3-0.6,0.4-1,0.4s-0.7-0.1-1-0.4
			c-0.3-0.3-0.4-0.7-0.4-1.2v-4.4c0-0.6,0-1-0.1-1.3c0-0.3-0.2-0.6-0.4-0.8s-0.5-0.3-1-0.3c-0.3,0-0.7,0.1-1,0.3s-0.5,0.5-0.7,0.8
			C863.2,435.7,863.1,436.5,863.1,437.6"/>
		<path id="XMLID_4826_" class="st71" d="M742.4,436.8L742.4,436.8L742.4,436.8"/>
		<path id="XMLID_4825_" class="st71" d="M742.6,437.6L742.6,437.6c0-0.2-0.1-0.5-0.1-0.7C742.5,437.2,742.5,437.4,742.6,437.6"/>
		<path id="XMLID_4824_" class="st71" d="M743.4,440L743.4,440L743.4,440"/>
		<path id="XMLID_4823_" class="st71" d="M743.3,439.9c0,0,0-0.1-0.1-0.1C743.3,439.8,743.3,439.8,743.3,439.9"/>
		<path id="XMLID_4822_" class="st71" d="M742.8,438.6c0.1,0.4,0.3,0.8,0.5,1.2C743.1,439.3,742.9,438.9,742.8,438.6L742.8,438.6z"
			/>
		<path id="XMLID_4821_" class="st71" d="M752.5,426.9c0.5,0,0.9,0,1.3,0.1l0.1-0.8c0,0-1.2-0.4-2.7-0.2l-0.1-0.4
			c0.5-0.1,0.8-0.5,0.8-1c0-0.6-0.5-1.1-1.1-1.1c-0.6,0-1.1,0.5-1.1,1.1c0,0.5,0.4,0.9,0.8,1l0.1,0.5c-1.6,0.2-2.9,0.9-2.9,0.9
			l0.2,0.7c1-0.3,1.8-0.5,2.6-0.6C751.4,426.9,752,426.9,752.5,426.9"/>
		<path id="XMLID_4820_" class="st71" d="M743.4,430.7L743.4,430.7c0-0.1,0.1-0.1,0.1-0.2l-0.3-0.2l-0.5-0.4c0,0-0.8,0.7-1.4,2
			l-0.1-0.1c-0.2-0.2-0.4-0.3-0.8-0.3l0,0c-0.2,0-0.3-0.1-0.4-0.1c0.1-0.1,0.1-0.3,0.1-0.4c0-0.4-0.3-0.7-0.7-0.7s-0.7,0.3-0.7,0.7
			s0.3,0.7,0.7,0.7c0.1,0,0.1,0,0.2,0c0.2,0.2,0.4,0.3,0.8,0.3c0.2,0,0.3,0,0.4,0.2c0.1,0.1,0.1,0.3,0.2,0.4l0,0
			c-0.4,1.2-0.3,2.7-0.3,2.7h1.1c0-0.5,0.1-1.5,0.4-2.2C742.7,431.7,743.4,430.8,743.4,430.7"/>
		<path id="XMLID_4819_" class="st71" d="M761.7,427.7c-0.4,0-0.7,0.3-0.7,0.7c0,0.1,0,0.1,0,0.2c-0.2,0.2-0.3,0.4-0.3,0.8
			c0,0.2,0,0.3-0.2,0.4c-0.1,0.1-0.2,0.1-0.3,0.1c-0.8-1.1-1.8-1.8-1.8-1.8l-0.8,0.8c0.6,0.5,1.2,1.2,1.7,2c0.4,0.6,0.8,1.3,1.1,2
			l1-0.5c0,0-0.5-1.2-1.1-2.2c0.1,0,0.2-0.1,0.3-0.2c0.2-0.2,0.3-0.4,0.3-0.8c0-0.2,0.1-0.3,0.1-0.4c0.1,0.1,0.3,0.1,0.4,0.1
			c0.4,0,0.7-0.3,0.7-0.7C762.3,428,762,427.7,761.7,427.7"/>
		<path id="XMLID_4818_" class="st71" d="M759,436.9c-1.4,0.7-3.7,1.6-6.8,2c-1.2,0.2-2.4,0.2-3.4,0.2c-1.4,0-2.6-0.1-3.6-0.2
			c-1.1-0.1-1.9-0.3-2.4-0.4c0.1,0.4,0.3,0.8,0.5,1.2l0,0c0,0,0,0.1,0.1,0.1c0,0,0,0.1,0.1,0.1l0,0c0.3,0.6,0.7,1.1,1.1,1.5
			c1.4,1.6,2.9,1.8,2.9,1.8l0,0l0,0c0,0,1.3,0.4,3.3,0.4c1.9,0,3.9-0.4,5.7-1.2c1.3-0.7,2.6-1.7,3.3-2.7c0.5-0.7,0.8-1.5,1-2.3
			c0.1-0.4,0.2-1.1,0.1-1.8C760.5,436.2,759.9,436.5,759,436.9"/>
		<path id="XMLID_4813_" class="st71" d="M743.9,431.1c0,0.1-0.7,0.9-1.1,2.3c-0.4,1-0.3,2.4-0.3,2.5l0,0c0,0.3,0,0.7,0.1,1l0,0v0.1
			c0,0.2,0.1,0.5,0.1,0.7c0.7,0.2,4.9,1.2,9.5,0.5c2.9-0.4,5.1-1.3,6.5-1.9c1.1-0.5,1.8-1,2.1-1.2c-0.3-1-1-2.6-1.7-3.6
			c-2-2.9-4.2-3.6-5.3-3.8c-0.4-0.1-0.8-0.1-1.2-0.1c-0.4,0-1,0-1.7,0.1c-0.7,0.1-1.6,0.3-2.5,0.6c-1.3,0.5-2.6,1.2-3.5,2l0,0
			C744.5,430.3,744.2,430.6,743.9,431.1 M756.1,430.4c1,0,1.7,0.8,1.7,1.7c0,1-0.8,1.7-1.7,1.7c-1,0-1.7-0.8-1.7-1.7
			S755.2,430.4,756.1,430.4 M747.9,430.3c1.6,0,2.8,1.3,2.8,2.8c0,1.6-1.3,2.8-2.8,2.8c-1.6,0-2.8-1.3-2.8-2.8
			S746.3,430.3,747.9,430.3"/>
	</g>
</g>
</svg>
