<?xml version="1.0" encoding="utf-8"?>
<!-- Generator: Adobe Illustrator 21.1.0, SVG Export Plug-In . SVG Version: 6.00 Build 0)  -->
<svg version="1.1" id="Layer_1" xmlns="http://www.w3.org/2000/svg" xmlns:xlink="http://www.w3.org/1999/xlink" x="0px" y="0px"
	 viewBox="0 0 1200 997" style="enable-background:new 0 0 1200 997;" xml:space="preserve">
<style type="text/css">
	.st0{display:none;fill:#87CCCA;}
	.st1{fill:#FFFFFF;}
	.st2{fill:#EDA677;}
	.st3{fill-rule:evenodd;clip-rule:evenodd;fill:#1B384C;}
	.st4{fill-rule:evenodd;clip-rule:evenodd;fill:#DDDBDB;}
	.st5{fill-rule:evenodd;clip-rule:evenodd;fill:#E9E9F0;}
	.st6{fill:#0E2A30;}
	.st7{fill:#1B384C;}
	.st8{opacity:0.2;fill-rule:evenodd;clip-rule:evenodd;fill:#FFFFFF;}
	.st9{fill:#E3AC91;}
	.st10{fill:#F8D0A3;}
	.st11{fill:#EDBDA9;}
	.st12{fill:#161D21;}
	.st13{fill:#E5E1E1;}
	.st14{fill-rule:evenodd;clip-rule:evenodd;}
	.st15{fill:#E74C3C;}
	.st16{fill:#52BA4A;}
	.st17{fill:#2D2D2D;}
</style>
<rect x="1" y="-202" class="st0" width="1200" height="1200"/>
<g>
	<circle class="st1" cx="589.7" cy="459.8" r="270.1"/>
	<g>
		<g>
			<path class="st1" d="M226.6,464.2c-1.1-99.1,37.9-198.4,116.2-270.9C421.1,120.8,523,89.4,621.8,98.1l2.6-2.4
				c-6.9-0.6-13.8-1.1-20.7-1.4c-97.6-3.7-190.9,30.8-262.5,97.2c-71.7,66.4-113.2,156.7-116.9,254.4c-0.3,7-0.3,13.9-0.2,20.8
				L226.6,464.2z"/>
			<path class="st1" d="M903.3,276.4l2-1.8c-13.3-22.5-29-43.7-47.2-63.3c-25.8-27.9-55.3-51.2-87.4-69.5l-2,1.9
				c31.8,18,61.5,41.1,87.6,69.3C874.5,232.7,890.2,254,903.3,276.4z"/>
			<path class="st1" d="M950,414.6c13.9,112.2-24.4,229.3-113.4,311.8c-146.9,136.1-377.2,127.3-513.4-19.6
				c-26.2-28.2-46.9-59.6-62.4-92.7l-2,1.9c15.8,33.4,36.8,64.6,62.6,92.5c66.4,71.7,156.7,113.2,254.4,116.9
				c97.6,3.7,190.9-30.8,262.6-97.2c71.7-66.4,113.2-156.7,116.9-254.4c0.8-20.8-0.2-41.3-2.8-61.5L950,414.6z"/>
		</g>
		<g>
			<path class="st1" d="M325.7,315.1c11.1-20.2,24.7-39.5,40.9-57.4C475.7,137.2,661,125.7,784.2,230l1.6-1.8
				c-59-50-133.5-75.3-211.1-71.5c-81,4-155.5,39.3-209.9,99.4c-16.5,18.2-30.5,38-41.9,59H325.7z"/>
			<path class="st1" d="M289.3,442.5h-2.6c-0.6,10.7-0.6,21.5-0.1,32.4c3.8,77.6,36.4,149.3,92,203l1.6-1.8
				C315.2,613.1,284.5,527.1,289.3,442.5z"/>
			<path class="st1" d="M856.6,315.1c-3.1-5.6-6.3-11.1-9.7-16.6l-1.8,1.9c3,4.8,5.8,9.7,8.5,14.6H856.6z"/>
			<path class="st1" d="M892.7,442.5h-2.6c4.5,77.8-20.9,157.3-77.3,219.5C720.6,763.8,574,787.8,456.4,729.8l-1.8,1.9
				c46,23,97.4,33.8,150.1,31.2c81-4,155.5-39.3,209.9-99.4c54.4-60.1,82.2-137.8,78.2-218.7C892.8,444,892.8,443.2,892.7,442.5z"/>
		</g>
		<g>
			<path class="st1" d="M712.6,761.5c4.4-1.9,8.9-3.8,13.2-5.9l-1-2.2c-4.3,2-8.7,4-13.1,5.8L712.6,761.5z"/>
			<path class="st1" d="M326.2,653.6l-1.9,1.4c2.9,3.8,5.9,7.7,8.9,11.4l1.9-1.5C332.1,661.2,329.1,657.4,326.2,653.6z"/>
			<path class="st1" d="M310.2,629.9l-2,1.3c2.5,4.1,5.1,8.1,7.8,12.1l2-1.3C315.3,638,312.7,633.9,310.2,629.9z"/>
			<path class="st1" d="M275.3,551.5l-2.3,0.7c1.4,4.6,2.8,9.2,4.4,13.8l2.3-0.8C278.1,560.7,276.7,556.1,275.3,551.5z"/>
			<path class="st1" d="M364.4,696.3l-1.6,1.8c3.5,3.3,7.1,6.5,10.7,9.7l1.6-1.8C371.4,702.8,367.8,699.6,364.4,696.3z"/>
			<path class="st1" d="M296.2,604.9l-2.2,1.1c2.1,4.3,4.4,8.6,6.7,12.8l2.1-1.2C300.6,613.4,298.4,609.1,296.2,604.9z"/>
			<path class="st1" d="M284.6,578.7l-2.2,0.9c1.8,4.5,3.6,9,5.6,13.3l2.2-1C288.2,587.5,286.3,583.1,284.6,578.7z"/>
			<path class="st1" d="M685.4,771.4c4.6-1.4,9.2-3,13.7-4.7l-0.8-2.3c-4.5,1.6-9,3.2-13.6,4.6L685.4,771.4z"/>
			<path class="st1" d="M628.8,781.5l0.3,2.4c4.8-0.6,9.6-1.4,14.3-2.2l-0.4-2.4C638.3,780.2,633.5,780.9,628.8,781.5z"/>
			<path class="st1" d="M657,776.5l0.5,2.3c4.7-1,9.4-2.2,14-3.4l-0.6-2.3C666.4,774.4,661.7,775.5,657,776.5z"/>
			<path class="st1" d="M386.1,715l-1.5,1.9c3.8,3,7.7,5.9,11.6,8.7l1.4-2C393.7,720.8,389.9,717.9,386.1,715z"/>
			<path class="st1" d="M409.4,731.7l-1.3,2c4,2.6,8.2,5.2,12.3,7.6l1.2-2.1C417.5,736.9,413.4,734.3,409.4,731.7z"/>
			<path class="st1" d="M469,762.3c-3-1.2-6-2.4-9-3.6l-0.9,2.2c3.4,1.4,6.8,2.8,10.3,4.1L469,762.3z"/>
			<path class="st1" d="M434.1,746.3l-1.1,2.1c4.2,2.3,8.6,4.5,12.9,6.5l1-2.2C442.7,750.7,438.4,748.5,434.1,746.3z"/>
			<path class="st1" d="M344.4,675.8l-1.8,1.6c3.2,3.6,6.5,7.1,9.9,10.6l1.7-1.7C350.8,682.9,347.5,679.3,344.4,675.8z"/>
			<path class="st1" d="M335.9,254.2l-1.9-1.5c-3.1,3.7-6.1,7.5-8.9,11.4l1.9,1.4C329.8,261.7,332.8,257.9,335.9,254.2z"/>
			<path class="st1" d="M374.4,211.4c-3.6,3.1-7.3,6.3-10.8,9.6l1.6,1.8c3.5-3.3,7.1-6.5,10.7-9.6L374.4,211.4z"/>
			<path class="st1" d="M353.3,231.2c-3.3,3.4-6.7,7-9.9,10.5l1.8,1.6c3.2-3.5,6.5-7.1,9.8-10.5L353.3,231.2z"/>
			<path class="st1" d="M395.1,195.2c-3.2,2.3-6.4,4.7-9.5,7.1l1.5,1.9c2.7-2.1,5.6-4.2,8.4-6.3L395.1,195.2z"/>
			<path class="st1" d="M529.7,140.7l-0.4-2.4c-4.3,0.8-8.6,1.6-12.8,2.5l0.3,2.4C521,142.3,525.4,141.5,529.7,140.7z"/>
			<path class="st1" d="M600.3,784l0.3,2.4c4.7-0.2,9.4-0.5,14.1-0.9l-0.2-2.4C609.8,783.5,605,783.8,600.3,784z"/>
			<path class="st1" d="M316.7,275.8c-2.7,4-5.4,8-7.9,12.1l2,1.3c2.5-4,5.1-8.1,7.8-12L316.7,275.8z"/>
			<path class="st1" d="M301.4,300.3c-2.3,4.2-4.6,8.5-6.8,12.8l2.1,1.1c2.1-4.3,4.4-8.5,6.7-12.7L301.4,300.3z"/>
			<path class="st1" d="M269.4,380.8c-1.2,4.7-2.2,9.4-3.2,14.1l2.4,0.5c0.9-4.7,2-9.4,3.2-14L269.4,380.8z"/>
			<path class="st1" d="M288.4,326.2c-2,4.4-3.9,8.9-5.6,13.3l2.2,0.9c1.8-4.4,3.6-8.9,5.6-13.2L288.4,326.2z"/>
			<path class="st1" d="M277.7,353c-1.6,4.5-3.1,9.2-4.4,13.8l2.3,0.7c1.4-4.6,2.8-9.2,4.4-13.7L277.7,353z"/>
			<path class="st1" d="M899.6,553.5c1.4-4.6,2.7-9.3,3.8-14l-2.3-0.6c-1.2,4.6-2.4,9.3-3.8,13.9L899.6,553.5z"/>
			<path class="st1" d="M883,328.4l2.2-1c-1.9-4.4-4-8.8-6.1-13.1l-2.2,1.1C879,319.7,881,324.1,883,328.4z"/>
			<path class="st1" d="M838.1,255.4l1.9-1.5c-3-3.7-6.2-7.4-9.4-11l-1.8,1.6C832,248,835.1,251.7,838.1,255.4z"/>
			<path class="st1" d="M738.7,749.1c4.2-2.2,8.5-4.6,12.6-7l-1.2-2.1c-4.1,2.4-8.3,4.7-12.5,6.9L738.7,749.1z"/>
			<path class="st1" d="M855.2,278.3l2-1.3c-2.7-4-5.5-7.9-8.3-11.8l-1.9,1.4C849.8,270.5,852.5,274.4,855.2,278.3z"/>
			<path class="st1" d="M587.4,135.7l0-2.4c-4.8,0-9.7,0.1-14.4,0.3l0.1,2.4C577.9,135.7,582.7,135.6,587.4,135.7z"/>
			<path class="st1" d="M543.8,138.5l0.7-0.1c4.7-0.6,9.5-1.1,14.3-1.5l-0.2-2.4c-4.8,0.4-9.6,0.9-14.4,1.6l-0.7,0.1L543.8,138.5z"
				/>
			<path class="st1" d="M616.1,137l0.2-2.4c-4.8-0.4-9.6-0.8-14.4-1l-0.1,2.4C606.5,136.2,611.4,136.5,616.1,137z"/>
			<path class="st1" d="M699.9,156.1l0.8-2.3c-4.5-1.7-9.1-3.3-13.7-4.8l-0.7,2.3C690.8,152.8,695.4,154.4,699.9,156.1z"/>
			<path class="st1" d="M672.5,147.2l0.6-2.3c-4.6-1.3-9.3-2.5-14-3.5l-0.5,2.3C663.3,144.8,668,146,672.5,147.2z"/>
			<path class="st1" d="M644.5,140.8l0.4-2.4c-4.7-0.9-9.5-1.6-14.3-2.3l-0.3,2.4C635.1,139.2,639.8,140,644.5,140.8z"/>
			<path class="st1" d="M870.2,302.7l2.1-1.2c-2.3-4.2-4.8-8.4-7.3-12.4l-2,1.3C865.4,294.4,867.9,298.6,870.2,302.7z"/>
			<path class="st1" d="M829.3,678.5c3.2-3.6,6.4-7.3,9.4-11l-1.9-1.5c-3,3.7-6.2,7.3-9.4,10.9L829.3,678.5z"/>
			<path class="st1" d="M847.7,656.2c2.9-3.8,5.7-7.8,8.4-11.7l-2-1.4c-2.7,3.9-5.5,7.9-8.4,11.7L847.7,656.2z"/>
			<path class="st1" d="M864,632.4c2.5-4.1,5-8.3,7.4-12.4l-2.1-1.2c-2.3,4.1-4.8,8.3-7.3,12.3L864,632.4z"/>
			<path class="st1" d="M763.6,734.6c4-2.6,8-5.3,11.9-8.1l-1.4-2c-3.9,2.8-7.9,5.5-11.9,8L763.6,734.6z"/>
			<path class="st1" d="M878.2,607.2c2.2-4.3,4.3-8.7,6.2-13l-2.2-1c-2,4.3-4,8.7-6.2,13L878.2,607.2z"/>
			<path class="st1" d="M787.1,717.9c3.8-2.9,7.5-6,11.2-9.1l-1.6-1.8c-3.6,3.1-7.4,6.1-11.1,9.1L787.1,717.9z"/>
			<path class="st1" d="M809.1,699.1c3.5-3.3,7-6.7,10.3-10.1l-1.7-1.7c-3.3,3.4-6.8,6.8-10.3,10L809.1,699.1z"/>
			<path class="st1" d="M907,410.8l2.4-0.4c-0.7-4.8-1.6-9.6-2.5-14.2l-2.4,0.5C905.5,401.3,906.3,406,907,410.8z"/>
			<path class="st1" d="M890.1,580.8c1.8-4.5,3.5-9,5.1-13.6l-2.3-0.8c-1.6,4.5-3.3,9-5,13.5L890.1,580.8z"/>
			<path class="st1" d="M893.4,355.1l2.3-0.8c-1.5-4.5-3.2-9.1-5-13.6l-2.2,0.9C890.2,346.1,891.9,350.6,893.4,355.1z"/>
			<path class="st1" d="M901.4,382.6l2.3-0.6c-1.1-4.7-2.4-9.3-3.7-14l-2.3,0.7C899.1,373.4,900.3,378,901.4,382.6z"/>
			<path class="st1" d="M912.5,439.1c-0.3-4.8-0.7-9.6-1.3-14.4l-2.4,0.3c0.5,4.8,0.9,9.6,1.2,14.3L912.5,439.1z"/>
			<path class="st1" d="M906.6,525.4c1-4.7,1.8-9.5,2.6-14.2l-2.4-0.4c-0.7,4.7-1.6,9.5-2.6,14.1L906.6,525.4z"/>
			<path class="st1" d="M911.2,496.9c0.5-4.8,1-9.6,1.3-14.4l-2.4-0.2c-0.3,4.8-0.8,9.6-1.3,14.3L911.2,496.9z"/>
			<path class="st1" d="M913.1,468c0.1-4.8,0.1-9.7,0-14.4l-2.4,0.1c0.1,4.8,0.1,9.6,0,14.3L913.1,468z"/>
		</g>
	</g>
	<path class="st2" d="M676.3,656.2c-11.8-20.2-45-24.6-27.5-37.4c-0.5,0.4,6.7-6,8.4-7.9c0.7-0.8,1.3-1.4,1.7-1.9
		c0.3-0.5,0.6-1,1-1.8c0.7-1.3,3.5-8.5,2.7-5.5c0.7-2.3,1.4-4.7,1.9-7.1c0.2-1.2,0.4-2.1,0.5-2.6c0.1-1.4,0.3-2.8,0.4-4.2
		c0.2-3.8,0.4-7.5,0.4-11.3c0.1-8.3,0-16.6,0-24.8c0-10.9,3.6-19.5,9.3-25.8c-10.2-6.6-21.3-7.5-25.3-1.8l-1.4,2l-6.2,8.9l-0.4,0.5
		l-4.7-3.3l6.2-8.8l6.3-8.9l5.1-7.2c4.2-6-1-16.8-11.6-24.3c-10.6-7.5-22.6-8.7-26.8-2.8l-5.1,7.2l-6.3,8.9l-6.2,8.8l-4.7-3.3
		l28.2-40l0,0c0.2-0.3,0.5-0.6,0.7-0.9l37.1-52.6c6.8-9.6,3.7-23.5-6.9-31c-10.6-7.5-24.7-5.7-31.5,3.9l-37.1,52.6
		c-0.2,0.3-0.4,0.6-0.6,1l-0.1,0l-81.8,115.9l-21.6,42.3l-6.1-117c3.3-13.8,5.3-27.2-6.1-35.2c-11.4-8-27.1-5.3-35.2,6.1l-6.7,98
		c0,0-11.3,26.8-3.4,68.6l18.4,37c-90,186-59.6,139.1-72,156.3l170.8,49.5c4.4-17.7,58.9-134.7,58.9-134.7c6.3-2,24.1-7.4,33-12.1
		c4.3-2.2,11.3-6.7,19.8-17.2C667.4,671,680.1,662.8,676.3,656.2z"/>
	<path class="st2" d="M736.6,339.2c-10.6-7.5-24.7-5.7-31.5,3.9L668,395.7c-0.2,0.3-0.4,0.6-0.6,1l-0.1,0l-81.8,115.9l-0.3-0.2
		c0.1,0.5,0.1,0.9,0.2,1.4c2.8,17.1,4,37,10,53.6c0,0,0,0,0.1,0.1c0.1,0,0.1,0.1,0.2,0.1c0.1-0.7,1.1,0.1,1.6,0.9
		c0.1,0.1,0.2,0.1,0.3,0.2c0.3,0.1,0.6,0.2,1,0.3c2.3,0.7,4.5,1.4,6.8,2c0.2,0,0.3,0.1,0.5,0.1c0,0,0,0,0-0.1
		c2.5-3.4,5-6.9,7.5-10.4c15.2-21.7,29.3-44.1,42.6-67c6.6-11.3,16.7-17.3,27.3-18.9c-0.3-3.1-0.4-6.2-0.1-9.3l-1.2,1.7l-4.7-3.3
		l11.6-16.4c1.2-2.1,2.5-4,4-5.7l12.6-17.9l0,0c0.2-0.3,0.5-0.6,0.7-0.9l37.1-52.6C750.3,360.5,747.2,346.7,736.6,339.2z"/>
	<path class="st3" d="M715.8,651.7c0,7.5-6.2,13.6-13.9,13.6H485.9c-7.6,0-13.9-6.1-13.9-13.6V217.8c0-7.5,6.3-13.6,13.9-13.6h216.1
		c7.6,0,13.9,6.1,13.9,13.6V651.7z"/>
	<polygon class="st4" points="693.6,255.1 687.8,255.1 676.6,255.1 663.9,255.1 653.3,255.1 652.6,255.1 638.4,255.1 602.6,255.1 
		590.3,255.1 577.6,255.1 565.7,255.1 547.9,255.1 536.8,255.1 501.9,255.1 500.6,255.1 489.5,255.1 483.2,255.1 483.2,304.3 
		483.1,304.3 483.1,317.5 483.2,317.5 483.2,354.1 483.2,354.1 483.2,398.3 483.1,398.3 483.1,409.3 483.2,409.3 483.2,519.1 
		483.1,519.1 483.1,529 483.2,529 483.1,579.8 483.1,579.8 483.1,593 483.1,593 483.1,626.1 483.9,626.1 495.4,626.1 520.7,626.1 
		535.2,626.1 535.2,626.1 536.8,626.1 546.1,626.1 547.9,626.1 558.8,626.1 560.4,626.1 570.1,626.1 603.9,626.1 604.4,626.1 
		616.5,626.1 646.4,626.1 658.7,626.1 661.4,626.1 676.2,626.1 704.6,626.1 704.6,595.8 704.6,575.5 704.6,570.7 704.6,564.5 
		704.6,552.6 704.6,547.4 704.6,533.9 704.6,409.3 704.6,398.3 704.6,369.4 704.6,354.1 704.6,288.6 704.6,276.4 704.6,255.1 	"/>
	<polygon class="st5" points="483.1,249.6 483.1,249.8 483.2,249.8 483.2,252.1 483.2,254.9 483.1,254.9 483.1,255.6 483.2,255.6 
		483.2,262.5 483.1,262.5 483.1,263.1 483.2,263.1 483.2,266.3 483.1,266.3 483.1,267.1 483.2,267.1 483.1,269.4 483.1,269.8 
		704.6,269.8 704.6,249.6 	"/>
	<g>
		<polygon class="st1" points="515.1,998 618.8,779.3 392.2,671.8 237.4,998 		"/>
		<path class="st6" d="M557.8,795.9c5.5,3,12.5,1,15.5-4.6c3-5.6,1-12.5-4.6-15.5c-5.5-3-12.5-1-15.5,4.5
			C550.2,786,552.2,792.9,557.8,795.9z"/>
		<polygon class="st7" points="526.8,998 604,835.3 353.9,716.6 220.4,998 		"/>
	</g>
	<ellipse class="st8" cx="593.9" cy="646.4" rx="12.2" ry="12.2"/>
	<rect x="491.4" y="255.2" class="st3" width="62.3" height="6.8"/>
	<rect x="571.8" y="255.2" class="st3" width="29.2" height="6.8"/>
	<path class="st2" d="M552.9,672.6c0.9-3.5,1.6-6.9,2.2-10.3c-0.6-1.9,1.3-38.7-41.7-68.8c-19.9-13.9-43.3-10.8-54.1-9.8v88.9H552.9
		z"/>
	<g>
		<g>
			<g>
				<path d="M572.6,283.9c-1.3,1-14.9,10.8-18.1,24.3c-1.4,5.9,2.4,35.3,2.7,41.6c0.1,3.3,3.5-1.2,5.6,1
					c-0.4-3.8,27.7-29.2,33.3-30.5c3.9-0.9,31.3,18.3,31.1,22.5c-0.2,2.9,0.7,5,0.5,8c0.2,0.1,0.4,0.2,0.6,0.3
					c0.8-2,4.8-2.4,5.2-4.5c1-4.7,0.8-22.3-0.5-30.8c-2.2-23.8-15-26.6-28.2-27.2C571.9,287.3,576.9,280.7,572.6,283.9z"/>
			</g>
			<g>
				<path class="st9" d="M561.9,408.5l55.9,12.1c-3.8-2.6,6.7-14.3,3.1-20.1c-2-3.2,1.2-13.6,2.5-17.1c-5.8,8.7-15.6,14.5-26.8,14.5
					c-11.4,0-21.5-6.1-27.2-15.2c0.1,0.2,0.2,0.5,0.4,0.7c2.2,4.6,6.4,13.9,2.8,18.6C572,403,564,405.9,561.9,408.5z"/>
			</g>
		</g>
		<g>
			<path class="st10" d="M594,321.3c-7,3.3-14.1,4.1-21.3,0.8c-2-0.9-4-1.6-6.6-2.7c-1.3,10-2.6,19.6-3.9,29.4
				c-0.7-1.2-1.1-2.7-2.1-3.6c-1-1-2.5-1.9-3.8-1.9c-0.8,0-2.1,1.6-2.4,2.7c-1.5,5.7-0.7,11.3,2.6,16.3c0.6,1,5.4,3.6,5.8,4.3
				c1.6,3.2,2.3,6.1,3.9,9.4c1.1,2.2,2.2,4.5,3.3,6.7c5.7,9,15.5,15,26.6,15.2v-77.6C595.4,320.7,594.7,321,594,321.3z"/>
			<path class="st11" d="M638.2,346.6c-0.4-1.5-1.8-3.5-2.9-3.7c-1.2-0.2-2.9,1.4-3.9,2.6c-1.1,1.3-1.6,3-2.7,5.3
				c-0.1-1.4-0.1-2-0.1-2.6c-1.1-9.6-2.3-19.3-3.3-28.9c-0.3-2.6-1.6-4.2-4.2-4.4c-3.2-0.3-6.4-0.6-9.6-0.3
				c-5.6,0.5-10.5,3.2-15.4,5.7v77.6c0.2,0,0.4,0,0.6,0c11.1,0,20.9-5.7,26.8-14.5c0.2-0.5,4.6-6.7,6.5-17.1
				c0.1-0.7,2.2-1.2,2.7-1.7c1.3-1.2,3.2-2.2,3.9-3.7C638.9,356.5,639.7,351.6,638.2,346.6z"/>
		</g>
		<polygon class="st12" points="694.9,503.4 681.2,422 620.9,399.8 595.5,412 574.2,399.8 506.9,420.2 494.3,503.4 		"/>
		<polygon class="st1" points="618.4,503.4 629.8,403.7 623.2,400.2 596,411.9 568.7,401.2 562.8,403.6 575.9,503.4 		"/>
		<polygon class="st13" points="573.4,399 596,411.9 583.6,429.5 564.2,402.9 		"/>
		<polygon class="st13" points="620.4,398.4 596.1,411.9 608.6,428.7 628.5,402.6 		"/>
		<g>
			<polygon class="st14" points="637.3,503.4 650.5,470.2 633.2,455.9 654.4,443.6 635.5,405.1 628.2,402.4 615.8,503.4 			"/>
			<polygon class="st14" points="541.8,469.4 555.3,503.4 576.7,503.4 565.8,402.2 558.8,404.4 537.9,442.8 559.1,455.1 			"/>
		</g>
		<polygon class="st15" points="584.1,503.4 607.8,503.4 600.7,437.7 606.4,426 596,411.3 585.9,426 591.6,437.7 		"/>
	</g>
	<path class="st2" d="M736.9,557.5c2.8,10.7-3.2,21.5-13.5,24.3L676,594.4c-10.3,2.7-20.9-3.7-23.8-14.4l0,0
		c-2.8-10.7,3.2-21.5,13.5-24.3l47.3-12.5C723.4,540.4,734,546.9,736.9,557.5L736.9,557.5z"/>
	<path class="st2" d="M733.1,450.2c5,10.6,1.4,22.9-8.1,27.4l-43.6,20.6c-9.5,4.5-21.3-0.5-26.3-11.2l0,0c-5-10.7-1.4-22.9,8.1-27.4
		l43.6-20.6C716.3,434.5,728.1,439.5,733.1,450.2L733.1,450.2z"/>
	<path class="st16" d="M658.8,541c0,14.5-11.8,26.3-26.3,26.3h-75.9c-14.5,0-26.3-11.8-26.3-26.3l0,0c0-14.5,11.8-26.3,26.3-26.3
		h75.9C647,514.7,658.8,526.5,658.8,541L658.8,541z"/>
	<g>
		<g>
			<g>
				<path class="st2" d="M802.5,578.4c-11,6.8-16.9,17.3-13.1,23.5l1.9,3.2l-4.9,3l-0.3-0.5l-5.7-9.2l-1.3-2.1
					c-3.8-6.2-15.8-5.7-26.9,1.1c-11,6.8-16.9,17.3-13.1,23.5l1.3,2.1l5.7,9.2l0.3,0.5l-4.9,3l-5.6-9.1l-5.7-9.3l-4.6-7.5
					c-3.8-6.2-15.9-5.7-26.9,1.1c-11,6.8-16.9,17.3-13.1,23.5l4.6,7.5l5.7,9.3l5.6,9.1l-4.9,3l-25.6-41.7l0,0
					c-0.2-0.3-0.4-0.7-0.6-1l-30.3-49.1c-6.2-10-20.1-12.7-31.1-5.9c-11,6.8-15,20.4-8.8,30.4l30.3,49.1c0.2,0.3,0.4,0.6,0.7,0.9
					l-0.1,0l74.2,120.7l-6.4,4l-19.5-31.7c-7.3-11.9-22.8-15.6-34.7-8.3c-11.9,7.3-15.6,22.8-8.3,34.7l45.1,63.6
					c0,0,13,13,22.2,13.3l69.4,19.5c7.9,13,18.1,30,29,48.1l139.3-76.5C916.6,793,895,757.4,895,757.4c0.6-6.6,2.7-37.5,1.9-47.6
					c-1-12.5-22-56.2-44.9-94.4l-6.2-11.5l-6.4-10.5l-1.8-3l-4.5-7.3l-3.6-5.9C825.5,571.1,813.5,571.6,802.5,578.4z"/>
				<g>
					<polygon class="st1" points="1094,998 956.9,774.9 743.3,906.1 799.8,998 					"/>
					<path class="st6" d="M937.5,835.1c5.5-3,7.6-9.9,4.6-15.5c-3-5.6-9.9-7.6-15.5-4.6c-5.5,3-7.7,9.9-4.7,15.5
						C925.1,836,932,838.1,937.5,835.1z"/>
					<polygon class="st7" points="1106.4,998 995.7,817.8 760,962.6 781.8,998 					"/>
				</g>
			</g>
		</g>
	</g>
	<g>
		<path class="st1" d="M568.8,544.3l6.4,0.4c-0.3,2.8-1.3,5-3.1,6.5c-1.8,1.5-4,2.3-6.6,2.3c-3.1,0-5.6-1-7.6-3.1
			c-1.9-2.1-2.9-4.9-2.9-8.6c0-3.6,0.9-6.5,2.7-8.7c1.8-2.2,4.4-3.3,7.6-3.3c3,0,5.4,0.8,7,2.5c1.6,1.7,2.6,3.9,2.8,6.7l-6.6,0.4
			c0-1.5-0.3-2.6-0.9-3.3c-0.6-0.7-1.3-1-2.1-1c-2.2,0-3.3,2.2-3.3,6.7c0,2.5,0.3,4.2,0.9,5.1c0.6,0.9,1.4,1.3,2.4,1.3
			C567.5,548.1,568.5,546.8,568.8,544.3z"/>
		<path class="st1" d="M590.1,553l-1.3-4.5h-6.2l-1.4,4.5h-5.7l7.1-23h7.5l7.2,23H590.1z M583.8,543.5h3.7l-1.9-6.7L583.8,543.5z"/>
		<path class="st1" d="M615.5,547.4v5.6h-16.1v-23h7.1v17.3H615.5z"/>
		<path class="st1" d="M634.1,547.4v5.6h-16.1v-23h7.1v17.3H634.1z"/>
	</g>
	<path class="st2" d="M735.8,512.1c2.7,11.1-3.4,22.2-13.8,24.7l-47.5,11.7c-10.3,2.6-21-4.4-23.7-15.5l0,0
		c-2.7-11.1,3.4-22.2,13.8-24.7l47.5-11.7C722.5,494.1,733.1,501,735.8,512.1L735.8,512.1z"/>
	<path class="st17" d="M592.8,383.8c-1.6,0-3,0.9-3.7,2.3c-23.6-4.3-25.7-19-25.7-19.6l0,0c-0.6,0-1.3,0.7-1.3,1.7
		c0,0.5-0.3,16.6,26.9,21.4c0.6,1.5,2.1,2.6,3.9,2.6c2.3,0,4.2-1.9,4.2-4.2C596.9,385.7,595.1,383.8,592.8,383.8z"/>
</g>
</svg>
