<?xml version="1.0" encoding="utf-8"?>
<!-- Generator: Adobe Illustrator 19.0.0, SVG Export Plug-In . SVG Version: 6.00 Build 0)  -->
<svg version="1.1" xmlns="http://www.w3.org/2000/svg" xmlns:xlink="http://www.w3.org/1999/xlink" x="0px" y="0px"
	 viewBox="0 0 85.2 102.5" style="enable-background:new 0 0 85.2 102.5;" xml:space="preserve">
<style type="text/css">
	.st0{fill:#E91E63;}
	.st1{fill:#FEF2F6;}
</style>
<g id="Background">
</g>
<g id="Objects">
	<g>
		<g>
			<g>
				<g>
					<g>
						<rect y="35.5" class="st0" width="85" height="18"/>
					</g>
					<g>
						<rect x="5" y="57.5" class="st0" width="75" height="45"/>
					</g>
				</g>
				<g>
					<path class="st1" d="M66.2,15.3c1.3-2.4,1.3-4.8-0.2-7.1C65.2,6.7,63.9,6,62.2,6c-4.7,0-12.5,5.7-15.6,18
						C54.9,24.4,63.3,20.6,66.2,15.3z"/>
					<path class="st1" d="M39.4,24C36.4,11.7,28.6,6,23.8,6c-1.7,0-3,0.7-3.9,2.2c-1.4,2.3-1.5,4.7-0.2,7.1
						C22.7,20.6,31.1,24.4,39.4,24z"/>
					<path class="st0" d="M80.7,21.5c-4.5,5.2-12.8,6-19.6,5.6c4.6-2.1,8.3-5.2,10.4-8.9c2.4-4.3,2.3-9-0.3-13.2c-2-3.2-5.2-5-9-5
						C53.9,0,47,7.3,43,16.2C39,7.3,32.1,0,23.8,0c-3.8,0-7,1.8-9,5c-2.6,4.2-2.7,8.9-0.3,13.2c2.1,3.7,5.8,6.8,10.3,8.9
						c-7.5,0.4-15.3-0.7-19.6-5.6l-4.5,3.9c5.2,6,13.4,7.8,21.2,7.8c9.3,0,18.1-2.5,21-3.4c2.9,0.9,11.7,3.4,21,3.4
						c7.8,0,16-1.8,21.2-7.8L80.7,21.5z M62.2,6c1.7,0,3,0.7,3.9,2.2c1.4,2.3,1.5,4.7,0.2,7.1c-2.9,5.3-11.4,9.1-19.7,8.7
						C49.6,11.7,57.4,6,62.2,6z M19.8,15.3c-1.3-2.4-1.3-4.8,0.2-7.1C20.8,6.7,22.1,6,23.8,6c4.7,0,12.5,5.7,15.6,18
						C31.1,24.4,22.7,20.6,19.8,15.3z"/>
				</g>
			</g>
		</g>
	</g>
</g>
</svg>
