<?xml version="1.0" encoding="utf-8"?>
<!-- Generator: Adobe Illustrator 19.0.0, SVG Export Plug-In . SVG Version: 6.00 Build 0)  -->
<svg version="1.1" xmlns="http://www.w3.org/2000/svg" xmlns:xlink="http://www.w3.org/1999/xlink" x="0px" y="0px"
	 viewBox="0 0 800 638" style="enable-background:new 0 0 800 638;" xml:space="preserve">
<style type="text/css">
	.st0{display:none;}
	.st1{display:inline;fill:#DEEBEB;}
	.st2{display:inline;}
	.st3{fill:#C2E0DE;}
	.st4{display:inline;fill:#A1CEDD;}
	.st5{display:inline;fill:#4B4B4B;}
	.st6{fill:#563B24;}
	.st7{fill:#D3D3D3;}
	.st8{fill:#F2F2F2;stroke:#563B24;stroke-width:12;stroke-miterlimit:10;}
	.st9{fill:none;stroke:#563B24;stroke-width:12;stroke-miterlimit:10;}
	.st10{fill:none;stroke:#563B24;stroke-width:5;stroke-miterlimit:10;}
	.st11{fill:#F6CE3B;}
	.st12{fill:none;stroke:#563B24;stroke-width:5;stroke-linecap:round;stroke-linejoin:round;stroke-miterlimit:10;}
	.st13{fill:#3A9B8D;}
	.st14{fill:none;}
	.st15{fill:#6D4D2E;}
	.st16{fill:#4DC1B4;}
	.st17{fill:#666666;}
	.st18{fill:#9B9B9B;}
	.st19{fill:#35887F;}
	.st20{fill:#684E61;}
	.st21{fill:#F03C3D;}
	.st22{fill:#5BD3C2;}
	.st23{fill:#F2F2F2;}
	.st24{fill:#999999;}
	.st25{fill:#F5F5F5;}
</style>
<g id="Background" class="st0">
	<rect y="-79" class="st1" width="800" height="800"/>
	<g class="st2">
		<rect y="-78.1" class="st3" width="22.1" height="647.9"/>
		<rect x="45.8" y="-78.1" class="st3" width="22.1" height="647.9"/>
		<rect x="91.5" y="-78.1" class="st3" width="22.1" height="647.9"/>
		<rect x="137.3" y="-78.1" class="st3" width="22.1" height="647.9"/>
		<rect x="183" y="-78.1" class="st3" width="22.1" height="647.9"/>
		<rect x="228.8" y="-78.1" class="st3" width="22.1" height="647.9"/>
		<rect x="274.6" y="-78.1" class="st3" width="22.1" height="647.9"/>
		<rect x="320.3" y="-78.1" class="st3" width="22.1" height="647.9"/>
		<rect x="366.1" y="-78.1" class="st3" width="22.1" height="647.9"/>
		<rect x="411.9" y="-78.1" class="st3" width="22.1" height="647.9"/>
		<rect x="457.6" y="-78.1" class="st3" width="22.1" height="647.9"/>
		<rect x="503.4" y="-78.1" class="st3" width="22.1" height="647.9"/>
		<rect x="549.1" y="-78.1" class="st3" width="22.1" height="647.9"/>
		<rect x="594.9" y="-78.1" class="st3" width="22.1" height="647.9"/>
		<rect x="640.7" y="-78.1" class="st3" width="22.1" height="647.9"/>
		<rect x="686.4" y="-78.1" class="st3" width="22.1" height="647.9"/>
		<rect x="732.2" y="-78.1" class="st3" width="22.1" height="647.9"/>
		<rect x="777.9" y="-78.1" class="st3" width="22.1" height="647.9"/>
	</g>
	<rect y="568.7" class="st4" width="800" height="150.8"/>
	<path id="Designed_By_Freepik" class="st5" d="M288.5,699.4v-0.3c-0.3,0.4-0.7,0.7-1,1c-0.3,0.3-0.7,0.4-1.1,0.6
		c-0.4,0.1-0.8,0.2-1.3,0.2c-0.6,0-1.2-0.1-1.7-0.4c-0.5-0.3-1-0.6-1.4-1.1c-0.4-0.5-0.7-1.1-0.9-1.7c-0.2-0.7-0.3-1.4-0.3-2.1
		c0-1.6,0.4-2.9,1.2-3.8c0.8-0.9,1.8-1.4,3.1-1.4c0.7,0,1.4,0.1,1.9,0.4c0.5,0.3,1,0.7,1.5,1.2v-3.8c0-0.5,0.1-0.9,0.3-1.2
		c0.2-0.3,0.5-0.4,0.9-0.4c0.4,0,0.7,0.1,0.9,0.4c0.2,0.3,0.3,0.6,0.3,1.1v11.4c0,0.5-0.1,0.9-0.3,1.1c-0.2,0.2-0.5,0.4-0.9,0.4
		c-0.4,0-0.6-0.1-0.9-0.4C288.6,700.2,288.5,699.9,288.5,699.4 M283.4,695.6c0,0.7,0.1,1.3,0.3,1.8c0.2,0.5,0.5,0.9,0.9,1.1
		c0.4,0.3,0.8,0.4,1.2,0.4c0.5,0,0.9-0.1,1.3-0.4c0.4-0.2,0.7-0.6,0.9-1.1c0.2-0.5,0.3-1.1,0.3-1.8c0-0.7-0.1-1.3-0.3-1.8
		c-0.2-0.5-0.5-0.9-0.9-1.1c-0.4-0.3-0.8-0.4-1.3-0.4c-0.5,0-0.9,0.1-1.3,0.4c-0.4,0.3-0.7,0.7-0.9,1.2
		C283.5,694.3,283.4,694.9,283.4,695.6 M299.9,696.2h-5.1c0,0.6,0.1,1.1,0.4,1.6c0.2,0.5,0.5,0.8,0.9,1c0.4,0.2,0.8,0.3,1.3,0.3
		c0.3,0,0.6,0,0.9-0.1c0.3-0.1,0.5-0.2,0.7-0.3c0.2-0.2,0.5-0.3,0.7-0.5c0.2-0.2,0.5-0.4,0.8-0.7c0.1-0.1,0.3-0.2,0.6-0.2
		c0.3,0,0.5,0.1,0.6,0.2c0.2,0.1,0.2,0.4,0.2,0.6c0,0.2-0.1,0.5-0.3,0.8c-0.2,0.3-0.5,0.6-0.8,0.9c-0.4,0.3-0.8,0.5-1.4,0.7
		c-0.6,0.2-1.2,0.3-1.9,0.3c-1.7,0-3-0.5-3.9-1.4c-0.9-0.9-1.4-2.2-1.4-3.9c0-0.8,0.1-1.5,0.3-2.1c0.2-0.7,0.6-1.2,1-1.7
		c0.4-0.5,1-0.8,1.6-1.1c0.6-0.3,1.3-0.4,2.1-0.4c1,0,1.9,0.2,2.6,0.6c0.7,0.4,1.3,1,1.6,1.7c0.4,0.7,0.5,1.4,0.5,2.1
		c0,0.7-0.2,1.1-0.6,1.3C301.1,696.1,300.6,696.2,299.9,696.2 M294.9,694.8h4.7c-0.1-0.9-0.3-1.6-0.7-2c-0.4-0.4-1-0.7-1.6-0.7
		c-0.6,0-1.2,0.2-1.6,0.7C295.2,693.2,294.9,693.9,294.9,694.8 M311.7,697.5c0-0.5-0.1-0.9-0.4-1.3c-0.3-0.4-0.7-0.7-1.2-1
		c-0.5-0.3-1.2-0.5-2-0.7c-0.7-0.2-1.2-0.3-1.6-0.4c-0.4-0.1-0.7-0.3-0.9-0.4c-0.2-0.2-0.3-0.4-0.3-0.7c0-0.3,0.2-0.5,0.5-0.7
		c0.3-0.2,0.7-0.3,1.2-0.3c0.5,0,0.8,0.1,1.1,0.2c0.3,0.2,0.5,0.4,0.7,0.6c0.2,0.3,0.5,0.5,0.6,0.7c0.2,0.2,0.4,0.2,0.7,0.2
		c0.4,0,0.7-0.1,0.9-0.3c0.2-0.2,0.3-0.4,0.3-0.7c0-0.3-0.1-0.6-0.3-0.8c-0.2-0.3-0.5-0.5-0.8-0.8c-0.4-0.2-0.8-0.4-1.3-0.6
		c-0.5-0.1-1.1-0.2-1.8-0.2c-0.9,0-1.6,0.1-2.2,0.4c-0.6,0.3-1.1,0.6-1.4,1.1c-0.3,0.5-0.5,1-0.5,1.5c0,0.6,0.2,1.1,0.5,1.5
		c0.3,0.4,0.8,0.7,1.3,1c0.6,0.2,1.3,0.5,2.2,0.7c0.8,0.2,1.4,0.4,1.7,0.6c0.3,0.2,0.5,0.5,0.5,1c0,0.3-0.2,0.6-0.5,0.8
		c-0.3,0.2-0.8,0.3-1.3,0.3c-0.6,0-1.1-0.1-1.5-0.3c-0.4-0.2-0.7-0.6-1-1c-0.1-0.2-0.3-0.4-0.4-0.6c-0.1-0.1-0.4-0.2-0.6-0.2
		c-0.3,0-0.6,0.1-0.8,0.3c-0.2,0.2-0.3,0.4-0.3,0.7c0,0.4,0.2,0.9,0.5,1.3c0.3,0.4,0.8,0.8,1.5,1.1c0.7,0.3,1.5,0.4,2.4,0.4
		c1,0,1.8-0.1,2.5-0.4c0.7-0.3,1.2-0.6,1.5-1.2C311.6,698.8,311.7,698.2,311.7,697.5 M314.4,689.1c-0.4,0-0.7-0.1-0.9-0.3
		c-0.3-0.2-0.4-0.5-0.4-0.9c0-0.4,0.1-0.7,0.4-0.9c0.3-0.2,0.6-0.4,0.9-0.4c0.3,0,0.6,0.1,0.9,0.3c0.3,0.2,0.4,0.5,0.4,0.9
		c0,0.4-0.1,0.7-0.4,0.9C315,689,314.7,689.1,314.4,689.1 M315.7,691.8v7.5c0,0.5-0.1,0.9-0.4,1.2c-0.2,0.3-0.6,0.4-0.9,0.4
		c-0.4,0-0.7-0.1-0.9-0.4c-0.2-0.3-0.4-0.7-0.4-1.2v-7.4c0-0.5,0.1-0.9,0.4-1.2c0.2-0.3,0.5-0.4,0.9-0.4c0.4,0,0.7,0.1,0.9,0.4
		C315.5,691,315.7,691.3,315.7,691.8 M327,692.2v7.5c0,0.9-0.1,1.6-0.3,2.2c-0.2,0.6-0.5,1.1-0.9,1.5c-0.4,0.4-0.9,0.7-1.6,0.9
		c-0.7,0.2-1.5,0.3-2.4,0.3c-0.9,0-1.7-0.1-2.4-0.4c-0.7-0.3-1.2-0.6-1.6-1c-0.4-0.4-0.6-0.8-0.6-1.2c0-0.3,0.1-0.6,0.3-0.8
		c0.2-0.2,0.5-0.3,0.8-0.3c0.4,0,0.7,0.2,1,0.5c0.1,0.2,0.3,0.3,0.4,0.5c0.1,0.2,0.3,0.3,0.5,0.4c0.2,0.1,0.4,0.2,0.7,0.3
		c0.3,0.1,0.5,0.1,0.9,0.1c0.7,0,1.2-0.1,1.6-0.3c0.4-0.2,0.6-0.4,0.8-0.8c0.1-0.3,0.2-0.7,0.3-1.1c0-0.4,0-1,0.1-1.8
		c-0.4,0.6-0.9,1-1.4,1.3c-0.5,0.3-1.1,0.4-1.9,0.4c-0.9,0-1.6-0.2-2.3-0.7c-0.6-0.4-1.1-1.1-1.5-1.9c-0.3-0.8-0.5-1.7-0.5-2.8
		c0-0.8,0.1-1.5,0.3-2.1c0.2-0.6,0.5-1.2,0.9-1.6c0.4-0.4,0.8-0.8,1.4-1c0.5-0.2,1.1-0.3,1.7-0.3c0.7,0,1.4,0.1,1.9,0.4
		c0.5,0.3,1,0.7,1.5,1.3v-0.4c0-0.5,0.1-0.8,0.3-1c0.2-0.2,0.5-0.4,0.9-0.4c0.5,0,0.8,0.2,1,0.5C326.9,691.1,327,691.6,327,692.2
		 M319.5,695.5c0,1.1,0.2,1.8,0.7,2.4c0.5,0.5,1.1,0.8,1.8,0.8c0.4,0,0.8-0.1,1.2-0.3c0.4-0.2,0.7-0.6,0.9-1c0.2-0.5,0.4-1,0.4-1.7
		c0-1.1-0.2-1.9-0.7-2.5c-0.5-0.6-1.1-0.9-1.8-0.9c-0.7,0-1.3,0.3-1.8,0.8C319.7,693.7,319.5,694.5,319.5,695.5 M331.2,691.8
		c0-0.3-0.1-0.6-0.2-0.8c-0.1-0.2-0.3-0.4-0.4-0.5c-0.2-0.1-0.4-0.2-0.6-0.2c-0.4,0-0.7,0.1-0.9,0.4c-0.2,0.2-0.3,0.6-0.3,1.1v7.5
		c0,0.5,0.1,0.9,0.4,1.2c0.2,0.3,0.5,0.4,0.9,0.4c0.4,0,0.7-0.1,0.9-0.4c0.2-0.3,0.4-0.7,0.4-1.2V696c0-1.1,0.1-1.8,0.2-2.2
		c0.2-0.5,0.5-0.9,0.8-1.1c0.4-0.3,0.8-0.4,1.3-0.4c0.7,0,1.2,0.2,1.4,0.7c0.2,0.5,0.4,1.1,0.4,2v4.3c0,0.5,0.1,0.9,0.4,1.2
		c0.2,0.3,0.6,0.4,0.9,0.4c0.4,0,0.7-0.1,0.9-0.4c0.2-0.3,0.4-0.7,0.4-1.2v-4.8c0-0.6,0-1-0.1-1.4c0-0.4-0.2-0.7-0.3-1
		c-0.3-0.5-0.7-1-1.2-1.3c-0.5-0.3-1.1-0.4-1.8-0.4c-0.7,0-1.3,0.1-1.9,0.4c-0.5,0.3-1,0.7-1.5,1.3V691.8 M346.9,696.2h-5.1
		c0,0.6,0.1,1.1,0.4,1.6c0.2,0.5,0.5,0.8,0.9,1c0.4,0.2,0.8,0.3,1.3,0.3c0.3,0,0.6,0,0.9-0.1c0.3-0.1,0.5-0.2,0.7-0.3
		c0.2-0.2,0.5-0.3,0.7-0.5c0.2-0.2,0.5-0.4,0.8-0.7c0.1-0.1,0.3-0.2,0.6-0.2c0.3,0,0.5,0.1,0.6,0.2c0.2,0.1,0.2,0.4,0.2,0.6
		c0,0.2-0.1,0.5-0.3,0.8c-0.2,0.3-0.5,0.6-0.8,0.9c-0.4,0.3-0.8,0.5-1.4,0.7c-0.6,0.2-1.2,0.3-1.9,0.3c-1.7,0-3-0.5-3.9-1.4
		c-0.9-0.9-1.4-2.2-1.4-3.9c0-0.8,0.1-1.5,0.3-2.1c0.2-0.7,0.6-1.2,1-1.7c0.4-0.5,1-0.8,1.6-1.1c0.6-0.3,1.3-0.4,2.1-0.4
		c1,0,1.9,0.2,2.6,0.6c0.7,0.4,1.3,1,1.6,1.7c0.4,0.7,0.5,1.4,0.5,2.1c0,0.7-0.2,1.1-0.6,1.3C348.1,696.1,347.6,696.2,346.9,696.2
		 M341.9,694.8h4.7c-0.1-0.9-0.3-1.6-0.7-2c-0.4-0.4-1-0.7-1.6-0.7c-0.6,0-1.2,0.2-1.6,0.7C342.2,693.2,341.9,693.9,341.9,694.8
		 M357.5,699.4v-0.3c-0.3,0.4-0.7,0.7-1,1c-0.3,0.3-0.7,0.4-1.1,0.6c-0.4,0.1-0.8,0.2-1.3,0.2c-0.6,0-1.2-0.1-1.7-0.4
		c-0.5-0.3-1-0.6-1.4-1.1c-0.4-0.5-0.7-1.1-0.9-1.7c-0.2-0.7-0.3-1.4-0.3-2.1c0-1.6,0.4-2.9,1.2-3.8c0.8-0.9,1.8-1.4,3.1-1.4
		c0.7,0,1.4,0.1,1.9,0.4c0.5,0.3,1,0.7,1.5,1.2v-3.8c0-0.5,0.1-0.9,0.3-1.2c0.2-0.3,0.5-0.4,0.9-0.4c0.4,0,0.7,0.1,0.9,0.4
		c0.2,0.3,0.3,0.6,0.3,1.1v11.4c0,0.5-0.1,0.9-0.3,1.1c-0.2,0.2-0.5,0.4-0.9,0.4c-0.4,0-0.6-0.1-0.9-0.4
		C357.6,700.2,357.5,699.9,357.5,699.4 M352.4,695.6c0,0.7,0.1,1.3,0.3,1.8c0.2,0.5,0.5,0.9,0.9,1.1c0.4,0.3,0.8,0.4,1.2,0.4
		c0.5,0,0.9-0.1,1.2-0.4c0.4-0.2,0.7-0.6,0.9-1.1c0.2-0.5,0.3-1.1,0.3-1.8c0-0.7-0.1-1.3-0.3-1.8c-0.2-0.5-0.5-0.9-0.9-1.1
		c-0.4-0.3-0.8-0.4-1.3-0.4c-0.5,0-0.9,0.1-1.3,0.4c-0.4,0.3-0.7,0.7-0.9,1.2C352.5,694.3,352.4,694.9,352.4,695.6 M368.1,687.9v4
		c0.5-0.5,1-0.9,1.5-1.2c0.5-0.3,1.1-0.4,1.9-0.4c0.9,0,1.6,0.2,2.3,0.6c0.6,0.4,1.2,1,1.5,1.8c0.4,0.8,0.5,1.7,0.5,2.8
		c0,0.8-0.1,1.5-0.3,2.2c-0.2,0.7-0.5,1.2-0.9,1.7c-0.4,0.5-0.8,0.9-1.4,1.1c-0.5,0.3-1.1,0.4-1.8,0.4c-0.4,0-0.8,0-1.1-0.1
		c-0.4-0.1-0.7-0.2-0.9-0.4c-0.2-0.2-0.5-0.3-0.6-0.5c-0.2-0.2-0.4-0.4-0.7-0.7v0.3c0,0.5-0.1,0.9-0.4,1.1c-0.2,0.3-0.5,0.4-0.9,0.4
		c-0.4,0-0.7-0.1-0.9-0.4c-0.2-0.3-0.3-0.6-0.3-1.1v-11.3c0-0.5,0.1-0.9,0.3-1.2c0.2-0.3,0.5-0.4,0.9-0.4c0.4,0,0.7,0.1,0.9,0.4
		C368,687.1,368.1,687.5,368.1,687.9 M368.2,695.6c0,1,0.2,1.8,0.7,2.4c0.5,0.6,1.1,0.8,1.9,0.8c0.7,0,1.2-0.3,1.7-0.8
		c0.5-0.6,0.7-1.4,0.7-2.4c0-0.7-0.1-1.3-0.3-1.8c-0.2-0.5-0.5-0.9-0.8-1.1c-0.4-0.3-0.8-0.4-1.3-0.4c-0.5,0-0.9,0.1-1.3,0.4
		c-0.4,0.3-0.7,0.7-0.9,1.2C368.3,694.3,368.2,694.9,368.2,695.6 M379.1,701.2c-0.2,0.4-0.3,0.7-0.5,1c-0.1,0.2-0.3,0.4-0.5,0.5
		c-0.2,0.1-0.4,0.1-0.7,0.1c-0.1,0-0.3,0-0.4-0.1c-0.1,0-0.3-0.1-0.4-0.1c-0.4,0-0.6,0.1-0.8,0.2c-0.2,0.2-0.3,0.4-0.3,0.7
		c0,0.4,0.2,0.7,0.6,0.9c0.4,0.2,0.9,0.2,1.7,0.2c0.8,0,1.4-0.1,1.9-0.4c0.5-0.2,0.8-0.6,1.1-1c0.3-0.4,0.6-1.1,0.9-1.8l3.4-8.9
		c0.1-0.2,0.2-0.5,0.2-0.7c0.1-0.2,0.1-0.4,0.1-0.5c0-0.2,0-0.4-0.1-0.6c-0.1-0.2-0.2-0.3-0.4-0.4c-0.2-0.1-0.4-0.2-0.6-0.2
		c-0.3,0-0.5,0-0.6,0.1c-0.1,0.1-0.3,0.3-0.4,0.6c-0.1,0.3-0.3,0.7-0.4,1.1l-2.1,5.9l-2.2-6.4c-0.1-0.4-0.3-0.8-0.5-1
		c-0.2-0.2-0.5-0.4-0.8-0.4c-0.2,0-0.4,0.1-0.6,0.2c-0.2,0.1-0.4,0.3-0.5,0.5c-0.1,0.2-0.2,0.4-0.2,0.6c0,0.2,0.1,0.5,0.3,1l3.2,8
		L379.1,701.2 M416.7,690.5c-0.9,0-1.3,0.3-1.3,0.9c0,0.3,0.1,0.5,0.3,0.7c0.2,0.2,0.5,0.3,0.9,0.3h0.7v6.9c0,0.5,0.1,0.9,0.4,1.2
		c0.2,0.3,0.6,0.4,0.9,0.4c0.4,0,0.7-0.1,0.9-0.4c0.2-0.3,0.4-0.7,0.4-1.2v-6.9h0.6c0.5,0,0.8-0.1,1.1-0.2c0.3-0.1,0.4-0.4,0.4-0.8
		c0-0.6-0.5-0.9-1.5-0.9h-0.6v-0.6c0-0.5,0.1-0.9,0.2-1.2c0.1-0.3,0.4-0.4,0.9-0.4c0.2,0,0.4,0,0.6,0.1c0.3,0,0.4,0.1,0.5,0.1
		c0.2,0,0.4-0.1,0.6-0.3c0.2-0.2,0.2-0.4,0.2-0.6c0-0.7-0.8-1.1-2.3-1.1c-0.9,0-1.5,0.1-2,0.3c-0.5,0.2-0.8,0.6-1,1
		c-0.2,0.5-0.3,1.1-0.3,1.9v0.8H416.7 M425.2,697.1c0-0.8,0-1.4,0.1-2c0.1-0.5,0.1-1,0.3-1.4c0.1-0.4,0.3-0.7,0.6-0.9
		c0.2-0.2,0.6-0.3,0.9-0.3c0.3,0,0.6,0.1,1,0.2c0.4,0.1,0.6,0.2,0.7,0.2c0.3,0,0.5-0.1,0.7-0.3c0.2-0.2,0.3-0.5,0.3-0.8
		c0-0.4-0.3-0.8-0.8-1.1c-0.5-0.3-1-0.4-1.6-0.4c-0.5,0-1,0.1-1.3,0.4c-0.3,0.3-0.6,0.7-0.9,1.2c0-0.5-0.1-0.9-0.3-1.2
		c-0.2-0.3-0.5-0.4-0.9-0.4c-0.8,0-1.3,0.6-1.3,1.8v7.2c0,0.5,0.1,0.9,0.4,1.2c0.2,0.3,0.5,0.4,0.9,0.4c0.4,0,0.7-0.1,0.9-0.4
		c0.2-0.3,0.4-0.7,0.4-1.2V697.1 M437.1,696.2H432c0,0.6,0.1,1.1,0.4,1.6c0.2,0.4,0.5,0.8,0.9,1c0.4,0.2,0.8,0.3,1.3,0.3
		c0.3,0,0.6,0,0.8-0.1c0.3-0.1,0.5-0.2,0.7-0.3c0.2-0.2,0.5-0.3,0.7-0.5c0.2-0.2,0.5-0.4,0.8-0.7c0.1-0.1,0.3-0.2,0.6-0.2
		c0.3,0,0.5,0.1,0.7,0.2c0.2,0.1,0.2,0.4,0.2,0.6c0,0.2-0.1,0.5-0.3,0.8c-0.2,0.3-0.5,0.6-0.8,0.9c-0.4,0.3-0.8,0.5-1.4,0.7
		c-0.6,0.2-1.2,0.3-1.9,0.3c-1.7,0-3-0.5-3.9-1.4c-0.9-1-1.4-2.2-1.4-3.9c0-0.8,0.1-1.5,0.3-2.1c0.2-0.7,0.6-1.2,1-1.7
		c0.4-0.5,1-0.8,1.6-1.1c0.6-0.2,1.3-0.4,2.1-0.4c1,0,1.9,0.2,2.6,0.6c0.7,0.4,1.3,1,1.6,1.7c0.4,0.7,0.5,1.4,0.5,2.1
		c0,0.6-0.2,1.1-0.6,1.3C438.3,696.1,437.8,696.2,437.1,696.2 M432,694.8h4.7c-0.1-0.9-0.3-1.6-0.7-2c-0.4-0.4-1-0.7-1.6-0.7
		c-0.6,0-1.2,0.2-1.6,0.7C432.4,693.2,432.1,693.9,432,694.8 M447.9,696.2h-5.1c0,0.6,0.1,1.1,0.4,1.6c0.2,0.4,0.5,0.8,0.9,1
		c0.4,0.2,0.8,0.3,1.3,0.3c0.3,0,0.6,0,0.8-0.1c0.3-0.1,0.5-0.2,0.8-0.3c0.2-0.2,0.5-0.3,0.7-0.5c0.2-0.2,0.5-0.4,0.8-0.7
		c0.1-0.1,0.3-0.2,0.6-0.2c0.3,0,0.5,0.1,0.7,0.2c0.2,0.1,0.2,0.4,0.2,0.6c0,0.2-0.1,0.5-0.3,0.8c-0.2,0.3-0.5,0.6-0.8,0.9
		c-0.4,0.3-0.8,0.5-1.4,0.7c-0.6,0.2-1.2,0.3-1.9,0.3c-1.7,0-3-0.5-3.9-1.4c-0.9-1-1.4-2.2-1.4-3.9c0-0.8,0.1-1.5,0.3-2.1
		c0.2-0.7,0.6-1.2,1-1.7c0.4-0.5,1-0.8,1.6-1.1c0.6-0.2,1.3-0.4,2.1-0.4c1,0,1.9,0.2,2.6,0.6c0.7,0.4,1.3,1,1.6,1.7
		c0.4,0.7,0.5,1.4,0.5,2.1c0,0.6-0.2,1.1-0.6,1.3C449.1,696.1,448.6,696.2,447.9,696.2 M442.8,694.8h4.7c-0.1-0.9-0.3-1.6-0.7-2
		c-0.4-0.4-1-0.7-1.6-0.7c-0.6,0-1.2,0.2-1.6,0.7C443.2,693.2,442.9,693.9,442.8,694.8 M453.6,691.8v0.3c0.5-0.6,1-1,1.5-1.3
		c0.5-0.3,1.1-0.4,1.8-0.4c0.8,0,1.5,0.2,2.2,0.6c0.7,0.4,1.2,1,1.6,1.8c0.4,0.8,0.6,1.7,0.6,2.8c0,0.8-0.1,1.5-0.3,2.2
		c-0.2,0.7-0.5,1.2-0.9,1.7c-0.4,0.5-0.9,0.8-1.4,1c-0.5,0.2-1.1,0.4-1.7,0.4c-0.7,0-1.4-0.1-1.9-0.4c-0.5-0.3-1-0.7-1.4-1.3v3.9
		c0,1.1-0.4,1.7-1.2,1.7c-0.5,0-0.8-0.1-1-0.4c-0.2-0.3-0.2-0.7-0.2-1.3v-11.2c0-0.5,0.1-0.9,0.3-1.1c0.2-0.2,0.5-0.4,0.9-0.4
		c0.4,0,0.7,0.1,0.9,0.4C453.5,690.9,453.6,691.3,453.6,691.8 M458.7,695.5c0-0.7-0.1-1.3-0.3-1.8c-0.2-0.5-0.5-0.9-0.9-1.1
		c-0.4-0.3-0.8-0.4-1.2-0.4c-0.7,0-1.3,0.3-1.8,0.8c-0.5,0.6-0.7,1.4-0.7,2.5c0,1,0.2,1.8,0.7,2.4c0.5,0.6,1.1,0.9,1.8,0.9
		c0.4,0,0.8-0.1,1.2-0.4c0.4-0.3,0.7-0.6,0.9-1.1C458.6,696.9,458.7,696.2,458.7,695.5 M463.9,689.1c-0.4,0-0.7-0.1-0.9-0.3
		c-0.3-0.2-0.4-0.5-0.4-0.9c0-0.4,0.1-0.7,0.4-0.9c0.3-0.2,0.6-0.4,0.9-0.4c0.3,0,0.6,0.1,0.9,0.3c0.3,0.2,0.4,0.5,0.4,0.9
		c0,0.4-0.1,0.7-0.4,0.9C464.5,689,464.2,689.1,463.9,689.1 M465.2,691.8v7.5c0,0.5-0.1,0.9-0.4,1.2c-0.3,0.3-0.6,0.4-0.9,0.4
		c-0.4,0-0.7-0.1-0.9-0.4c-0.2-0.3-0.4-0.7-0.4-1.2v-7.4c0-0.5,0.1-0.9,0.4-1.2c0.2-0.3,0.5-0.4,0.9-0.4c0.4,0,0.7,0.1,0.9,0.4
		C465,691,465.2,691.3,465.2,691.8 M473.5,699.7c0.3,0.4,0.5,0.8,0.7,0.9c0.2,0.2,0.4,0.3,0.7,0.3c0.4,0,0.7-0.1,0.9-0.4
		c0.2-0.2,0.3-0.6,0.3-1c0-0.1,0-0.3-0.1-0.5c-0.1-0.2-0.2-0.4-0.4-0.7l-2.7-4.2l1.4-1.3c0.7-0.6,1.1-1.1,1.1-1.5
		c0-0.3-0.1-0.6-0.3-0.8c-0.2-0.2-0.5-0.3-0.8-0.3c-0.3,0-0.5,0.1-0.7,0.2c-0.2,0.1-0.5,0.4-0.8,0.8l-2.9,3.1v-6.3
		c0-0.5-0.1-0.9-0.4-1.2c-0.2-0.3-0.5-0.4-0.9-0.4c-0.4,0-0.7,0.1-1,0.5c-0.2,0.3-0.3,0.7-0.3,1.3v11.1c0,0.5,0.1,0.9,0.3,1.2
		c0.2,0.3,0.5,0.4,0.9,0.4c0.3,0,0.6-0.1,0.9-0.4c0.3-0.3,0.4-0.7,0.4-1.2v-2.1l1.4-1.3L473.5,699.7 M479.2,700.9
		c0.4,0,0.7-0.1,1-0.4c0.3-0.3,0.4-0.6,0.4-1.1c0-0.4-0.1-0.7-0.4-1c-0.3-0.3-0.6-0.4-1-0.4c-0.4,0-0.7,0.1-1,0.4
		c-0.3,0.3-0.4,0.6-0.4,1c0,0.5,0.1,0.8,0.4,1.1C478.4,700.7,478.8,700.9,479.2,700.9 M492.1,697.6c0-0.3-0.1-0.5-0.3-0.8
		c-0.2-0.2-0.5-0.4-0.8-0.4c-0.3,0-0.5,0.1-0.7,0.2c-0.2,0.2-0.4,0.4-0.5,0.7c-0.3,0.5-0.6,0.9-1,1.1c-0.4,0.2-0.8,0.4-1.3,0.4
		c-0.4,0-0.7-0.1-1.1-0.2c-0.3-0.2-0.6-0.4-0.8-0.7c-0.2-0.3-0.4-0.6-0.5-1c-0.1-0.4-0.2-0.9-0.2-1.3c0-1,0.2-1.9,0.7-2.5
		c0.5-0.6,1.1-0.9,1.9-0.9c0.5,0,1,0.1,1.3,0.4c0.4,0.2,0.7,0.6,1,1.1c0.2,0.3,0.3,0.4,0.5,0.5c0.1,0.1,0.3,0.2,0.5,0.2
		c0.3,0,0.6-0.1,0.8-0.3c0.2-0.2,0.3-0.5,0.3-0.8c0-0.3-0.1-0.6-0.3-1c-0.2-0.3-0.5-0.7-0.9-1c-0.4-0.3-0.9-0.6-1.4-0.8
		c-0.6-0.2-1.2-0.3-1.9-0.3c-1.1,0-2,0.2-2.8,0.7c-0.8,0.4-1.4,1.1-1.8,1.9c-0.4,0.8-0.6,1.8-0.6,2.8c0,1.6,0.5,2.8,1.3,3.8
		c0.9,0.9,2.2,1.4,3.8,1.4c0.8,0,1.4-0.1,2-0.3c0.6-0.2,1.1-0.5,1.5-0.8c0.4-0.3,0.7-0.7,0.9-1C492,698.3,492.1,698,492.1,697.6
		 M503.2,695.6c0,0.8-0.1,1.5-0.4,2.1c-0.2,0.7-0.6,1.2-1.1,1.7c-0.5,0.5-1,0.8-1.6,1.1c-0.6,0.2-1.3,0.4-2.1,0.4
		c-0.8,0-1.5-0.1-2.1-0.4c-0.6-0.3-1.2-0.6-1.6-1.1c-0.5-0.5-0.8-1-1.1-1.7c-0.2-0.6-0.4-1.4-0.4-2.1c0-0.8,0.1-1.5,0.4-2.2
		c0.2-0.7,0.6-1.2,1-1.7c0.5-0.5,1-0.8,1.6-1.1c0.6-0.3,1.3-0.4,2.1-0.4c0.8,0,1.5,0.1,2.1,0.4c0.6,0.3,1.2,0.6,1.6,1.1
		c0.5,0.5,0.8,1,1,1.7C503.1,694.1,503.2,694.8,503.2,695.6 M500.6,695.6c0-1.1-0.2-1.9-0.7-2.5c-0.5-0.6-1.1-0.9-1.9-0.9
		c-0.5,0-1,0.1-1.3,0.4c-0.4,0.3-0.7,0.7-0.9,1.2c-0.2,0.5-0.3,1.1-0.3,1.8c0,0.7,0.1,1.3,0.3,1.8c0.2,0.5,0.5,0.9,0.9,1.2
		c0.4,0.3,0.8,0.4,1.4,0.4c0.8,0,1.4-0.3,1.9-0.9C500.4,697.4,500.6,696.6,500.6,695.6 M513.1,695.8c0-1.1,0.1-1.9,0.3-2.3
		c0.2-0.3,0.4-0.6,0.7-0.8c0.3-0.2,0.6-0.3,1-0.3c0.4,0,0.7,0.1,1,0.3c0.2,0.2,0.3,0.5,0.4,0.8c0,0.3,0.1,0.8,0.1,1.3v4.4
		c0,0.5,0.1,0.9,0.4,1.2c0.3,0.3,0.6,0.4,1,0.4c0.4,0,0.7-0.1,1-0.4c0.2-0.3,0.4-0.7,0.4-1.2v-5.1c0-1-0.1-1.7-0.3-2.2
		c-0.3-0.5-0.6-0.9-1.1-1.2c-0.5-0.3-1.1-0.4-1.8-0.4c-0.6,0-1.2,0.1-1.7,0.4c-0.5,0.3-1,0.7-1.4,1.2c-0.3-0.5-0.7-0.9-1.2-1.2
		c-0.5-0.3-1-0.4-1.7-0.4c-0.6,0-1.2,0.1-1.7,0.4c-0.5,0.3-1,0.6-1.4,1.2v-0.2c0-0.4-0.1-0.7-0.4-1c-0.2-0.2-0.5-0.4-0.9-0.4
		c-0.4,0-0.7,0.1-0.9,0.4c-0.2,0.3-0.3,0.6-0.3,1.1v7.4c0,0.5,0.1,0.9,0.4,1.2c0.3,0.3,0.6,0.4,1,0.4c0.4,0,0.7-0.1,1-0.4
		c0.2-0.3,0.4-0.7,0.4-1.2v-3.5c0-1.1,0.1-1.9,0.4-2.5c0.3-0.6,0.8-0.9,1.7-0.9c0.4,0,0.7,0.1,0.9,0.4c0.2,0.2,0.3,0.5,0.4,0.9
		c0,0.4,0.1,0.9,0.1,1.5v4.1c0,0.5,0.1,1,0.4,1.2c0.2,0.3,0.6,0.4,1,0.4c0.4,0,0.7-0.1,1-0.4c0.2-0.3,0.4-0.7,0.4-1.2V695.8
		 M392.4,695C392.4,695,392.4,695,392.4,695C392.4,695,392.4,695,392.4,695 M392.6,695.8L392.6,695.8c0-0.2-0.1-0.5-0.1-0.7
		C392.5,695.3,392.5,695.6,392.6,695.8 M393.4,698.2C393.4,698.2,393.4,698.2,393.4,698.2C393.4,698.2,393.4,698.2,393.4,698.2
		 M393.3,698c0,0,0-0.1-0.1-0.1C393.3,697.9,393.3,698,393.3,698 M392.8,696.7c0.1,0.4,0.3,0.8,0.5,1.2
		C393.1,697.5,392.9,697.1,392.8,696.7L392.8,696.7z M402.5,685c0.5,0,0.9,0,1.3,0.1l0.1-0.8c0,0-1.2-0.4-2.7-0.2l-0.1-0.4
		c0.5-0.1,0.8-0.5,0.8-1c0-0.6-0.5-1.1-1.1-1.1c-0.6,0-1.1,0.5-1.1,1.1c0,0.5,0.4,0.9,0.8,1l0.1,0.5c-1.6,0.2-2.9,0.9-2.9,0.9
		l0.2,0.7c1-0.3,1.8-0.5,2.6-0.6C401.4,685.1,402,685,402.5,685 M393.4,688.9L393.4,688.9c0-0.1,0.1-0.1,0.1-0.2l-0.3-0.2l-0.5-0.4
		c0,0-0.8,0.7-1.4,2c0,0-0.1-0.1-0.1-0.1c-0.2-0.2-0.4-0.3-0.8-0.3h0c-0.2,0-0.3-0.1-0.4-0.1c0.1-0.1,0.1-0.3,0.1-0.4
		c0-0.4-0.3-0.7-0.7-0.7c-0.4,0-0.7,0.3-0.7,0.7c0,0.4,0.3,0.7,0.7,0.7c0.1,0,0.1,0,0.2,0c0.2,0.2,0.4,0.3,0.8,0.3
		c0.2,0,0.3,0,0.4,0.2c0.1,0.1,0.1,0.3,0.2,0.4c0,0,0,0,0,0c-0.4,1.2-0.3,2.7-0.3,2.7l1.1,0c0-0.5,0.1-1.5,0.4-2.2
		C392.7,689.8,393.4,688.9,393.4,688.9 M411.7,685.9c-0.4,0-0.7,0.3-0.7,0.7c0,0.1,0,0.1,0,0.2c-0.2,0.2-0.3,0.4-0.3,0.8
		c0,0.2,0,0.3-0.2,0.4c-0.1,0.1-0.2,0.1-0.3,0.1c-0.8-1.1-1.8-1.8-1.8-1.8l-0.8,0.8c0.6,0.5,1.2,1.2,1.7,2c0.4,0.6,0.8,1.3,1.1,2
		l1-0.5c0,0-0.5-1.2-1.1-2.2c0.1,0,0.2-0.1,0.3-0.2c0.2-0.2,0.3-0.4,0.3-0.8c0-0.2,0.1-0.3,0.1-0.4c0.1,0.1,0.3,0.1,0.4,0.1
		c0.4,0,0.7-0.3,0.7-0.7C412.3,686.2,412,685.9,411.7,685.9 M409,695.1c-1.4,0.7-3.7,1.6-6.8,2c-1.2,0.2-2.4,0.2-3.4,0.2
		c-1.4,0-2.6-0.1-3.6-0.2c-1.1-0.1-1.9-0.3-2.4-0.4c0.1,0.4,0.3,0.8,0.5,1.2c0,0,0,0,0,0c0,0,0,0.1,0.1,0.1c0,0,0,0.1,0.1,0.1
		c0,0,0,0,0,0c0.3,0.6,0.7,1.1,1.1,1.5c1.4,1.6,2.9,1.8,2.9,1.8l0,0l0,0c0,0,1.3,0.4,3.3,0.4c1.9,0,3.9-0.4,5.7-1.2
		c1.3-0.7,2.6-1.7,3.3-2.7c0.5-0.7,0.8-1.5,1.1-2.3c0.1-0.4,0.2-1.1,0.1-1.8C410.5,694.3,409.9,694.7,409,695.1 M393.9,689.2
		c0,0.1-0.7,0.9-1.1,2.3c-0.4,1-0.3,2.4-0.3,2.5v0c0,0.3,0,0.7,0.1,1c0,0,0,0,0,0c0,0,0,0.1,0,0.1c0,0.2,0.1,0.5,0.1,0.7
		c0.7,0.2,4.9,1.2,9.5,0.5c2.9-0.4,5.1-1.3,6.5-1.9c1.1-0.5,1.8-1,2.1-1.2c-0.3-1-1-2.6-1.7-3.6c-2-2.9-4.2-3.6-5.3-3.8
		c-0.4-0.1-0.8-0.1-1.2-0.1c-0.4,0-1,0-1.7,0.1c-0.7,0.1-1.6,0.3-2.5,0.6c-1.3,0.5-2.6,1.2-3.5,2l0,0
		C394.5,688.5,394.2,688.8,393.9,689.2 M406.1,688.5c1,0,1.7,0.8,1.7,1.7c0,1-0.8,1.7-1.7,1.7c-1,0-1.7-0.8-1.7-1.7
		C404.4,689.3,405.2,688.5,406.1,688.5 M397.9,688.5c1.6,0,2.8,1.3,2.8,2.8c0,1.6-1.3,2.8-2.8,2.8c-1.6,0-2.8-1.3-2.8-2.8
		C395.1,689.7,396.3,688.5,397.9,688.5"/>
</g>
<g id="Objects">
	<g>
		<rect x="248.4" y="293.9" class="st6" width="302.9" height="26.2"/>
		<rect x="257.3" y="320.1" class="st7" width="284.1" height="11.5"/>
		<rect x="272.8" y="307" class="st7" width="268.7" height="13.1"/>
		<g>
			<rect x="272.8" y="64.9" class="st8" width="254.1" height="236.1"/>
			<line class="st9" x1="398.9" y1="64.9" x2="398.9" y2="301"/>
			<line class="st9" x1="269.8" y1="187" x2="526.9" y2="187"/>
			<line class="st10" x1="227" y1="41.5" x2="576.5" y2="41.5"/>
			<circle class="st6" cx="227" cy="41.5" r="6.1"/>
			<circle class="st6" cx="576.5" cy="41.5" r="6.1"/>
			<path class="st11" d="M240.7,48.4v298c0,0,103.6-54.7,103.6-298H240.7z"/>
			<path class="st11" d="M557.1,48.4v298c0,0-103.6-54.7-103.6-298H557.1z"/>
			<line class="st12" x1="247.1" y1="34.3" x2="247.1" y2="55.9"/>
			<line class="st12" x1="287.3" y1="34.3" x2="287.3" y2="55.9"/>
			<line class="st12" x1="326.9" y1="34.3" x2="326.9" y2="55.9"/>
			<line class="st12" x1="470.2" y1="34.3" x2="470.2" y2="55.9"/>
			<line class="st12" x1="510.4" y1="34.3" x2="510.4" y2="55.9"/>
			<line class="st12" x1="550" y1="34.3" x2="550" y2="55.9"/>
		</g>
		<polygon class="st7" points="297.7,595 50.4,595 55.4,573 291.7,573 		"/>
		<polygon class="st7" points="753.5,595 506.1,595 511.1,573 747.5,573 		"/>
		<path class="st13" d="M728.7,529c-0.6,8.8-8.4,16-17.2,16.1l-165.9,0.8c-8.8,0-16.5-7.1-17-15.9L518,349.5
			c-0.5-8.8,6.3-16,15.1-16H727c8.8,0,15.5,7.2,14.9,16L728.7,529z"/>
		<path class="st14" d="M544.7,449.4l-2.3-71.2c0,0-1.3-13.4,14-16.7"/>
		<path class="st14" d="M715.2,449.4l2.3-71.2c0,0,1.6-13.5-14-16.7"/>
		<g>
			<path class="st15" d="M549.2,578.1c0,2.8-2.3,5-5,5h-16.4c-2.8,0-5-2.3-5-5v-18.7c0-2.8,2.3-5,5-5h16.4c2.8,0,5,2.3,5,5V578.1z"
				/>
		</g>
		<g>
			<path class="st15" d="M737,578.1c0,2.8-2.3,5-5,5h-16.4c-2.8,0-5-2.3-5-5v-18.7c0-2.8,2.3-5,5-5H732c2.8,0,5,2.3,5,5V578.1z"/>
		</g>
		<path class="st16" d="M781.4,457.4c0-19.7-16-35.7-35.7-35.7c-19.7,0-35.7,16-35.7,35.7c0,5.5,1.3,10.7,3.5,15.4h-167
			c2.2-4.7,3.5-9.9,3.5-15.4c0-19.7-16-35.7-35.7-35.7c-19.7,0-35.7,16-35.7,35.7c0,14.6,8.8,27.2,21.4,32.7v59.5
			c0,8.8,7.2,16,16,16H738c8.8,0,16-7.2,16-16v-57.5C769.7,488.3,781.4,474.2,781.4,457.4z"/>
		<path class="st17" d="M526.2,457.4c0,6.5-5.2,11.7-11.7,11.7c-6.5,0-11.7-5.2-11.7-11.7c0-6.5,5.2-11.7,11.7-11.7
			C521,445.7,526.2,450.9,526.2,457.4z"/>
		<path class="st17" d="M758.4,456.1c0,6.5-5.2,11.7-11.7,11.7c-6.5,0-11.7-5.2-11.7-11.7c0-6.5,5.2-11.7,11.7-11.7
			C753.2,444.4,758.4,449.7,758.4,456.1z"/>
		<line class="st18" x1="538.9" y1="516.9" x2="538.9" y2="533.7"/>
		<line class="st18" x1="721.8" y1="516.9" x2="721.8" y2="533.7"/>
		<g>
			<circle class="st19" cx="600.4" cy="405.5" r="6"/>
			<g>
				<path class="st19" d="M574,435.9c0,3.3-2.7,6-6,6c-3.3,0-6-2.7-6-6c0-3.3,2.7-6,6-6C571.3,429.8,574,432.5,574,435.9z"/>
				<path class="st19" d="M574,375.2c0,3.3-2.7,6-6,6c-3.3,0-6-2.7-6-6c0-3.3,2.7-6,6-6C571.3,369.1,574,371.8,574,375.2z"/>
			</g>
			<g>
				<path class="st19" d="M697.9,435.9c0,3.3-2.7,6-6,6c-3.3,0-6-2.7-6-6c0-3.3,2.7-6,6-6C695.2,429.8,697.9,432.5,697.9,435.9z"/>
				<path class="st19" d="M697.9,375.2c0,3.3-2.7,6-6,6c-3.3,0-6-2.7-6-6c0-3.3,2.7-6,6-6C695.2,369.1,697.9,371.8,697.9,375.2z"/>
			</g>
			<path class="st19" d="M668.3,405.5c0,3.3-2.7,6-6,6c-3.3,0-6-2.7-6-6c0-3.3,2.7-6,6-6C665.6,399.5,668.3,402.2,668.3,405.5z"/>
			<g>
				<path class="st19" d="M635.8,435.9c0,3.3-2.7,6-6,6c-3.3,0-6-2.7-6-6c0-3.3,2.7-6,6-6C633.1,429.8,635.8,432.5,635.8,435.9z"/>
				<path class="st19" d="M635.8,375.2c0,3.3-2.7,6-6,6c-3.3,0-6-2.7-6-6c0-3.3,2.7-6,6-6C633.1,369.1,635.8,371.8,635.8,375.2z"/>
			</g>
		</g>
		<path class="st20" d="M410.3,453.1c-0.6-4.6,0-9.5,0-14.1c0,0,0-13.1,0-13.1h-11.1h-11.1c0,0,0,0,0,0c0,4.6,0.6,22.7,0,27.2
			c-1,15.8-22.3,18-21.7,33.6c10.9,0,21.9,0,32.8,0c10.9,0,21.9,0,32.8,0C432.6,471.1,411.2,468.9,410.3,453.1z"/>
		<g>
			<path class="st21" d="M450.7,420.3c0.8,3-1.2,5.5-4.3,5.5h-92.6c-3.1,0-5.2-2.5-4.6-5.5l8.2-41.6c0.6-3,3.6-5.5,6.7-5.5H433
				c3.1,0,6.3,2.5,7.1,5.5L450.7,420.3z"/>
			<path class="st21" d="M450.7,420.3c0.8,3-1.2,5.5-4.3,5.5h-92.6c-3.1,0-5.2-2.5-4.6-5.5l8.2-41.6c0.6-3,3.6-5.5,6.7-5.5H433
				c3.1,0,6.3,2.5,7.1,5.5L450.7,420.3z"/>
		</g>
		<path class="st22" d="M737.9,480.5c0-5.6-4.6-10.1-10.1-10.1H532c-5.6,0-10.1,4.6-10.1,10.1v26.3c0,0.1,0,0.1,0,0.2h0v10H532
			h195.7h10.1v-10h0c0-0.1,0-0.1,0-0.2V480.5z"/>
		<rect x="521.9" y="503.7" class="st7" width="216" height="13.2"/>
		<rect x="388.2" y="425.8" class="st7" width="22.2" height="13.2"/>
		<path class="st13" d="M272.3,529c-0.6,8.8-8.4,16-17.2,16.1l-165.9,0.8c-8.8,0-16.5-7.1-17-15.9L61.6,349.5
			c-0.5-8.8,6.3-16,15.1-16h193.9c8.8,0,15.5,7.2,14.9,16L272.3,529z"/>
		<path class="st14" d="M88.3,449.4l-2.3-71.2c0,0-1.3-13.4,14-16.7"/>
		<path class="st14" d="M258.8,449.4l2.3-71.2c0,0,1.6-13.5-14-16.7"/>
		<g>
			<path class="st15" d="M92.9,578.1c0,2.8-2.3,5-5,5H71.5c-2.8,0-5-2.3-5-5v-18.7c0-2.8,2.3-5,5-5h16.4c2.8,0,5,2.3,5,5V578.1z"/>
		</g>
		<g>
			<path class="st15" d="M280.6,578.1c0,2.8-2.3,5-5,5h-16.4c-2.8,0-5-2.3-5-5v-18.7c0-2.8,2.2-5,5-5h16.4c2.8,0,5,2.3,5,5V578.1z"
				/>
		</g>
		<path class="st16" d="M325,457.4c0-19.7-16-35.7-35.7-35.7c-19.7,0-35.7,16-35.7,35.7c0,5.5,1.3,10.7,3.5,15.4H90
			c2.2-4.7,3.5-9.9,3.5-15.4c0-19.7-16-35.7-35.7-35.7c-19.7,0-35.7,16-35.7,35.7c0,14.6,8.8,27.2,21.4,32.7v59.5
			c0,8.8,7.2,16,16,16h222.2c8.8,0,16-7.2,16-16v-57.5C313.4,488.3,325,474.2,325,457.4z"/>
		<path class="st17" d="M69.8,457.4c0,6.5-5.2,11.7-11.7,11.7c-6.5,0-11.7-5.2-11.7-11.7c0-6.5,5.2-11.7,11.7-11.7
			C64.6,445.7,69.8,450.9,69.8,457.4z"/>
		<path class="st17" d="M302.1,456.1c0,6.5-5.2,11.7-11.7,11.7c-6.5,0-11.7-5.2-11.7-11.7c0-6.5,5.2-11.7,11.7-11.7
			C296.8,444.4,302.1,449.7,302.1,456.1z"/>
		<line class="st18" x1="82.5" y1="516.9" x2="82.5" y2="533.7"/>
		<line class="st18" x1="265.4" y1="516.9" x2="265.4" y2="533.7"/>
		<g>
			<circle class="st19" cx="144" cy="405.5" r="6"/>
			<g>
				<path class="st19" d="M117.6,435.9c0,3.3-2.7,6-6,6c-3.3,0-6-2.7-6-6c0-3.3,2.7-6,6-6C114.9,429.8,117.6,432.5,117.6,435.9z"/>
				<path class="st19" d="M117.6,375.2c0,3.3-2.7,6-6,6c-3.3,0-6-2.7-6-6c0-3.3,2.7-6,6-6C114.9,369.1,117.6,371.8,117.6,375.2z"/>
			</g>
			<g>
				<path class="st19" d="M241.5,435.9c0,3.3-2.7,6-6,6c-3.3,0-6-2.7-6-6c0-3.3,2.7-6,6-6C238.8,429.8,241.5,432.5,241.5,435.9z"/>
				<path class="st19" d="M241.5,375.2c0,3.3-2.7,6-6,6c-3.3,0-6-2.7-6-6c0-3.3,2.7-6,6-6C238.8,369.1,241.5,371.8,241.5,375.2z"/>
			</g>
			<path class="st19" d="M211.9,405.5c0,3.3-2.7,6-6,6c-3.3,0-6-2.7-6-6c0-3.3,2.7-6,6-6C209.2,399.5,211.9,402.2,211.9,405.5z"/>
			<g>
				<path class="st19" d="M179.5,435.9c0,3.3-2.7,6-6,6c-3.3,0-6-2.7-6-6c0-3.3,2.7-6,6-6C176.8,429.8,179.5,432.5,179.5,435.9z"/>
				<path class="st19" d="M179.5,375.2c0,3.3-2.7,6-6,6c-3.3,0-6-2.7-6-6c0-3.3,2.7-6,6-6C176.8,369.1,179.5,371.8,179.5,375.2z"/>
			</g>
		</g>
		<path class="st22" d="M281.5,480.5c0-5.6-4.6-10.1-10.1-10.1H75.7c-5.6,0-10.1,4.6-10.1,10.1v26.3c0,0.1,0,0.1,0,0.2h0v10h10.1
			h195.7h10.1v-10h0c0-0.1,0-0.1,0-0.2V480.5z"/>
		<rect x="65.5" y="503.7" class="st7" width="216" height="13.2"/>
		<rect x="324.1" y="493.6" class="st15" width="151.8" height="84.4"/>
		<rect x="329.7" y="578" class="st15" width="140.6" height="10.7"/>
		<rect x="332.2" y="501" class="st6" width="135.7" height="34.8"/>
		<circle class="st23" cx="400" cy="518.4" r="5.2"/>
		<rect x="332.2" y="535.8" class="st24" width="135.7" height="3.5"/>
		<rect x="329.7" y="578" class="st24" width="140.6" height="3.5"/>
		<rect x="321.6" y="486.7" class="st6" width="156.8" height="7"/>
		<path class="st25" d="M86.6,152.7c0-22.3,18.1-40.4,40.4-40.4s40.4,18.1,40.4,40.4s-18.1,40.4-40.4,40.4S86.6,175,86.6,152.7"/>
		<path class="st17" d="M127,197.7c-24.8,0-45-20.2-45-45c0-24.8,20.2-45,45-45c24.8,0,45,20.2,45,45
			C172,177.5,151.8,197.7,127,197.7 M127,112.7c-22.1,0-40,17.9-40,40c0,22.1,17.9,40,40,40c22.1,0,40-17.9,40-40
			C167,130.6,149,112.7,127,112.7"/>
		<polygon class="st17" points="128.2,149.3 125.8,149.3 124.8,153.4 126.5,184.1 127.4,184.1 129.2,153.4 		"/>
		<polygon class="st17" points="123.5,154.9 124.6,156 128.3,153.2 152.3,127.7 151.9,127.3 126.4,151.2 		"/>
		<polygon class="st17" points="133.1,159 133.5,158.6 130,154.6 101.4,126.7 101.2,126.9 129.1,155.5 		"/>
		<rect x="126.4" y="113.8" class="st17" width="1.1" height="4.8"/>
		<rect x="126.4" y="186.5" class="st17" width="1.1" height="4.8"/>
		<rect x="88.5" y="152.1" class="st17" width="4.8" height="1.1"/>
		<rect x="161" y="152.1" class="st17" width="4.8" height="1.1"/>
	</g>
</g>
</svg>
