<?xml version="1.0" encoding="utf-8"?>
<!-- Generator: Adobe Illustrator 19.0.0, SVG Export Plug-In . SVG Version: 6.00 Build 0)  -->
<svg version="1.1" xmlns="http://www.w3.org/2000/svg" xmlns:xlink="http://www.w3.org/1999/xlink" x="0px" y="0px"
	 viewBox="0 0 586 559.7" style="enable-background:new 0 0 586 559.7;" xml:space="preserve">
<style type="text/css">
	.st0{fill:#DDB997;}
	.st1{fill:#BA987D;}
	.st2{fill:#EFCEB4;}
	.st3{fill:#F4E0CE;}
	.st4{fill:#E2CDBC;}
	.st5{fill:#FCEEE3;}
	.st6{fill:#375A70;}
	.st7{fill:#23404F;}
	.st8{fill:#D8996F;}
	.st9{fill:#EDAC80;}
	.st10{fill:#3D3027;}
	.st11{fill:#FFFFFF;}
	.st12{fill:#BC4D3E;}
	.st13{fill:#FDF9F4;}
	.st14{fill:#DB5E52;}
	.st15{opacity:0.4;fill:#F97E62;}
	.st16{fill:#C97A45;}
	.st17{fill:#CCC6C0;}
	.st18{fill:#E24D13;}
	.st19{fill:#8A3514;}
	.st20{fill:#FF591F;}
	.st21{fill:#BC370D;}
	.st22{fill:#B58F6F;}
	.st23{fill:#C19978;}
	.st24{fill:#A37D61;}
	.st25{fill:#4D84A0;}
	.st26{fill:#44798E;}
	.st27{fill:#9B2708;}
	.st28{fill:#56190A;}
	.st29{fill:#ED1C24;}
	.st30{fill:#F4DED0;}
	.st31{fill:#6D2712;}
	.st32{fill:#FFC396;}
	.st33{opacity:0.4;fill:#F99475;}
	.st34{fill:#DD996B;}
	.st35{fill:#FC5A29;}
</style>
<g id="background">
</g>
<g id="object">
	<g>
		<g>
			<rect x="2.3" y="470.6" class="st0" width="176.7" height="88"/>
			<rect x="2.3" y="483.3" class="st1" width="176.7" height="14.7"/>
			<rect y="470.6" class="st2" width="181.3" height="22"/>
		</g>
		<g>
			<rect x="38.8" y="339" class="st3" width="139.6" height="130.7"/>
			<rect x="38.8" y="344.9" class="st4" width="139.6" height="20.3"/>
			<rect x="37" y="338" class="st5" width="143.3" height="22.4"/>
		</g>
		<g>
			<path class="st2" d="M551.2,432.2c-0.6-21.4-8.3-38.5-20.2-38.5s-19.6,17.1-20.2,38.5h-5.8c0.6-24.2,12-43.5,26-43.5
				c13.9,0,25.4,19.3,26,43.5H551.2z"/>
			<rect x="474" y="424.7" class="st6" width="112" height="135"/>
		</g>
		<g>
			<g>
				<path class="st6" d="M325.8,333.6h123.1c0,0-13.1,142.4-27.1,211.6H394c0,0-0.8-146.2-0.8-185.4h-8.8l-3.5,185.4h-27
					C353.9,545.2,327.8,386,325.8,333.6z"/>
				<path class="st7" d="M352.2,333.6h-26.4c0.3,7.7,1.1,17.8,2.3,29.4C338.7,355.5,346.9,345.3,352.2,333.6z"/>
				<path class="st7" d="M446.2,360.8c1.7-16.7,2.6-27.2,2.6-27.2H418C424.9,344.8,434.7,354.6,446.2,360.8z"/>
			</g>
			<g>
				<path class="st8" d="M395.1,140.7c0,0-37.6,0-37.6,0c-0.6,19.2-8.7,23.7-23,25.8c3,17,24.5,18.5,40.8,17.7c0.3,0,0.7,0,1,0
					c0.3,0,0.7,0,1,0c16.3,0.8,37.8-0.8,40.8-17.7C403.8,164.4,393.4,160.5,395.1,140.7z"/>
				<g>
					<g>
						<path class="st8" d="M309.2,82.6c-0.1-0.7,0.1-1.2-0.1-1.8c-22.7-9.2-20.9,27.6,2,25.4L309.2,82.6z"/>
						<path class="st9" d="M436.5,82.6c0.1-0.7-0.1-1.2,0.1-1.8c22.7-9.2,20.9,27.6-2,25.4L436.5,82.6z"/>
					</g>
					<path class="st9" d="M439.8,91.3c0,32.4-30,58.7-67,58.7c-37,0-67-26.3-67-58.7c0-32.4,30-58.7,67-58.7
						C409.8,32.6,439.8,58.8,439.8,91.3z"/>
					<path class="st10" d="M306.2,80.8c0,0,12.9-7.4,24.4-23.4c0,0,65.1,21.7,92.5,0c0,0,9,8.3,14.4,25.2l2.8-3.5
						c0,0,7-56.8-49.8-71.5c0,0-0.6-18.5-17.9,1.9c0,0-4.5-18.5-10.8-0.6C361.8,9,296.1,19.2,306.2,80.8z"/>
					<g>
						<g>
							<g>
								<ellipse cx="340.9" cy="91.4" rx="6.1" ry="8.5"/>
								<ellipse class="st11" cx="340" cy="89.3" rx="3.3" ry="2.7"/>
							</g>
							<g>
								<ellipse cx="404.7" cy="91.4" rx="6.1" ry="8.5"/>
								<ellipse class="st11" cx="403.8" cy="89.3" rx="3.3" ry="2.7"/>
							</g>
						</g>
						<g>
							<path class="st10" d="M331,84.9c0,0,3.8-9.9,16.3-4.5L347,75C347,75,330.7,70.8,331,84.9z"/>
							<path class="st10" d="M414.6,84.9c0,0-3.8-9.9-16.3-4.5l0.3-5.4C398.6,75,414.9,70.8,414.6,84.9z"/>
						</g>
					</g>
					<g>
						<path class="st12" d="M348.4,116.2c0,0,26.2,12.1,51-1.3C399.4,114.9,379.6,161.8,348.4,116.2z"/>
						<path class="st13" d="M348.4,116.2c0,0,28.4,11.2,51-1.9C399.4,114.3,379.3,140.1,348.4,116.2z"/>
						<path class="st14" d="M361.1,130.5c0,0,9.3-1.9,28.7-1.6C389.9,128.9,378.1,143.3,361.1,130.5z"/>
					</g>
					<g>
						<ellipse class="st15" cx="332.2" cy="110.2" rx="10.2" ry="9.1"/>
						<ellipse class="st15" cx="415.6" cy="110.2" rx="10.2" ry="9.1"/>
					</g>
					<path class="st16" d="M381.3,84.6c0,0,4,27.5-15.9,22.8c0,0,12.8,5.1,17.2-2.6C387.6,96.3,381.3,84.6,381.3,84.6z"/>
				</g>
			</g>
			<path class="st17" d="M335.7,165.8c0,0-16.2,37.2,42.1,37.2c58,0,41-37,41-37l-37,5l-4.5-1.5l-5,1L335.7,165.8z"/>
			<path class="st18" d="M490.8,254c-37.7-99-76.8-88.5-76.8-88.5s-12.2,28.1-36,28.7c-23.8,0.6-38.3-28.4-38.3-28.4
				c-45.9,1.7-41,43.5-63.9,115.9c-17.3,54.7,50.6,51.6,50,52.2c-2.3,2.3,123.1,0,123.1,0S512.5,311,490.8,254z"/>
			<g>
				<path class="st18" d="M389.7,556.1c0,0-9.8-28.2,20.2-28.2c31.7,0,22.9,29,22.9,29L389.7,556.1z"/>
				<path class="st19" d="M433.3,559.7c0.3-1.4,0.7-3.5,0.6-6.3h-45.7c0.2,2.6,0.6,4.9,1,6.3H433.3z"/>
			</g>
			<g>
				<path class="st18" d="M341.3,554.5c0,0-9.8-28.2,20.2-28.2c31.7,0,22.9,29,22.9,29L341.3,554.5z"/>
				<path class="st19" d="M384.4,559.7c0.1-0.4,1.1-3.3,1.1-7.9h-45.7c0.3,4.2,1.3,7.5,1.5,7.9H384.4z"/>
			</g>
			<g>
				<polygon class="st13" points="349.8,157.5 334.3,165 355.8,191 376.8,169.5 				"/>
				<polygon class="st13" points="404.3,157.5 419.8,165 402.3,190 377.3,169.5 				"/>
			</g>
			<path class="st20" d="M321.1,281.1c-13.9-5.5-36.3,1.8-43.1,14.9c-8.8,17,2.7,36.8,18.5,42.2c16.3,5.6,35.2,2.2,44.7-13.7
				C350.9,308.3,336.8,287.4,321.1,281.1z"/>
			<path class="st9" d="M296.4,298.5c-11.7,4.7,1.9,26.7,13.3,25.2l4-2.7C321.9,314.9,305.4,294.8,296.4,298.5z"/>
			<path class="st20" d="M459.2,336.1c-15.5,2.8-30.2-3.7-29.9-23.8c0.4-26.5-2.5-49.9,25.1-46.6c13.8,1.7,41.7,3.5,41.3,14.7
				c-0.6,20.6-6.4,42.5-23.9,51.4C467.8,333.8,463.5,335.3,459.2,336.1z"/>
			<path class="st9" d="M483.2,297.1c11.7,4.7-1.9,26.7-13.3,25.2l-4-2.7C457.7,313.6,474.2,293.5,483.2,297.1z"/>
			<g>
				<rect x="301.3" y="230.6" class="st3" width="176.7" height="88"/>
				<rect x="301.3" y="243.3" class="st4" width="176.7" height="14.7"/>
				<rect x="299" y="230.6" class="st5" width="181.3" height="22"/>
			</g>
			<g>
				<rect x="328.7" y="177.6" class="st0" width="176.7" height="53.3"/>
				<rect x="328.7" y="185.3" class="st1" width="176.7" height="8.9"/>
				<rect x="326.3" y="177.6" class="st2" width="181.3" height="13.3"/>
			</g>
			<path class="st9" d="M335.1,306.3c-2.2-10.2-8.4-14.8-19.2-11.5c-7.6,2.3-10.6,13.9-10.9,20.8c-0.5,14.4,13,10.7,24.1,10.7
				C342.4,326.3,336.8,314.3,335.1,306.3z"/>
			<path class="st9" d="M444.3,306.3c2.2-10.2,8.4-14.8,19.2-11.5c7.6,2.3,10.6,13.9,10.9,20.8c0.5,14.4-13,10.7-24.1,10.7
				C436.9,326.3,442.6,314.3,444.3,306.3z"/>
		</g>
		<g>
			<path class="st1" d="M497.8,423.9c0.2,1.6,1.7,2.8,3.3,2.6l0,0c1.6-0.2,2.8-1.7,2.6-3.3l-6.8-59.6c-0.2-1.6-1.7-2.8-3.3-2.6l0,0
				c-1.6,0.2-2.8,1.7-2.6,3.3L497.8,423.9z"/>
			<path class="st1" d="M454.4,422.1c-0.3,1.6,0.7,3.2,2.3,3.5l0,0c1.6,0.3,3.2-0.7,3.5-2.3l11.1-58.8c0.3-1.6-0.7-3.2-2.3-3.5l0,0
				c-1.6-0.3-3.2,0.7-3.5,2.3L454.4,422.1z"/>
			<g>
				<polygon class="st18" points="445.8,559.7 511.8,559.7 504.8,406.7 453.8,406.7 				"/>
				<path class="st21" d="M448.3,559.7c0.4-21.6,13.9-39,30.5-39c16.6,0,30.1,17.4,30.5,39H448.3z"/>
			</g>
		</g>
		<g>
			<g>
				<g>
					<path class="st22" d="M284.2,378.3c-5.3-14-12.7-40.4-33.2-32.3c-19.2,7.6-16.1,33-10.6,48.6c1.1,3,5.9,1.7,4.8-1.3
						c-4.5-12.8-8.5-33.2,5.6-41.7c17.2-10.3,24.4,16.9,28.6,28C280.5,382.6,285.3,381.3,284.2,378.3z"/>
					<path class="st22" d="M267.2,396.3c-5-12-9.9-24.1-12-37c-0.5-3.2-5.3-1.8-4.8,1.3c2.1,12.9,7,25,12,37
						C263.6,400.6,268.4,399.3,267.2,396.3z"/>
				</g>
				<g>
					<g>
						<polygon class="st23" points="339.1,492 288.1,508.3 255.8,388.2 295.2,375.7 						"/>
						<path class="st24" d="M337.1,492.6c-5.6-16.6-20.3-26.7-33.2-22.6c-12.8,4.1-19,20.8-14,37.7L337.1,492.6z"/>
					</g>
				</g>
				<g>
					<path class="st1" d="M234.3,404.9c0,1.3-1.1,2.4-2.4,2.5l0,0c-1.3,0-2.4-1.1-2.5-2.4l-0.5-48.7c0-1.3,1.1-2.4,2.4-2.5l0,0
						c1.3,0,2.4,1.1,2.5,2.4L234.3,404.9z"/>
					<g>
						<polygon class="st0" points="289.7,509.1 236.6,515.7 226.9,391.8 268,386.7 						"/>
						<path class="st23" d="M287.7,509.3c-2.5-17.4-15.1-30-28.4-28.4c-13.4,1.7-22.5,17-20.6,34.5L287.7,509.3z"/>
					</g>
				</g>
			</g>
			<g>
				<path class="st0" d="M127.6,350.8c-4.2-8.7-16.6-0.5-21.4,2.9c-8.1,5.8-14.6,13.2-22.3,19.5c-2.5,2,1.1,5.6,3.5,3.5
					c6.1-5,11.4-10.8,17.5-15.8c3.6-3,7.5-5.8,11.8-7.8c1.7-0.8,6.9-2.4,6.4,1.2c-1.1,7.7-9,15.4-13.8,21.1
					c-4,4.6-9.6,9.1-12.8,14.3c-1.7,2.8,2.7,5.3,4.3,2.5c0.9-1.5,4.1-4.5,5.8-6.4c3.7-4.1,7.4-8.2,10.8-12.5
					C121.5,368.4,131.1,358,127.6,350.8z"/>
				<path class="st22" d="M134.5,352.3c-7.9-4.1-14,5.5-16.7,11.4c-3.9,8.6-6.4,18.8-6.5,28.3c0,3.2,5,3.2,5,0
					c0.1-7.5,2-15.2,4.5-22.2c1.2-3.4,6.9-17.7,12.6-12.1c4.4,4.4,2.9,15.3,2.6,20.8c-0.4,6.9-1.6,13.7-1.7,20.6c0,3.2,5,3.2,5,0
					c0.1-8.6,1.7-17.2,1.9-25.9C141.3,366.5,141.3,355.9,134.5,352.3z"/>
				<g>
					<g>
						<polygon class="st25" points="33.9,488 84.9,504.3 117.2,384.2 77.8,371.7 						"/>
						<path class="st26" d="M35.9,488.6C41.5,472,56.2,461.9,69,466c12.8,4.1,19,20.8,14,37.7L35.9,488.6z"/>
					</g>
				</g>
				<g>
					<path class="st1" d="M138.7,400.9c0,1.3,1.1,2.4,2.4,2.5l0,0c1.3,0,2.4-1.1,2.5-2.4l0.5-48.7c0-1.3-1.1-2.4-2.4-2.5l0,0
						c-1.3,0-2.4,1.1-2.5,2.4L138.7,400.9z"/>
					<g>
						<polygon class="st18" points="83.3,505.1 136.4,511.7 146.1,387.8 105,382.7 						"/>
						<path class="st21" d="M85.3,505.3c2.5-17.4,15.1-30,28.4-28.4c13.4,1.7,22.5,17,20.6,34.5L85.3,505.3z"/>
					</g>
				</g>
			</g>
			<path class="st9" d="M160,238.1l-15.7-5.1h-5.7c-3.1,6.6-2.2,15.9-1.8,23.1c0.7,13.5,1.9,26.4-0.9,39.7
				c-2.9,14-7.9,24.7-15.2,37.3c-3.2,5.6-9.4,15.7-7,22.2c3.6,9.6,31.8,21.1,30.8,4.2c-0.5-8.1-8-9.2-5.9-17.8
				c2.1-9,8.2-18.6,12.4-27.2c6.2-12.6,10.8-27.3,13-40.7C166.2,260.9,159.4,250.3,160,238.1z"/>
			<path class="st9" d="M218.6,238.1l15.7-5.1h5.7c3.1,6.6,2.2,15.9,1.8,23.1c-0.7,13.5-1.9,26.4,0.9,39.7
				c2.9,14,8.9,24.7,16.2,37.3c3.2,5.6,8.4,15.7,6,22.2c-3.6,9.6-31.8,21.1-30.8,4.2c0.5-8.1,8-9.2,5.9-17.8
				c-2.1-9-8.2-18.6-12.4-27.2c-6.2-12.6-10.8-27.3-13-40.7C212.4,260.9,219.2,250.3,218.6,238.1z"/>
			<path class="st27" d="M222.8,275c0,0,21,52,25,66l-17,1l-20-54L222.8,275z"/>
			<g>
				<ellipse class="st28" cx="185.8" cy="42" rx="39" ry="34"/>
				<g>
					<path class="st9" d="M191.6,546.7l-8-14.6l3.1-114.6l-33.4-6.3c0.7,2.8,8.4,81.2,14.6,120.9l-6.3,14.6H191.6z"/>
					<path class="st29" d="M195,559.7c2.1-6.2,4.4-20-16.6-20c-21,0-20.3,13.7-19,20H195z"/>
				</g>
				<g>
					<path class="st9" d="M199.3,546.7l8-14.6l-5.2-114.6l30.1-6.3c-0.7,2.8-3,81.2-9.2,120.9l6.3,14.6H199.3z"/>
					<path class="st29" d="M231.5,559.7c1.4-6.2,2-20-19-20c-21,0-18.7,13.7-16.6,20H231.5z"/>
				</g>
				<path class="st6" d="M223.9,289.6l8.1-44.9l17.4-1.1c-5.5-52.6-40.4-45.6-40.4-45.6l-36.2,1.1c-42-4-41.3,38-41.3,38l16.4,3.3
					l6.9,50.4l1.7-1.1c-26.9,37.3-24.4,151.6-23.1,155.3h115.6c6.7-69.5-20.1-147-25.5-154.2L223.9,289.6z"/>
				<circle class="st30" cx="189.9" cy="215" r="6.6"/>
				<circle class="st30" cx="189.9" cy="235.9" r="6.6"/>
				<circle class="st30" cx="189.9" cy="256.7" r="6.6"/>
				<polygon class="st7" points="226,276.4 152.8,276.4 154.8,290.6 225,290.6 				"/>
				<path class="st9" d="M203.1,183.6l-28.1,0.7c0,0,5.8,6.6-6.6,14.6c0,0,18.4,11.8,40.6-1.1C209,197.9,197.9,190.9,203.1,183.6z"
					/>
				<g>
					<path class="st31" d="M181.3,40.5c-74,0-68.7,85.7-68.7,85.7l138.5-3.5C251.2,122.8,258.3,40.5,181.3,40.5z"/>
					<g>
						<g>
							<path class="st9" d="M124.9,120.2c-0.1-0.6,0.1-1.1-0.1-1.8c-22.1-9-20.5,26.9,1.9,24.8L124.9,120.2z"/>
							<path class="st9" d="M240.3,117.9c0.1-0.6-0.1-1.1,0.1-1.8c22.2-8.9,20.3,27.1-2,24.8L240.3,117.9z"/>
						</g>
						<path class="st32" d="M243.9,147.6c-9.1,29.6-43,45.5-76.7,35.1c-33.7-10.3-53.8-42.7-44.7-72.2c9.1-29.6,43.8-45.2,77.5-34.8
							C233.7,86,253,118,243.9,147.6z"/>
						<g>
							<g>
								<g>
									<path d="M160.1,133.5c0.1,4.6-2.4,8.4-5.7,8.5c-3.3,0.1-6-3.5-6.2-8.1c-0.1-4.6,2.4-8.4,5.7-8.5
										C157.2,125.3,160,128.9,160.1,133.5z"/>
									
										<ellipse transform="matrix(0.9995 -3.007798e-002 3.007798e-002 0.9995 -3.8904 4.6695)" class="st11" cx="153.3" cy="131.7" rx="3.3" ry="2.7"/>
								</g>
								<g>
									<path d="M219.2,130.4c0.1,4.6-2.4,8.4-5.7,8.5c-3.3,0.1-6-3.5-6.2-8.1c-0.1-4.6,2.4-8.4,5.7-8.5
										C216.4,122.2,219.1,125.8,219.2,130.4z"/>
									
										<ellipse transform="matrix(0.9996 -2.993755e-002 2.993755e-002 0.9996 -3.7521 6.4159)" class="st11" cx="212.4" cy="128.5" rx="3.3" ry="2.7"/>
								</g>
							</g>
							<g>
								<path class="st28" d="M143,124.3c0,0,3.4-9.8,15.7-4.8l-0.5-5.3C158.2,114.1,142.2,110.6,143,124.3z"/>
								<path class="st28" d="M224.5,121.8c0,0-4-9.5-16-3.9l0.2-5.3C208.7,112.6,224.4,108.1,224.5,121.8z"/>
							</g>
						</g>
						<g>
							<path class="st12" d="M161.6,154.7c0,0,25.6,11.7,49.8-1.6C211.4,153.1,192.4,199,161.6,154.7z"/>
							<path class="st13" d="M161.6,154.7c0,0,27.8,10.7,49.8-2.2C211.4,152.5,192,177.8,161.6,154.7z"/>
							<path class="st14" d="M174.1,168.6c0,0,9-1.9,28-1.8C202.2,166.9,190.7,181,174.1,168.6z"/>
						</g>
						<g>
							
								<ellipse transform="matrix(0.9954 -9.627915e-002 9.627915e-002 0.9954 -14.2063 14.983)" class="st33" cx="148.2" cy="154.7" rx="10" ry="8.9"/>
							
								<ellipse transform="matrix(0.9954 -9.620702e-002 9.620702e-002 0.9954 -13.0665 22.73)" class="st33" cx="229.2" cy="146.9" rx="10" ry="8.9"/>
						</g>
						<path class="st34" d="M190.1,127.6c0,0,4.2,19.9-11.6,17c0,0,10.2,4.8,13.4-1.3C195.5,136.4,190.1,127.6,190.1,127.6z"/>
						<path class="st19" d="M119.8,117.4c0,0,18-44.6,52-28.4c44,21,63,25,72.6,28.7c0,0,5.6-54.9-62.3-57.7
							C119.3,57.3,119.8,117.4,119.8,117.4z"/>
					</g>
				</g>
				<ellipse class="st29" cx="119.8" cy="145" rx="7.1" ry="7.5"/>
				<ellipse class="st29" cx="248.8" cy="144" rx="7.1" ry="7.5"/>
			</g>
			<path class="st21" d="M211.8,343c-30,0-52-145-52-145l-7,1c26,171,61,151,61,151L211.8,343z"/>
			<path class="st18" d="M252.9,350.3c1.1,9-5.3,17.2-14.3,18.3l-30.9,3.8c-9,1.1-17.2-5.3-18.3-14.3l-0.8-6.5
				c-1.1-9,5.3-17.2,14.3-18.3l30.9-3.8c9-1.1,17.2,5.3,18.3,14.3L252.9,350.3z"/>
			<path class="st21" d="M202.8,352.3c4.2,4.2,10.2,5.6,15.9,5.7c11.6,0.3,23.3-3.3,34.2-7.8l-0.8-6.4c-1.1-9-9.3-15.4-18.3-14.3
				l-30.9,3.8c-2.5,0.3-4.8,1.2-6.8,2.5C196.8,341.9,198.5,348,202.8,352.3z"/>
			<path class="st35" d="M215.3,351c12.5,2.2,25.1-1.8,36.9-6.4l-0.1-0.8c-1.1-9-9.3-15.4-18.3-14.3l-30.9,3.8
				c-2.3,0.3-4.4,1-6.3,2.1C201.1,342.7,206,349.4,215.3,351z"/>
			
				<ellipse transform="matrix(0.9874 -0.1584 0.1584 0.9874 -52.2909 41.8705)" class="st23" cx="236.5" cy="349" rx="7.3" ry="8.5"/>
			
				<ellipse transform="matrix(0.9874 -0.1584 0.1584 0.9874 -52.2223 42.1527)" class="st5" cx="238.3" cy="348.7" rx="5.3" ry="8.5"/>
		</g>
	</g>
</g>
</svg>
