<?xml version="1.0" encoding="utf-8"?>
<!-- Generator: Adobe Illustrator 21.1.0, SVG Export Plug-In . SVG Version: 6.00 Build 0)  -->
<svg version="1.1" id="Layer_1" xmlns="http://www.w3.org/2000/svg" xmlns:xlink="http://www.w3.org/1999/xlink" x="0px" y="0px"
	 viewBox="0 0 2000 2000" style="enable-background:new 0 0 2000 2000;" xml:space="preserve">
<style type="text/css">
	.st0{display:none;}
	.st1{display:inline;}
	.st2{fill:#2BAFAF;}
	.st3{fill:#C2E1DB;}
	.st4{fill:#99D2D9;}
	.st5{fill:#0F3754;}
	.st6{fill:#154F78;}
	.st7{fill:#D8D8D8;}
	.st8{fill:#BCBCBC;}
	.st9{fill:#FFFFFF;}
	.st10{fill:#CCCBC9;}
	.st11{fill:#205978;}
	.st12{fill:#C7D9DD;}
	.st13{fill:#D9EDF4;}
	.st14{fill:#134371;}
	.st15{fill:#DB4B26;}
	.st16{fill:#D9D8D6;}
	.st17{fill:#D9A728;}
	.st18{fill:#BF902D;}
	.st19{fill:#FDD903;}
	.st20{fill:#D4B629;}
	.st21{fill:#FACA47;}
	.st22{fill:#DDB250;}
	.st23{fill:none;}
	.st24{fill:#60BA78;}
</style>
<g class="st0">
	<g class="st1">
		<g>
			<rect x="2.2" y="-1" class="st2" width="1997.8" height="2001"/>
		</g>
	</g>
</g>
<g>
	<g>
		<g>
			<g>
				<path class="st3" d="M1047.9,893.6H915.6c-13.9,0-25.2,11.3-25.2,25.2v100.7c0,13.9,11.3,25.2,25.2,25.2h132.4v-34.4V893.6z"/>
				<path class="st4" d="M1180.3,893.6h-132.4v116.8v34.4h132.4c13.9,0,25.2-11.3,25.2-25.2V918.8
					C1205.5,904.9,1194.3,893.6,1180.3,893.6z"/>
			</g>
		</g>
		<g>
			<path class="st5" d="M1220.6,2000V972.1c0-9.2-10.9-16.7-24.3-16.7h-151.6V2000H1220.6z"/>
			<path class="st6" d="M1044.8,955.4H893.1c-13.4,0-24.3,7.5-24.3,16.7V2000h175.9V955.4z"/>
		</g>
	</g>
	<g>
		<g>
			<g>
				<g>
					<path class="st7" d="M761.3,558c-5.1,8.9-5.3,19.9-0.3,28.8l17.2,37.1l113.8,245c3.7,6.6,10.7,10.8,18.3,10.8
						c36.6,0,165.7,0,244.3,0c34.6,0,62.7-28.1,62.7-62.7c0-71.4,0-264.8,0-309l-342.7-0.6c-0.5,0.2-1,120.7-1.5,120.9
						c-2.8,0.8-5.8,0.6-8.5-0.6c-2.1-0.9-3.9-2.2-5.2-4.1c-6.6-8.6-11.6-17.1-16-25.2c-8.7-16.2-14.5-30.8-23.5-40.8
						c-7.7-8.5-17.6-13.7-33.7-13.7C776.1,543.7,766.5,549.2,761.3,558z"/>
				</g>
			</g>
		</g>
	</g>
	<circle class="st3" cx="1173.1" cy="1030.9" r="24.5"/>
	<path class="st3" d="M1197.5,1163.9c0,13.5-11,24.5-24.5,24.5c-13.5,0-24.5-11-24.5-24.5c0-13.5,11-24.5,24.5-24.5
		C1186.6,1139.4,1197.5,1150.3,1197.5,1163.9z"/>
	<path class="st3" d="M1197.5,1097.4c0,13.5-11,24.5-24.5,24.5c-13.5,0-24.5-11-24.5-24.5c0-13.5,11-24.5,24.5-24.5
		C1186.6,1072.9,1197.5,1083.8,1197.5,1097.4z"/>
	<g>
		<rect x="351.5" y="571.2" class="st8" width="1313.9" height="34"/>
		<g>
			<circle class="st9" cx="451.6" cy="588.2" r="53.8"/>
			<circle class="st10" cx="451.6" cy="588.2" r="35.4"/>
		</g>
		<g>
			<circle class="st9" cx="1569.6" cy="588.2" r="53.8"/>
			<circle class="st10" cx="1569.6" cy="588.2" r="35.4"/>
		</g>
	</g>
	<g>
		<path class="st9" d="M869.7,512.5v86.3c0,22.7,19.2,41.2,42.8,41.2c23.5,0,42.8-18.6,42.8-41.2v-86.3c0-22.7-19.2-41.2-42.8-41.2
			C889,471.3,869.7,489.8,869.7,512.5z"/>
		<path class="st9" d="M957.1,512.5v86.3c0,22.7,19.2,41.2,42.8,41.2c23.5,0,42.8-18.6,42.8-41.2v-86.3c0-22.7-19.2-41.2-42.8-41.2
			C976.5,471.3,957.1,489.8,957.1,512.5z"/>
		<path class="st9" d="M1045.3,512.5v86.3c0,22.7,19.2,41.2,42.8,41.2c23.5,0,42.8-18.6,42.8-41.2v-86.3c0-22.7-19.2-41.2-42.8-41.2
			C1064.6,471.3,1045.3,489.8,1045.3,512.5z"/>
		<path class="st9" d="M1133.5,512.5v86.3c0,22.7,19.2,41.2,42.8,41.2c23.5,0,42.8-18.6,42.8-41.2v-86.3c0-22.7-19.2-41.2-42.8-41.2
			C1152.8,471.3,1133.5,489.8,1133.5,512.5z"/>
	</g>
	<path class="st9" d="M716.2,1057.9c-3.3,0-6.6-1.6-8.5-4.7L455,653.5l-256.8,395.8c-3,4.6-9.2,6-13.8,2.9c-4.6-3-6-9.2-2.9-13.8
		l265.3-408.9c1.9-2.9,5.1-4.6,8.4-4.6c3.4,0,6.6,1.8,8.4,4.7l261.2,413c3,4.7,1.6,10.8-3.1,13.8
		C719.9,1057.4,718.1,1057.9,716.2,1057.9z"/>
	<g>
		<path class="st9" d="M1831.7,1057.9c-3.3,0-6.6-1.6-8.5-4.7l-252.8-399.8l-256.8,395.8c-3,4.6-9.2,6-13.8,2.9
			c-4.6-3-6-9.2-2.9-13.8l265.3-408.9c1.9-2.9,5.1-4.6,8.4-4.6c3.4,0,6.6,1.8,8.4,4.7l261.2,413c3,4.7,1.6,10.8-3.1,13.8
			C1835.4,1057.4,1833.5,1057.9,1831.7,1057.9z"/>
	</g>
</g>
<g>
	<circle class="st11" cx="456.1" cy="974.6" r="273.6"/>
	<path class="st12" d="M645.4,828.5c1.2,10.5,1.8,21.1,1.8,31.8c0,156.8-127.1,284-284,284c-31.4,0-61.6-5.1-89.9-14.5
		c43.9,51.8,109.5,84.7,182.7,84.7c132.2,0,239.4-107.2,239.4-239.4C695.5,919.9,676.8,869,645.4,828.5z"/>
	<path class="st13" d="M647.2,860.4c0-10.8-0.6-21.4-1.8-31.8c-43.8-56.5-112.3-92.8-189.3-92.8c-132.2,0-239.4,107.2-239.4,239.4
		c0,59,21.3,113,56.7,154.7c28.2,9.4,58.5,14.5,89.9,14.5C520,1144.3,647.2,1017.2,647.2,860.4z"/>
	<g>
		<ellipse class="st14" cx="456.1" cy="763.6" rx="19.2" ry="19.2"/>
		<ellipse class="st14" cx="456.1" cy="1186.6" rx="19.2" ry="19.2"/>
	</g>
	<g>
		<ellipse class="st14" cx="667.5" cy="975.1" rx="19.2" ry="19.2"/>
		<path class="st14" d="M244.6,994.3c-10.6,0-19.2-8.6-19.2-19.2c0-10.6,8.6-19.2,19.2-19.2c10.6,0,19.2,8.6,19.2,19.2
			C263.8,985.7,255.2,994.3,244.6,994.3z"/>
	</g>
	<path class="st15" d="M367.7,797.6c0,6.6-5.3,11.9-11.9,11.9c-6.6,0-11.9-5.3-11.9-11.9c0-6.6,5.3-11.9,11.9-11.9
		C362.3,785.7,367.7,791,367.7,797.6z"/>
	<circle class="st15" cx="279" cy="882.3" r="11.9"/>
	<circle class="st15" cx="631" cy="1060.9" r="11.9"/>
	<path class="st15" d="M566.1,1145.5c0,6.6-5.3,11.9-11.9,11.9c-6.6,0-11.9-5.3-11.9-11.9c0-6.6,5.3-11.9,11.9-11.9
		C560.8,1133.6,566.1,1139,566.1,1145.5z"/>
	<circle class="st15" cx="284.3" cy="1062.2" r="11.9"/>
	<circle class="st15" cx="369" cy="1138.9" r="11.9"/>
	<circle class="st15" cx="547.6" cy="787" r="11.9"/>
	<circle class="st15" cx="632.3" cy="863.7" r="11.9"/>
	<path class="st14" d="M550.7,1116.8l-80.6-133.6c0.8-2,1.3-4.2,1.3-6.5v-1.1c0-9.3-7.6-16.9-16.9-16.9c-9.3,0-16.9,7.6-16.9,16.9
		v1.1c0,9.3,7.6,16.9,16.9,16.9c1.1,0,2.1-0.1,3.2-0.3l79.4,131.6c2.2,3.8,7.1,5,10.9,2.8C551.7,1125.4,553,1120.6,550.7,1116.8z"/>
	<path class="st15" d="M465.5,951.4c0-0.1,0-0.3,0-0.4V849.6c0-5.1-4.1-9.3-9.3-9.3c-5.1,0-9.3,4.1-9.3,9.3V951c0,0.1,0,0.3,0,0.4
		c-9.7,3.7-16.6,13.1-16.6,24.1c0,14.3,11.6,25.8,25.8,25.8c14.3,0,25.8-11.5,25.8-25.8C482.1,964.5,475.2,955.1,465.5,951.4z
		 M456.3,988.7c-7.3,0-13.2-5.9-13.2-13.2c0-7.3,5.9-13.2,13.2-13.2c7.3,0,13.2,5.9,13.2,13.2C469.5,982.8,463.6,988.7,456.3,988.7z
		"/>
</g>
<g>
	<path class="st16" d="M606.5,1030.7c-23.6,136.8-142.8,240.8-286.3,240.8c-9.3,0-18.5-0.5-27.6-1.3c45.3,33.4,100.6,53,160.2,53
		c154.1,0,279-131,279-292.5H606.5z"/>
	<path class="st9" d="M606.5,1030.7H173.8c0,99,47,186.6,118.8,239.5c9.1,0.9,18.3,1.3,27.6,1.3
		C463.7,1271.5,582.9,1167.4,606.5,1030.7z"/>
</g>
<g>
	<polygon class="st17" points="1824,1053.8 1824,914.4 1576,914 1576.1,1056.4 	"/>
	<g>
		<path class="st18" d="M1700,975c-68.5,0.1-123.9,25.4-123.9,56.5c0,31.2,55.4,56.4,123.9,56.5c68.5-0.1,123.9-25.4,123.9-56.5
			C1824,1000.3,1768.5,975.1,1700,975z"/>
		<path class="st19" d="M1700,984.4c-57.1,0.1-103.2,18.9-103.2,42.1c0,23.2,46.2,42,103.2,42.1c57.1-0.1,103.2-18.9,103.2-42.1
			C1803.3,1003.3,1757.1,984.5,1700,984.4z"/>
		<path class="st20" d="M1700,1069.3l-0.1-0.8v-0.8h0.1c1.6,0,3.2,0,4.8-0.1l0,1.7C1703.3,1069.3,1701.7,1069.3,1700,1069.3z
			 M1695,1069.3c-1.7,0-3.3-0.1-5-0.2l0.1-1.6c1.6,0.1,3.3,0.1,4.9,0.2L1695,1069.3z M1709.9,1069.1l-0.1-1.6c1.7-0.1,3.3-0.1,5-0.2
			l0.1,1.6C1713.2,1069,1711.6,1069.1,1709.9,1069.1z M1685,1068.9c-1.7-0.1-3.3-0.2-5-0.4l0.1-1.6c1.6,0.1,3.3,0.2,4.9,0.3
			L1685,1068.9z M1719.8,1068.5l-0.1-1.6c1.7-0.1,3.3-0.3,4.9-0.4l0.2,1.6C1723.2,1068.2,1721.5,1068.4,1719.8,1068.5z
			 M1675.1,1068.1c-1.7-0.2-3.3-0.4-5-0.6l0.2-1.6c1.6,0.2,3.3,0.4,4.9,0.6L1675.1,1068.1z M1729.8,1067.5l-0.2-1.6
			c1.7-0.2,3.3-0.4,4.9-0.6l0.2,1.6C1733.1,1067.1,1731.4,1067.3,1729.8,1067.5z M1665.2,1066.8c-1.7-0.3-3.3-0.5-4.9-0.8l0.3-1.6
			c1.6,0.3,3.2,0.5,4.9,0.8L1665.2,1066.8z M1739.6,1066.1l-0.3-1.6c1.6-0.3,3.3-0.6,4.9-0.9l0.3,1.6
			C1742.9,1065.5,1741.3,1065.8,1739.6,1066.1z M1655.3,1065.2c-1.7-0.3-3.3-0.7-4.9-1l0.4-1.6c1.6,0.3,3.2,0.7,4.8,1L1655.3,1065.2
			z M1749.4,1064.2l-0.4-1.6c1.6-0.4,3.2-0.7,4.8-1.2l0.4,1.6C1752.7,1063.4,1751.1,1063.8,1749.4,1064.2z M1645.6,1063
			c-1.6-0.4-3.2-0.9-4.8-1.3l0.5-1.6c1.6,0.5,3.2,0.9,4.8,1.3L1645.6,1063z M1759.1,1061.7l-0.4-1.6c1.6-0.5,3.2-0.9,4.7-1.4
			l0.5,1.6C1762.3,1060.8,1760.7,1061.3,1759.1,1061.7z M1636,1060.2c-1.6-0.5-3.2-1-4.7-1.6l0.6-1.5c1.5,0.5,3.1,1.1,4.7,1.6
			L1636,1060.2z M1768.6,1058.7l-0.6-1.5c1.6-0.6,3.1-1.2,4.6-1.8l0.6,1.5C1771.8,1057.5,1770.2,1058.1,1768.6,1058.7z
			 M1626.6,1056.8c-1.6-0.6-3.1-1.3-4.6-2l0.7-1.5c1.5,0.7,3,1.3,4.5,2L1626.6,1056.8z M1777.9,1054.9l-0.7-1.5
			c1.5-0.7,3-1.4,4.4-2.2l0.8,1.5C1781,1053.5,1779.4,1054.2,1777.9,1054.9z M1617.5,1052.6c-1.5-0.8-3-1.6-4.4-2.5l0.9-1.4
			c1.3,0.8,2.8,1.7,4.3,2.5L1617.5,1052.6z M1786.7,1050.2l-0.9-1.4c1.4-0.9,2.8-1.8,4.1-2.7l1,1.3
			C1789.6,1048.4,1788.2,1049.3,1786.7,1050.2z M1609,1047.3c-1.4-1.1-2.7-2.1-3.9-3.2l1.1-1.2c1.1,1,2.4,2.1,3.8,3.1L1609,1047.3z
			 M1794.8,1044.2l-1.1-1.2c1.3-1.1,2.4-2.3,3.4-3.5l1.3,1.1C1797.3,1041.8,1796.1,1043,1794.8,1044.2z M1601.6,1040.4
			c-1.2-1.4-2.1-2.8-2.9-4.2l1.4-0.8c0.8,1.3,1.7,2.7,2.7,3.9L1601.6,1040.4z M1801.3,1036.4l-1.4-0.8c0.8-1.4,1.5-2.9,1.9-4.4
			l1.6,0.5C1802.9,1033.3,1802.2,1034.9,1801.3,1036.4z M1596.7,1031.5c-0.5-1.7-0.7-3.4-0.7-5.1l1.6-0.1v0.1c0,1.5,0.2,3.1,0.6,4.6
			L1596.7,1031.5z M1804.1,1026.6l-1.6,0l0.8,0l-0.8-0.1c0-1.5-0.2-3-0.6-4.5l1.6-0.4c0.4,1.6,0.7,3.3,0.7,5V1026.6z M1598.3,1021.7
			l-1.6-0.5c0.5-1.6,1.1-3.2,2-4.7l1.4,0.8C1599.3,1018.8,1598.7,1020.3,1598.3,1021.7z M1800,1017.5c-0.7-1.3-1.7-2.7-2.7-4l1.3-1
			c1.1,1.4,2.1,2.8,2.9,4.2L1800,1017.5z M1602.9,1013.4l-1.3-1.1c1-1.2,2.2-2.5,3.5-3.6l1.1,1.2
			C1605,1011.1,1603.9,1012.3,1602.9,1013.4z M1794,1010.1c-1.1-1.1-2.4-2.1-3.8-3.1l1-1.3c1.4,1.1,2.7,2.1,3.9,3.2L1794,1010.1z
			 M1610,1006.9l-1-1.3c1.3-1,2.7-1.9,4.2-2.8l0.9,1.4C1612.7,1005,1611.3,1005.9,1610,1006.9z M1786.1,1004.2
			c-1.3-0.8-2.8-1.7-4.3-2.5l0.8-1.5c1.5,0.8,3,1.7,4.4,2.5L1786.1,1004.2z M1618.4,1001.7l-0.8-1.5c1.4-0.8,2.9-1.5,4.5-2.2
			l0.7,1.5C1621.3,1000.2,1619.8,1000.9,1618.4,1001.7z M1777.5,999.6c-1.5-0.7-3-1.4-4.5-2l0.6-1.5c1.6,0.6,3.1,1.3,4.6,2
			L1777.5,999.6z M1627.3,997.5l-0.6-1.5c1.5-0.6,3.1-1.2,4.7-1.8l0.6,1.5C1630.3,996.3,1628.8,996.9,1627.3,997.5z M1768.4,995.8
			c-1.5-0.5-3.1-1.1-4.7-1.6l0.5-1.6c1.6,0.5,3.2,1.1,4.7,1.6L1768.4,995.8z M1636.6,994.2l-0.5-1.6c1.6-0.5,3.2-1,4.8-1.4l0.5,1.6
			C1639.7,993.2,1638.1,993.7,1636.6,994.2z M1759,992.8c-1.6-0.4-3.1-0.9-4.8-1.3l0.4-1.6c1.6,0.4,3.2,0.9,4.8,1.3L1759,992.8z
			 M1646.1,991.5l-0.4-1.6c1.6-0.4,3.2-0.8,4.9-1.2l0.4,1.6C1649.3,990.7,1647.7,991.1,1646.1,991.5z M1749.4,990.4
			c-1.6-0.4-3.2-0.7-4.8-1l0.3-1.6c1.6,0.3,3.3,0.7,4.9,1L1749.4,990.4z M1655.7,989.3l-0.3-1.6c1.6-0.3,3.3-0.6,4.9-0.9l0.3,1.6
			C1659,988.7,1657.3,989,1655.7,989.3z M1739.7,988.5c-1.6-0.3-3.2-0.5-4.9-0.8l0.2-1.6c1.7,0.2,3.3,0.5,4.9,0.8L1739.7,988.5z
			 M1665.5,987.7l-0.2-1.6c1.6-0.2,3.3-0.5,4.9-0.7l0.2,1.6C1668.8,987.2,1667.1,987.4,1665.5,987.7z M1729.9,987
			c-1.6-0.2-3.3-0.4-4.9-0.6l0.2-1.6c1.7,0.2,3.3,0.3,5,0.6L1729.9,987z M1675.3,986.5l-0.2-1.6c1.6-0.2,3.3-0.3,5-0.5l0.1,1.6
			C1678.6,986.1,1676.9,986.3,1675.3,986.5z M1720,986c-1.6-0.1-3.3-0.3-4.9-0.4l0.1-1.6c1.7,0.1,3.3,0.2,5,0.3L1720,986z
			 M1685.2,985.7l-0.1-1.6c1.7-0.1,3.3-0.2,5-0.2l0.1,1.6C1688.5,985.5,1686.8,985.6,1685.2,985.7z M1710.1,985.4
			c-1.6-0.1-3.3-0.1-4.9-0.2l0-1.6c1.7,0,3.3,0.1,5,0.2L1710.1,985.4z M1695.1,985.3l0-1.6c1.7,0,3.3,0,5,0h0.2v1.6h-0.2
			C1698.4,985.2,1696.7,985.2,1695.1,985.3z"/>
	</g>
	<path class="st18" d="M1700,935c-68.5,0.1-123.9,25.4-123.9,56.5c0,31.2,55.4,56.4,123.9,56.5c68.5-0.1,123.9-18.9,123.9-56.5
		C1824,960.4,1768.5,935.1,1700,935z"/>
	<path class="st19" d="M1700,943.4c-57.1,0.1-103.2,18.9-103.2,42.1c0,23.2,46.2,42,103.2,42.1c57.1-0.1,103.2-18.9,103.2-42.1
		C1803.3,962.2,1757.1,943.4,1700,943.4z"/>
	<path class="st20" d="M1700,1028.3l-0.1-0.8v-0.8h0.1c1.6,0,3.2,0,4.8-0.1l0,1.6C1703.3,1028.3,1701.7,1028.3,1700,1028.3z
		 M1695,1028.2c-1.7,0-3.3-0.1-5-0.2l0.1-1.6c1.6,0.1,3.3,0.1,4.9,0.1L1695,1028.2z M1709.9,1028.1l-0.1-1.6c1.7-0.1,3.3-0.1,5-0.2
		l0.1,1.6C1713.2,1027.9,1711.6,1028,1709.9,1028.1z M1685,1027.8c-1.7-0.1-3.3-0.2-5-0.3l0.1-1.6c1.6,0.1,3.3,0.2,4.9,0.4
		L1685,1027.8z M1719.8,1027.5l-0.1-1.6c1.7-0.1,3.3-0.3,4.9-0.4l0.2,1.6C1723.2,1027.2,1721.5,1027.4,1719.8,1027.5z M1675.1,1027
		c-1.7-0.2-3.3-0.4-5-0.6l0.2-1.6c1.6,0.2,3.3,0.4,4.9,0.5L1675.1,1027z M1729.8,1026.5l-0.2-1.6c1.7-0.2,3.3-0.4,4.9-0.6l0.2,1.6
		C1733.1,1026.1,1731.4,1026.3,1729.8,1026.5z M1665.2,1025.8c-1.7-0.2-3.3-0.5-4.9-0.8l0.3-1.6c1.6,0.3,3.2,0.5,4.9,0.8
		L1665.2,1025.8z M1739.6,1025.1l-0.3-1.6c1.6-0.3,3.3-0.6,4.9-0.9l0.3,1.6C1742.9,1024.5,1741.3,1024.8,1739.6,1025.1z
		 M1655.3,1024.1c-1.7-0.3-3.3-0.7-4.9-1l0.4-1.6c1.6,0.4,3.2,0.7,4.8,1L1655.3,1024.1z M1749.4,1023.2l-0.4-1.6
		c1.6-0.4,3.2-0.7,4.8-1.1l0.4,1.6C1752.7,1022.4,1751.1,1022.8,1749.4,1023.2z M1645.6,1022c-1.6-0.4-3.2-0.8-4.8-1.3l0.5-1.6
		c1.6,0.4,3.2,0.9,4.8,1.3L1645.6,1022z M1759.1,1020.7l-0.4-1.6c1.6-0.5,3.2-0.9,4.7-1.4l0.5,1.6
		C1762.3,1019.8,1760.7,1020.3,1759.1,1020.7z M1636,1019.2c-1.6-0.5-3.2-1.1-4.7-1.6l0.6-1.5c1.5,0.5,3.1,1.1,4.7,1.6L1636,1019.2z
		 M1768.6,1017.7l-0.6-1.6c1.6-0.6,3.1-1.2,4.6-1.8l0.6,1.5C1771.8,1016.5,1770.2,1017.1,1768.6,1017.7z M1626.6,1015.8
		c-1.6-0.6-3.1-1.3-4.6-2l0.7-1.5c1.5,0.7,3,1.3,4.5,2L1626.6,1015.8z M1777.9,1013.9l-0.7-1.5c1.5-0.7,3-1.4,4.4-2.2l0.8,1.5
		C1781,1012.4,1779.4,1013.2,1777.9,1013.9z M1617.5,1011.6c-1.5-0.8-3-1.7-4.4-2.5l0.9-1.4c1.3,0.8,2.8,1.7,4.3,2.4L1617.5,1011.6z
		 M1786.7,1009.2l-0.9-1.4c1.4-0.9,2.8-1.8,4.1-2.7l1,1.3C1789.6,1007.3,1788.2,1008.3,1786.7,1009.2z M1609,1006.3
		c-1.4-1-2.7-2.1-3.9-3.2l1.1-1.2c1.1,1,2.4,2.1,3.8,3.1L1609,1006.3z M1794.8,1003.2l-1.1-1.2c1.3-1.1,2.4-2.3,3.4-3.5l1.3,1.1
		C1797.3,1000.8,1796.1,1002,1794.8,1003.2z M1601.6,999.4c-1.2-1.4-2.1-2.8-2.9-4.2l1.4-0.8c0.8,1.3,1.7,2.7,2.7,4L1601.6,999.4z
		 M1801.3,995.4l-1.4-0.8c0.8-1.4,1.5-2.9,1.9-4.4l1.6,0.5C1802.9,992.3,1802.2,993.8,1801.3,995.4z M1596.7,990.5
		c-0.5-1.7-0.7-3.4-0.7-5.1l1.6,0v0c0,1.5,0.2,3.1,0.6,4.6L1596.7,990.5z M1804.1,985.6l-1.6,0l0.8,0l-0.8-0.2c0-1.5-0.2-3-0.6-4.5
		l1.6-0.4c0.4,1.6,0.7,3.3,0.7,5V985.6z M1598.3,980.7l-1.6-0.4c0.5-1.6,1.1-3.2,2-4.7l1.4,0.8
		C1599.3,977.8,1598.7,979.3,1598.3,980.7z M1800,976.5c-0.7-1.3-1.7-2.7-2.7-3.9l1.3-1c1.1,1.4,2.1,2.8,2.9,4.2L1800,976.5z
		 M1602.9,972.4l-1.3-1.1c1-1.2,2.2-2.5,3.5-3.6l1.1,1.2C1605,970.1,1603.9,971.2,1602.9,972.4z M1794,969.1c-1.1-1-2.4-2.1-3.8-3.1
		l1-1.3c1.4,1.1,2.7,2.1,3.9,3.2L1794,969.1z M1610,965.8l-1-1.3c1.3-0.9,2.7-1.9,4.2-2.8l0.9,1.4
		C1612.7,964,1611.3,964.9,1610,965.8z M1786.1,963.2c-1.3-0.8-2.8-1.7-4.3-2.5l0.8-1.5c1.5,0.8,3,1.7,4.4,2.5L1786.1,963.2z
		 M1618.4,960.7l-0.8-1.5c1.4-0.8,2.9-1.5,4.5-2.2l0.7,1.5C1621.3,959.2,1619.8,959.9,1618.4,960.7z M1777.5,958.6
		c-1.5-0.7-3-1.4-4.5-2l0.6-1.5c1.6,0.6,3.1,1.3,4.6,2L1777.5,958.6z M1627.3,956.5l-0.6-1.5c1.5-0.6,3.1-1.2,4.7-1.8l0.6,1.6
		C1630.3,955.3,1628.8,955.9,1627.3,956.5z M1768.4,954.8c-1.5-0.6-3.1-1.1-4.7-1.6l0.5-1.6c1.6,0.5,3.2,1.1,4.7,1.6L1768.4,954.8z
		 M1636.6,953.1l-0.5-1.6c1.6-0.5,3.2-1,4.8-1.4l0.5,1.6C1639.7,952.2,1638.1,952.7,1636.6,953.1z M1759,951.8
		c-1.6-0.4-3.1-0.9-4.8-1.3l0.4-1.6c1.6,0.4,3.2,0.9,4.8,1.3L1759,951.8z M1646.1,950.4l-0.4-1.6c1.6-0.4,3.2-0.8,4.9-1.2l0.4,1.6
		C1649.3,949.7,1647.7,950.1,1646.1,950.4z M1749.4,949.4c-1.6-0.4-3.2-0.7-4.8-1l0.3-1.6c1.6,0.3,3.3,0.7,4.9,1L1749.4,949.4z
		 M1655.7,948.3l-0.3-1.6c1.6-0.3,3.3-0.6,4.9-0.9l0.3,1.6C1659,947.7,1657.3,948,1655.7,948.3z M1739.7,947.4
		c-1.6-0.3-3.2-0.5-4.9-0.8l0.2-1.6c1.7,0.2,3.3,0.5,4.9,0.8L1739.7,947.4z M1665.5,946.6l-0.2-1.6c1.6-0.2,3.3-0.5,4.9-0.7l0.2,1.6
		C1668.8,946.2,1667.1,946.4,1665.5,946.6z M1729.9,946c-1.6-0.2-3.3-0.4-4.9-0.6l0.2-1.6c1.7,0.2,3.3,0.4,5,0.6L1729.9,946z
		 M1675.3,945.4l-0.2-1.6c1.6-0.2,3.3-0.3,5-0.5l0.1,1.6C1678.6,945.1,1676.9,945.3,1675.3,945.4z M1720,945
		c-1.6-0.1-3.3-0.3-4.9-0.4l0.1-1.6c1.7,0.1,3.3,0.2,5,0.4L1720,945z M1685.2,944.6l-0.1-1.6c1.7-0.1,3.3-0.2,5-0.3l0.1,1.6
		C1688.5,944.5,1686.8,944.5,1685.2,944.6z M1710.1,944.4c-1.6-0.1-3.3-0.1-4.9-0.2l0-1.6c1.7,0,3.3,0.1,5,0.2L1710.1,944.4z
		 M1695.1,944.2l0-1.6c1.7,0,3.3-0.1,5-0.1h0.2v1.7h-0.2C1698.4,944.2,1696.7,944.2,1695.1,944.2z"/>
	<g>
		<path class="st18" d="M1700,904c-68.5,0.1-123.9,25.4-123.9,56.5c0,31.2,55.4,56.4,123.9,56.5c68.5-0.1,123.9-25.4,123.9-56.5
			C1824,929.4,1768.5,904.1,1700,904z"/>
		<path class="st19" d="M1700,913.5c-57.1,0.1-103.2,18.9-103.2,42c0,23.2,46.2,42,103.2,42.1c57.1-0.1,103.2-18.9,103.2-42.1
			C1803.3,932.3,1757.1,913.5,1700,913.5z"/>
		<path class="st20" d="M1700,998.4l-0.1-0.8v-0.8h0.1c1.6,0,3.2,0,4.8-0.1l0,1.6C1703.3,998.4,1701.7,998.4,1700,998.4z
			 M1695,998.4c-1.7,0-3.3-0.1-5-0.1l0.1-1.7c1.6,0.1,3.3,0.1,4.9,0.1L1695,998.4z M1709.9,998.2l-0.1-1.6c1.7-0.1,3.3-0.2,5-0.2
			l0.1,1.6C1713.2,998.1,1711.6,998.1,1709.9,998.2z M1685,998c-1.7-0.1-3.3-0.2-5-0.3l0.1-1.6c1.6,0.1,3.3,0.3,4.9,0.3L1685,998z
			 M1719.8,997.6l-0.1-1.6c1.7-0.1,3.3-0.3,4.9-0.4l0.2,1.6C1723.2,997.3,1721.5,997.5,1719.8,997.6z M1675.1,997.1
			c-1.7-0.2-3.3-0.4-5-0.6l0.2-1.6c1.6,0.2,3.3,0.4,4.9,0.6L1675.1,997.1z M1729.8,996.6l-0.2-1.6c1.7-0.2,3.3-0.4,4.9-0.7l0.2,1.6
			C1733.1,996.2,1731.4,996.4,1729.8,996.6z M1665.2,995.9c-1.7-0.2-3.3-0.5-4.9-0.8l0.3-1.6c1.6,0.3,3.2,0.5,4.9,0.8L1665.2,995.9z
			 M1739.6,995.2l-0.3-1.6c1.6-0.3,3.3-0.6,4.9-0.9l0.3,1.6C1742.9,994.6,1741.3,994.9,1739.6,995.2z M1655.3,994.3
			c-1.7-0.3-3.3-0.7-4.9-1l0.4-1.6c1.6,0.4,3.2,0.7,4.8,1L1655.3,994.3z M1749.4,993.3l-0.4-1.6c1.6-0.4,3.2-0.8,4.8-1.1l0.4,1.6
			C1752.7,992.5,1751.1,992.9,1749.4,993.3z M1645.6,992.1c-1.6-0.4-3.2-0.8-4.8-1.3l0.5-1.6c1.6,0.4,3.2,0.9,4.8,1.3L1645.6,992.1z
			 M1759.1,990.8l-0.4-1.6c1.6-0.4,3.2-0.9,4.7-1.4l0.5,1.6C1762.3,989.9,1760.7,990.4,1759.1,990.8z M1636,989.3
			c-1.6-0.5-3.2-1.1-4.7-1.6l0.6-1.5c1.5,0.5,3.1,1.1,4.7,1.6L1636,989.3z M1768.6,987.8l-0.6-1.5c1.6-0.6,3.1-1.2,4.6-1.8l0.6,1.5
			C1771.8,986.6,1770.2,987.2,1768.6,987.8z M1626.6,985.9c-1.6-0.6-3.1-1.3-4.6-2l0.7-1.5c1.5,0.7,3,1.3,4.5,2L1626.6,985.9z
			 M1777.9,984l-0.7-1.5c1.5-0.7,3-1.4,4.4-2.2l0.8,1.5C1781,982.6,1779.4,983.3,1777.9,984z M1617.5,981.7c-1.5-0.8-3-1.6-4.4-2.5
			l0.9-1.4c1.3,0.8,2.8,1.7,4.3,2.4L1617.5,981.7z M1786.7,979.3l-0.9-1.4c1.4-0.9,2.8-1.8,4.1-2.7l1,1.3
			C1789.6,977.5,1788.2,978.4,1786.7,979.3z M1609,976.4c-1.4-1-2.7-2.1-3.9-3.2l1.1-1.2c1.1,1,2.4,2.1,3.8,3.1L1609,976.4z
			 M1794.8,973.3l-1.1-1.2c1.3-1.1,2.4-2.3,3.4-3.5l1.3,1.1C1797.3,970.9,1796.1,972.1,1794.8,973.3z M1601.6,969.5
			c-1.2-1.4-2.1-2.8-2.9-4.2l1.4-0.8c0.8,1.3,1.7,2.7,2.7,4L1601.6,969.5z M1801.3,965.5l-1.4-0.8c0.8-1.4,1.5-2.9,1.9-4.4l1.6,0.5
			C1802.9,962.4,1802.2,964,1801.3,965.5z M1596.7,960.6c-0.5-1.7-0.7-3.4-0.7-5.1l1.6,0v0c0,1.5,0.2,3.1,0.6,4.6L1596.7,960.6z
			 M1804.1,955.7l-1.6,0l0.8,0l-0.8-0.2c0-1.5-0.2-3-0.6-4.5l1.6-0.4c0.4,1.6,0.7,3.3,0.7,5V955.7z M1598.3,950.8l-1.6-0.5
			c0.5-1.6,1.1-3.2,2-4.7l1.4,0.8C1599.3,947.9,1598.7,949.4,1598.3,950.8z M1800,946.6c-0.7-1.3-1.7-2.7-2.7-3.9l1.3-1
			c1.1,1.4,2.1,2.8,2.9,4.2L1800,946.6z M1602.9,942.5l-1.3-1.1c1-1.2,2.2-2.5,3.5-3.6l1.1,1.2
			C1605,940.2,1603.9,941.3,1602.9,942.5z M1794,939.2c-1.1-1-2.4-2.1-3.8-3.1l1-1.3c1.4,1.1,2.7,2.1,3.9,3.2L1794,939.2z
			 M1610,935.9l-1-1.3c1.3-1,2.7-1.9,4.2-2.8l0.9,1.4C1612.7,934.1,1611.3,935,1610,935.9z M1786.1,933.3c-1.3-0.8-2.8-1.7-4.3-2.5
			l0.8-1.4c1.5,0.8,3,1.7,4.4,2.5L1786.1,933.3z M1618.4,930.8l-0.8-1.5c1.4-0.8,2.9-1.5,4.5-2.2l0.7,1.5
			C1621.3,929.3,1619.8,930,1618.4,930.8z M1777.5,928.7c-1.5-0.7-3-1.4-4.5-2l0.6-1.5c1.6,0.6,3.1,1.3,4.6,2L1777.5,928.7z
			 M1627.3,926.6l-0.6-1.5c1.5-0.6,3.1-1.2,4.7-1.8l0.6,1.5C1630.3,925.4,1628.8,926,1627.3,926.6z M1768.4,924.9
			c-1.5-0.5-3.1-1.1-4.7-1.6l0.5-1.6c1.6,0.5,3.2,1.1,4.7,1.6L1768.4,924.9z M1636.6,923.3l-0.5-1.6c1.6-0.5,3.2-1,4.8-1.4l0.5,1.6
			C1639.7,922.3,1638.1,922.8,1636.6,923.3z M1759,921.9c-1.6-0.4-3.1-0.9-4.8-1.3l0.4-1.6c1.6,0.4,3.2,0.8,4.8,1.3L1759,921.9z
			 M1646.1,920.6l-0.4-1.6c1.6-0.4,3.2-0.8,4.9-1.2l0.4,1.6C1649.3,919.8,1647.7,920.2,1646.1,920.6z M1749.4,919.5
			c-1.6-0.4-3.2-0.7-4.8-1l0.3-1.6c1.6,0.3,3.3,0.7,4.9,1L1749.4,919.5z M1655.7,918.4l-0.3-1.6c1.6-0.3,3.3-0.6,4.9-0.9l0.3,1.6
			C1659,917.8,1657.3,918.1,1655.7,918.4z M1739.7,917.6c-1.6-0.3-3.2-0.5-4.9-0.8l0.2-1.6c1.7,0.2,3.3,0.5,4.9,0.8L1739.7,917.6z
			 M1665.5,916.7l-0.2-1.6c1.6-0.2,3.3-0.5,4.9-0.7l0.2,1.6C1668.8,916.3,1667.1,916.5,1665.5,916.7z M1729.9,916.1
			c-1.6-0.2-3.3-0.4-4.9-0.6l0.2-1.6c1.7,0.2,3.3,0.4,5,0.6L1729.9,916.1z M1675.3,915.5l-0.2-1.6c1.6-0.2,3.3-0.3,5-0.5l0.1,1.6
			C1678.6,915.2,1676.9,915.4,1675.3,915.5z M1720,915.1c-1.6-0.1-3.3-0.2-4.9-0.3l0.1-1.6c1.7,0.1,3.3,0.2,5,0.4L1720,915.1z
			 M1685.2,914.8l-0.1-1.6c1.7-0.1,3.3-0.2,5-0.3l0.1,1.7C1688.5,914.6,1686.8,914.7,1685.2,914.8z M1710.1,914.5
			c-1.6-0.1-3.3-0.1-4.9-0.1l0-1.6c1.7,0,3.3,0.1,5,0.2L1710.1,914.5z M1695.1,914.3l0-1.6c1.7,0,3.3,0,5-0.1h0.2v1.7h-0.2
			C1698.4,914.3,1696.7,914.3,1695.1,914.3z"/>
	</g>
	<g>
		<path class="st18" d="M1700,875.3c-68.5,0.1-123.9,25.4-123.9,56.5c0,31.2,55.4,56.4,123.9,56.5c68.5-0.1,123.9-25.4,123.9-56.5
			C1824,900.6,1768.5,875.4,1700,875.3z"/>
		<path class="st19" d="M1700,884.7c-57.1,0.1-103.2,18.9-103.2,42.1c0,23.2,46.2,42,103.2,42.1c57.1-0.1,103.2-18.9,103.2-42.1
			C1803.3,903.6,1757.1,884.8,1700,884.7z"/>
		<path class="st20" d="M1700,969.6l-0.1-0.8V968h0.1c1.6,0,3.2,0,4.8-0.1l0,1.6C1703.3,969.6,1701.7,969.6,1700,969.6z M1695,969.6
			c-1.7,0-3.3-0.1-5-0.2l0.1-1.6c1.6,0.1,3.3,0.1,4.9,0.2L1695,969.6z M1709.9,969.4l-0.1-1.6c1.7-0.1,3.3-0.2,5-0.2l0.1,1.6
			C1713.2,969.3,1711.6,969.4,1709.9,969.4z M1685,969.2c-1.7-0.1-3.3-0.2-5-0.3l0.1-1.6c1.6,0.1,3.3,0.2,4.9,0.3L1685,969.2z
			 M1719.8,968.8l-0.1-1.6c1.7-0.1,3.3-0.3,4.9-0.4l0.2,1.6C1723.2,968.6,1721.5,968.7,1719.8,968.8z M1675.1,968.4
			c-1.7-0.2-3.3-0.3-5-0.6l0.2-1.6c1.6,0.2,3.3,0.4,4.9,0.6L1675.1,968.4z M1729.8,967.8l-0.2-1.6c1.7-0.2,3.3-0.4,4.9-0.7l0.2,1.6
			C1733.1,967.4,1731.4,967.6,1729.8,967.8z M1665.2,967.1c-1.7-0.2-3.3-0.5-4.9-0.8l0.3-1.6c1.6,0.3,3.2,0.5,4.9,0.8L1665.2,967.1z
			 M1739.6,966.4l-0.3-1.6c1.6-0.3,3.3-0.6,4.9-0.9l0.3,1.6C1742.9,965.8,1741.3,966.1,1739.6,966.4z M1655.3,965.5
			c-1.7-0.3-3.3-0.7-4.9-1l0.4-1.6c1.6,0.4,3.2,0.7,4.8,1L1655.3,965.5z M1749.4,964.5l-0.4-1.6c1.6-0.4,3.2-0.7,4.8-1.1l0.4,1.6
			C1752.7,963.8,1751.1,964.1,1749.4,964.5z M1645.6,963.3c-1.6-0.4-3.2-0.8-4.8-1.3l0.5-1.6c1.6,0.4,3.2,0.9,4.8,1.3L1645.6,963.3z
			 M1759.1,962.1l-0.4-1.6c1.6-0.5,3.2-0.9,4.7-1.4l0.5,1.6C1762.3,961.1,1760.7,961.6,1759.1,962.1z M1636,960.6
			c-1.6-0.5-3.2-1.1-4.7-1.6l0.6-1.6c1.5,0.5,3.1,1.1,4.7,1.6L1636,960.6z M1768.6,959l-0.6-1.6c1.6-0.6,3.1-1.2,4.6-1.8l0.6,1.5
			C1771.8,957.8,1770.2,958.4,1768.6,959z M1626.6,957.2c-1.6-0.6-3.1-1.3-4.6-2l0.7-1.5c1.5,0.7,3,1.3,4.5,2L1626.6,957.2z
			 M1777.9,955.2l-0.7-1.5c1.5-0.7,3-1.4,4.4-2.2l0.8,1.4C1781,953.8,1779.4,954.5,1777.9,955.2z M1617.5,952.9
			c-1.5-0.8-3-1.6-4.4-2.5l0.9-1.4c1.3,0.8,2.8,1.7,4.3,2.5L1617.5,952.9z M1786.7,950.5l-0.9-1.4c1.4-0.9,2.8-1.8,4.1-2.7l1,1.3
			C1789.6,948.7,1788.2,949.6,1786.7,950.5z M1609,947.6c-1.4-1-2.7-2.1-3.9-3.2l1.1-1.2c1.1,1,2.4,2.1,3.8,3.1L1609,947.6z
			 M1794.8,944.5l-1.1-1.2c1.3-1.1,2.4-2.3,3.4-3.5l1.3,1.1C1797.3,942.1,1796.1,943.4,1794.8,944.5z M1601.6,940.7
			c-1.2-1.4-2.1-2.8-2.9-4.2l1.4-0.8c0.8,1.3,1.7,2.6,2.7,3.9L1601.6,940.7z M1801.3,936.7l-1.4-0.8c0.8-1.4,1.5-2.9,1.9-4.4
			l1.6,0.5C1802.9,933.6,1802.2,935.2,1801.3,936.7z M1596.7,931.8c-0.5-1.7-0.7-3.4-0.7-5.1l1.6-0.1v0.1c0,1.5,0.2,3.1,0.6,4.6
			L1596.7,931.8z M1804.1,926.9l-1.6,0l0.8,0l-0.8-0.2c0-1.5-0.2-3-0.6-4.5l1.6-0.4c0.4,1.6,0.7,3.3,0.7,5V926.9z M1598.3,922.1
			l-1.6-0.5c0.5-1.6,1.1-3.2,2-4.7l1.4,0.8C1599.3,919.1,1598.7,920.6,1598.3,922.1z M1800,917.9c-0.7-1.3-1.7-2.7-2.7-4l1.3-1
			c1.1,1.4,2.1,2.8,2.9,4.2L1800,917.9z M1602.9,913.8l-1.3-1.1c1-1.2,2.2-2.5,3.5-3.6l1.1,1.2
			C1605,911.4,1603.9,912.6,1602.9,913.8z M1794,910.4c-1.1-1.1-2.4-2.1-3.8-3.1l1-1.3c1.4,1,2.7,2.1,3.9,3.2L1794,910.4z
			 M1610,907.2l-1-1.3c1.3-1,2.7-1.9,4.2-2.8l0.9,1.4C1612.7,905.3,1611.3,906.3,1610,907.2z M1786.1,904.5
			c-1.3-0.8-2.8-1.7-4.3-2.5l0.8-1.4c1.5,0.8,3,1.7,4.4,2.5L1786.1,904.5z M1618.4,902l-0.8-1.4c1.4-0.8,2.9-1.5,4.5-2.2l0.7,1.5
			C1621.3,900.5,1619.8,901.2,1618.4,902z M1777.5,899.9c-1.5-0.7-3-1.4-4.5-2l0.6-1.5c1.6,0.6,3.1,1.3,4.6,2L1777.5,899.9z
			 M1627.3,897.8l-0.6-1.5c1.5-0.6,3.1-1.2,4.7-1.8l0.6,1.6C1630.3,896.6,1628.8,897.2,1627.3,897.8z M1768.4,896.1
			c-1.5-0.5-3.1-1.1-4.7-1.6l0.5-1.6c1.6,0.5,3.2,1.1,4.7,1.6L1768.4,896.1z M1636.6,894.5l-0.5-1.6c1.6-0.5,3.2-1,4.8-1.4l0.5,1.6
			C1639.7,893.5,1638.1,894,1636.6,894.5z M1759,893.1c-1.6-0.4-3.1-0.9-4.8-1.3l0.4-1.6c1.6,0.4,3.2,0.9,4.8,1.3L1759,893.1z
			 M1646.1,891.8l-0.4-1.6c1.6-0.4,3.2-0.8,4.9-1.2l0.4,1.6C1649.3,891,1647.7,891.4,1646.1,891.8z M1749.4,890.7
			c-1.6-0.3-3.2-0.7-4.8-1l0.3-1.6c1.6,0.3,3.3,0.7,4.9,1L1749.4,890.7z M1655.7,889.6l-0.3-1.6c1.6-0.3,3.3-0.6,4.9-0.9l0.3,1.6
			C1659,889,1657.3,889.3,1655.7,889.6z M1739.7,888.8c-1.6-0.3-3.2-0.5-4.9-0.8l0.2-1.6c1.7,0.2,3.3,0.5,4.9,0.8L1739.7,888.8z
			 M1665.5,888l-0.2-1.6c1.6-0.2,3.3-0.5,4.9-0.7l0.2,1.6C1668.8,887.5,1667.1,887.8,1665.5,888z M1729.9,887.3
			c-1.6-0.2-3.3-0.4-4.9-0.6l0.2-1.6c1.7,0.2,3.3,0.4,5,0.6L1729.9,887.3z M1675.3,886.8l-0.2-1.6c1.6-0.2,3.3-0.3,5-0.5l0.1,1.6
			C1678.6,886.5,1676.9,886.6,1675.3,886.8z M1720,886.3c-1.6-0.1-3.3-0.2-4.9-0.3l0.1-1.7c1.7,0.1,3.3,0.2,5,0.4L1720,886.3z
			 M1685.2,886l-0.1-1.6c1.7-0.1,3.3-0.2,5-0.3l0.1,1.7C1688.5,885.8,1686.8,885.9,1685.2,886z M1710.1,885.7
			c-1.6-0.1-3.3-0.1-4.9-0.2l0-1.6c1.7,0,3.3,0.1,5,0.2L1710.1,885.7z M1695.1,885.6l0-1.6c1.7,0,3.3-0.1,5-0.1h0.2v1.7h-0.2
			C1698.4,885.5,1696.7,885.5,1695.1,885.6z"/>
	</g>
	<g>
		<path class="st21" d="M1700,834.3c-68.5,0.1-123.9,25.4-123.9,56.5c0,31.2,55.4,56.4,123.9,56.5c68.5-0.1,123.9-25.4,123.9-56.5
			C1824,859.6,1768.5,834.4,1700,834.3z"/>
		<g>
			<path class="st22" d="M1801.4,1058.1c-6.5,4-14.1,7.6-22.6,10.7c-7,2.5-14.5,4.7-22.6,6.5c-7.2,1.6-14.7,3-22.6,4
				c-7.3,0.9-14.8,1.5-22.6,1.8c-3.6,0.1-7.3,0.2-11,0.2c-3.9,0-7.8-0.1-11.6-0.2c-7.8-0.3-15.3-1-22.6-1.9c-7.9-1-15.4-2.4-22.6-4
				c-8.1-1.8-15.6-4.1-22.6-6.6c-8.5-3.1-16.1-6.8-22.6-10.8c-11.2-7-18.9-15.1-22.1-23.9c0,7.6,0,23.2,0,30.3
				c3.6,8.3,11.3,16,22.1,22.7c6.5,4,14.1,7.7,22.6,10.9c7,2.6,14.5,4.9,22.6,6.8c7.2,1.7,14.7,3.1,22.6,4.2c7.3,1,14.8,1.7,22.6,2
				c3.8,0.2,7.7,0.3,11.6,0.3c3.7,0,7.4-0.1,11-0.2c7.7-0.3,15.3-1,22.6-2c7.9-1,15.4-2.4,22.6-4.1c8-1.9,15.6-4.2,22.6-6.8
				c8.5-3.2,16.1-6.8,22.6-10.8c11-6.8,18.9-14.6,22.6-23c0-7.1,0-22.6,0-30.3C1820.7,1042.8,1812.8,1051,1801.4,1058.1z"/>
			<path class="st22" d="M1801.4,1021.5c-6.5,4-14.1,7.6-22.6,10.7c-7,2.5-14.5,4.7-22.6,6.5c-7.2,1.6-14.7,3-22.6,3.9
				c-7.3,0.9-14.8,1.5-22.6,1.8c-3.6,0.1-7.3,0.2-11,0.2c-3.9,0-7.8-0.1-11.6-0.3c-7.8-0.3-15.3-1-22.6-1.9c-7.9-1-15.4-2.3-22.6-4
				c-8.1-1.8-15.6-4.1-22.6-6.6c-8.5-3.1-16.1-6.8-22.6-10.8c-11.2-7-18.9-15.1-22.1-23.9c0,7.6,0,23.2,0,30.3
				c3.6,8.2,11.3,16,22.1,22.7c6.5,4,14.1,7.7,22.6,10.9c7,2.6,14.5,4.9,22.6,6.8c7.2,1.7,14.7,3.1,22.6,4.2c7.3,1,14.8,1.7,22.6,2
				c3.8,0.2,7.7,0.3,11.6,0.3c3.7,0,7.4-0.1,11-0.2c7.7-0.3,15.3-1,22.6-2c7.9-1,15.4-2.4,22.6-4.1c8-1.9,15.6-4.2,22.6-6.7
				c8.5-3.2,16.1-6.8,22.6-10.8c11-6.8,18.9-14.6,22.6-23c0-7.1,0-23,0-30.6C1820.7,1005.8,1812.8,1014.5,1801.4,1021.5z"/>
			<path class="st22" d="M1801.4,987.1c-6.5,4-14.1,7.6-22.6,10.7c-7,2.5-14.5,4.7-22.6,6.5c-7.2,1.6-14.7,3-22.6,4
				c-7.3,0.9-14.8,1.5-22.6,1.8c-3.6,0.1-7.3,0.2-11,0.2c-3.9,0-7.8-0.1-11.6-0.3c-7.8-0.3-15.3-1-22.6-1.9c-7.9-1-15.4-2.4-22.6-4
				c-8.1-1.8-15.6-4.1-22.6-6.6c-8.5-3.1-16.1-6.8-22.6-10.8c-11.2-7-18.9-15.1-22.1-23.9c0,7.6,0,23.2,0,30.2
				c3.6,8.3,11.3,16,22.1,22.7c6.5,4,14.1,7.7,22.6,10.9c7,2.6,14.5,4.9,22.6,6.8c7.2,1.7,14.7,3.1,22.6,4.2c7.3,1,14.8,1.7,22.6,2
				c3.8,0.2,7.7,0.3,11.6,0.3c3.7,0,7.4-0.1,11-0.2c7.7-0.3,15.3-1,22.6-2c7.9-1,15.4-2.4,22.6-4.1c8-1.9,15.6-4.2,22.6-6.7
				c8.5-3.2,16.1-6.8,22.6-10.8c11-6.8,18.9-14.6,22.6-23c0-7.1,0-22.6,0-30.2C1820.7,971.9,1812.8,980.1,1801.4,987.1z"/>
			<path class="st22" d="M1801.4,952.8c-6.5,4-14.1,7.6-22.6,10.7c-7,2.5-14.5,4.7-22.6,6.5c-7.2,1.6-14.7,3-22.6,3.9
				c-7.3,0.9-14.8,1.5-22.6,1.8c-3.6,0.1-7.3,0.2-11,0.2c-3.9,0-7.8-0.1-11.6-0.3c-7.8-0.3-15.3-1-22.6-1.9c-7.9-1-15.4-2.4-22.6-4
				c-8.1-1.8-15.6-4.1-22.6-6.6c-8.5-3.1-16.1-6.8-22.6-10.8c-11.2-7-18.9-15.1-22.1-23.9c0,7.6,0,23.2,0,30.3
				c3.6,8.2,11.3,16,22.1,22.7c6.5,4,14.1,7.7,22.6,10.9c7,2.6,14.5,4.9,22.6,6.8c7.2,1.7,14.7,3.1,22.6,4.2c7.3,1,14.8,1.7,22.6,2
				c3.8,0.2,7.7,0.3,11.6,0.3c3.7,0,7.4-0.1,11-0.3c7.7-0.3,15.3-1,22.6-2c7.9-1,15.4-2.4,22.6-4.1c8-1.9,15.6-4.2,22.6-6.7
				c8.5-3.2,16.1-6.8,22.6-10.8c11-6.8,18.9-14.6,22.6-23c0-7.1,0-22.6,0-30.3C1820.7,937.5,1812.8,945.8,1801.4,952.8z"/>
			<path class="st22" d="M1801.4,917.3c-6.5,4-14.1,7.6-22.6,10.7c-7,2.5-14.5,4.7-22.6,6.5c-7.2,1.6-14.7,3-22.6,3.9
				c-7.3,0.9-14.8,1.5-22.6,1.9c-3.6,0.2-7.3,0.2-11,0.2c-3.9,0-7.8-0.1-11.6-0.2c-7.8-0.3-15.3-1-22.6-1.9c-7.9-1-15.4-2.4-22.6-4
				c-8.1-1.9-15.6-4.1-22.6-6.6c-8.5-3.1-16.1-6.8-22.6-10.8c-11.2-7-18.9-15.1-22.1-23.9c0,7.6,0,23.2,0,30.3
				c3.6,8.2,11.3,16,22.1,22.7c6.5,4,14.1,7.7,22.6,10.9c7,2.6,14.5,4.9,22.6,6.8c7.2,1.7,14.7,3.1,22.6,4.1c7.3,1,14.8,1.7,22.6,2
				c3.8,0.2,7.7,0.3,11.6,0.3c3.7,0,7.4-0.1,11-0.2c7.7-0.3,15.3-1,22.6-2c7.9-1,15.4-2.4,22.6-4.1c8-1.9,15.6-4.2,22.6-6.7
				c8.5-3.2,16.1-6.8,22.6-10.8c11-6.8,18.9-14.6,22.6-23c0-7.1,0-22.6,0-30.3C1820.7,902.1,1812.8,910.3,1801.4,917.3z"/>
		</g>
	</g>
	<path class="st22" d="M1700.5,930.9L1700.5,930.9c-53.2-0.1-109.7-15.5-109.7-44c0-28.5,56.5-44,109.7-44
		c53.2,0.1,109.7,15.5,109.7,44C1810.2,915.4,1753.7,930.8,1700.5,930.9z M1700.5,855c-57,0.1-96.8,16.8-96.8,31.8
		c0,15,39.7,31.7,96.8,31.8c57-0.1,96.8-16.8,96.8-31.8C1797.2,871.9,1757.5,855.1,1700.5,855z"/>
	<g>
		<path class="st22" d="M1776.8,888.8h-17.8c-0.6,5.7-3.9,11.3-8,14.5l-21.9-2.6c4.3-3.6,8.2-8.6,8.2-14.2c0-4.9-4.1-8.2-11.6-8.2
			c-7.1,0-11.6,2.7-16.3,9c-6.7,9.1-16.1,15.4-34.2,15.4c-16.4,0-29.3-5.3-33.3-14.4h-17.8V880h16.5c0.6-5.7,3.2-9.6,6.2-12.4
			l21.1,2.5c-2.1,2.2-6.4,6.1-6.4,12.3c0,5.5,5.2,7.3,10.5,7.3c6.2,0,10.1-3,16.1-10.2c7.8-10.2,18.1-14.2,35-14.2
			c16.6,0,30.8,5.4,34.6,15.2h19.1V888.8z"/>
	</g>
</g>
<g>
	<polygon class="st17" points="1567.2,1145.6 1567.3,1006.1 1319.3,1005.8 1319.4,1148.2 	"/>
	<g>
		<path class="st18" d="M1443.3,1066.7c-68.5,0.1-123.9,25.4-123.9,56.5c0,31.2,55.4,56.4,123.9,56.5
			c68.5-0.1,123.9-25.4,123.9-56.5C1567.2,1092.1,1511.8,1066.8,1443.3,1066.7z"/>
		<path class="st19" d="M1443.3,1076.2c-57.1,0.1-103.2,18.9-103.2,42.1c0,23.2,46.2,42,103.2,42.1c57.1-0.1,103.2-18.9,103.2-42.1
			C1546.6,1095,1500.4,1076.2,1443.3,1076.2z"/>
		<path class="st20" d="M1443.3,1161.1l-0.1-0.8v-0.8h0.1c1.6,0,3.2,0,4.8-0.1l0,1.7C1446.6,1161.1,1445,1161.1,1443.3,1161.1z
			 M1438.2,1161c-1.7,0-3.3-0.1-5-0.2l0.1-1.6c1.6,0.1,3.3,0.1,4.9,0.2L1438.2,1161z M1453.2,1160.9l-0.1-1.6c1.7-0.1,3.3-0.1,5-0.3
			l0.1,1.6C1456.5,1160.7,1454.9,1160.8,1453.2,1160.9z M1428.3,1160.6c-1.7-0.1-3.3-0.2-5-0.4l0.1-1.6c1.6,0.1,3.3,0.2,4.9,0.3
			L1428.3,1160.6z M1463.1,1160.3l-0.1-1.6c1.7-0.1,3.3-0.3,4.9-0.4l0.2,1.6C1466.5,1160,1464.8,1160.2,1463.1,1160.3z
			 M1418.3,1159.8c-1.7-0.2-3.3-0.4-5-0.6l0.2-1.6c1.6,0.2,3.3,0.4,4.9,0.6L1418.3,1159.8z M1473,1159.3l-0.2-1.6
			c1.7-0.2,3.3-0.4,4.9-0.6l0.2,1.6C1476.4,1158.9,1474.7,1159.1,1473,1159.3z M1408.4,1158.6c-1.7-0.3-3.3-0.5-4.9-0.8l0.3-1.6
			c1.6,0.3,3.2,0.5,4.9,0.8L1408.4,1158.6z M1482.9,1157.9l-0.3-1.6c1.6-0.3,3.3-0.6,4.9-0.9l0.3,1.6
			C1486.2,1157.3,1484.6,1157.6,1482.9,1157.9z M1398.6,1156.9c-1.7-0.3-3.3-0.7-4.9-1l0.4-1.6c1.6,0.3,3.2,0.7,4.8,1L1398.6,1156.9
			z M1492.7,1155.9l-0.3-1.6c1.6-0.4,3.2-0.7,4.8-1.2l0.4,1.6C1496,1155.2,1494.4,1155.6,1492.7,1155.9z M1388.9,1154.8
			c-1.6-0.4-3.2-0.9-4.8-1.3l0.5-1.6c1.6,0.5,3.2,0.9,4.8,1.3L1388.9,1154.8z M1502.4,1153.5l-0.4-1.6c1.6-0.5,3.2-0.9,4.7-1.4
			l0.5,1.6C1505.6,1152.6,1504,1153.1,1502.4,1153.5z M1379.3,1152c-1.6-0.5-3.2-1-4.7-1.6l0.6-1.5c1.5,0.5,3.1,1.1,4.7,1.6
			L1379.3,1152z M1511.9,1150.5l-0.6-1.5c1.6-0.6,3.1-1.2,4.6-1.8l0.6,1.5C1515.1,1149.3,1513.5,1149.9,1511.9,1150.5z
			 M1369.9,1148.6c-1.6-0.6-3.1-1.3-4.6-2l0.7-1.5c1.5,0.7,3,1.3,4.5,2L1369.9,1148.6z M1521.2,1146.7l-0.7-1.5
			c1.5-0.7,3-1.4,4.4-2.2l0.8,1.5C1524.2,1145.2,1522.7,1146,1521.2,1146.7z M1360.8,1144.4c-1.5-0.8-3-1.6-4.4-2.5l0.9-1.4
			c1.3,0.8,2.8,1.7,4.3,2.4L1360.8,1144.4z M1530,1142l-0.9-1.4c1.4-0.9,2.8-1.8,4.1-2.7l1,1.3
			C1532.9,1140.1,1531.5,1141.1,1530,1142z M1352.3,1139c-1.4-1.1-2.7-2.1-3.9-3.2l1.1-1.2c1.1,1,2.4,2.1,3.8,3.1L1352.3,1139z
			 M1538.1,1136l-1.1-1.2c1.3-1.1,2.4-2.3,3.4-3.5l1.3,1.1C1540.6,1133.6,1539.4,1134.8,1538.1,1136z M1344.9,1132.2
			c-1.2-1.4-2.1-2.8-2.9-4.2l1.4-0.8c0.8,1.3,1.7,2.7,2.7,4L1344.9,1132.2z M1544.6,1128.2l-1.4-0.8c0.8-1.4,1.5-2.9,1.9-4.4
			l1.6,0.5C1546.2,1125.1,1545.5,1126.6,1544.6,1128.2z M1340,1123.3c-0.5-1.7-0.7-3.4-0.7-5.1l1.6-0.1v0.1c0,1.5,0.2,3.1,0.6,4.6
			L1340,1123.3z M1547.4,1118.4l-1.6,0l0.8,0l-0.8-0.1c0-1.5-0.2-3-0.6-4.5l1.6-0.4c0.4,1.6,0.7,3.3,0.7,5V1118.4z M1341.6,1113.5
			l-1.6-0.5c0.5-1.6,1.1-3.2,2-4.7l1.4,0.8C1342.6,1110.6,1342,1112,1341.6,1113.5z M1543.3,1109.3c-0.7-1.3-1.7-2.7-2.7-4l1.3-1
			c1.1,1.4,2.1,2.8,2.9,4.2L1543.3,1109.3z M1346.2,1105.2l-1.3-1.1c1-1.2,2.2-2.5,3.5-3.7l1.1,1.2
			C1348.3,1102.9,1347.2,1104,1346.2,1105.2z M1537.2,1101.9c-1.1-1.1-2.4-2.1-3.8-3.1l1-1.3c1.4,1.1,2.7,2.1,3.9,3.2L1537.2,1101.9
			z M1353.3,1098.6l-1-1.3c1.3-1,2.7-1.9,4.2-2.8l0.9,1.4C1355.9,1096.8,1354.6,1097.7,1353.3,1098.6z M1529.4,1096
			c-1.3-0.8-2.8-1.7-4.3-2.5l0.8-1.5c1.5,0.8,3,1.7,4.4,2.5L1529.4,1096z M1361.6,1093.4l-0.8-1.5c1.4-0.8,2.9-1.5,4.5-2.2l0.7,1.5
			C1364.5,1092,1363,1092.7,1361.6,1093.4z M1520.8,1091.3c-1.5-0.7-3-1.4-4.5-2l0.6-1.5c1.6,0.6,3.1,1.3,4.6,2L1520.8,1091.3z
			 M1370.6,1089.3l-0.6-1.5c1.5-0.6,3.1-1.2,4.7-1.8l0.6,1.5C1373.6,1088.1,1372.1,1088.7,1370.6,1089.3z M1511.6,1087.6
			c-1.5-0.5-3.1-1.1-4.7-1.6l0.5-1.6c1.6,0.5,3.2,1.1,4.7,1.6L1511.6,1087.6z M1379.9,1085.9l-0.5-1.6c1.6-0.5,3.2-1,4.8-1.4
			l0.5,1.6C1383,1085,1381.4,1085.4,1379.9,1085.9z M1502.2,1084.6c-1.6-0.4-3.1-0.9-4.8-1.3l0.4-1.6c1.6,0.4,3.2,0.9,4.8,1.3
			L1502.2,1084.6z M1389.4,1083.2l-0.4-1.6c1.6-0.4,3.2-0.8,4.9-1.2l0.4,1.6C1392.5,1082.4,1390.9,1082.8,1389.4,1083.2z
			 M1492.6,1082.1c-1.6-0.4-3.2-0.7-4.8-1l0.3-1.6c1.6,0.3,3.3,0.7,4.9,1L1492.6,1082.1z M1399,1081.1l-0.3-1.6
			c1.6-0.3,3.3-0.6,4.9-0.9l0.3,1.6C1402.2,1080.5,1400.6,1080.8,1399,1081.1z M1482.9,1080.2c-1.6-0.3-3.2-0.5-4.9-0.8l0.2-1.6
			c1.7,0.2,3.3,0.5,4.9,0.8L1482.9,1080.2z M1408.8,1079.4l-0.2-1.6c1.6-0.2,3.3-0.5,4.9-0.7l0.2,1.6
			C1412,1079,1410.4,1079.2,1408.8,1079.4z M1473.2,1078.8c-1.6-0.2-3.3-0.4-4.9-0.6l0.2-1.6c1.7,0.2,3.3,0.3,5,0.6L1473.2,1078.8z
			 M1418.6,1078.2l-0.2-1.6c1.6-0.2,3.3-0.3,5-0.5l0.1,1.6C1421.9,1077.9,1420.2,1078.1,1418.6,1078.2z M1463.3,1077.8
			c-1.6-0.1-3.3-0.3-4.9-0.4l0.1-1.6c1.7,0.1,3.3,0.2,5,0.3L1463.3,1077.8z M1428.5,1077.4l-0.1-1.6c1.7-0.1,3.3-0.2,5-0.2l0.1,1.6
			C1431.8,1077.2,1430.1,1077.3,1428.5,1077.4z M1453.4,1077.2c-1.6-0.1-3.3-0.1-4.9-0.2l0-1.6c1.7,0,3.3,0.1,5,0.2L1453.4,1077.2z
			 M1438.4,1077l0-1.6c1.7,0,3.3,0,5,0h0.2v1.6h-0.2C1441.7,1077,1440,1077,1438.4,1077z"/>
	</g>
	<path class="st18" d="M1443.3,1026.8c-68.5,0.1-123.9,25.4-123.9,56.5c0,31.2,55.4,56.4,123.9,56.5c68.5-0.1,123.9-18.9,123.9-56.5
		C1567.2,1052.2,1511.8,1026.9,1443.3,1026.8z"/>
	<path class="st19" d="M1443.3,1035.1c-57.1,0.1-103.2,18.9-103.2,42.1c0,23.2,46.2,42,103.2,42.1c57.1-0.1,103.2-18.9,103.2-42.1
		C1546.6,1054,1500.4,1035.2,1443.3,1035.1z"/>
	<path class="st20" d="M1443.3,1120.1l-0.1-0.8v-0.8h0.1c1.6,0,3.2,0,4.8-0.1l0,1.6C1446.6,1120,1445,1120.1,1443.3,1120.1z
		 M1438.2,1120c-1.7,0-3.3-0.1-5-0.2l0.1-1.6c1.6,0.1,3.3,0.1,4.9,0.1L1438.2,1120z M1453.2,1119.9l-0.1-1.6c1.7-0.1,3.3-0.1,5-0.2
		l0.1,1.6C1456.5,1119.7,1454.9,1119.8,1453.2,1119.9z M1428.3,1119.6c-1.7-0.1-3.3-0.2-5-0.3l0.1-1.6c1.6,0.1,3.3,0.2,4.9,0.4
		L1428.3,1119.6z M1463.1,1119.3l-0.1-1.6c1.7-0.1,3.3-0.3,4.9-0.4l0.2,1.6C1466.5,1119,1464.8,1119.1,1463.1,1119.3z
		 M1418.3,1118.8c-1.7-0.2-3.3-0.4-5-0.6l0.2-1.6c1.6,0.2,3.3,0.4,4.9,0.5L1418.3,1118.8z M1473,1118.3l-0.2-1.6
		c1.7-0.2,3.3-0.4,4.9-0.6l0.2,1.6C1476.4,1117.9,1474.7,1118.1,1473,1118.3z M1408.4,1117.6c-1.7-0.2-3.3-0.5-4.9-0.8l0.3-1.6
		c1.6,0.3,3.2,0.5,4.9,0.8L1408.4,1117.6z M1482.9,1116.8l-0.3-1.6c1.6-0.3,3.3-0.6,4.9-0.9l0.3,1.6
		C1486.2,1116.3,1484.6,1116.6,1482.9,1116.8z M1398.6,1115.9c-1.7-0.3-3.3-0.7-4.9-1l0.4-1.6c1.6,0.4,3.2,0.7,4.8,1L1398.6,1115.9z
		 M1492.7,1114.9l-0.3-1.6c1.6-0.4,3.2-0.7,4.8-1.1l0.4,1.6C1496,1114.2,1494.4,1114.6,1492.7,1114.9z M1388.9,1113.7
		c-1.6-0.4-3.2-0.8-4.8-1.3l0.5-1.6c1.6,0.4,3.2,0.9,4.8,1.3L1388.9,1113.7z M1502.4,1112.5l-0.4-1.6c1.6-0.5,3.2-0.9,4.7-1.4
		l0.5,1.6C1505.6,1111.5,1504,1112,1502.4,1112.5z M1379.3,1111c-1.6-0.5-3.2-1.1-4.7-1.6l0.6-1.5c1.5,0.5,3.1,1.1,4.7,1.6
		L1379.3,1111z M1511.9,1109.5l-0.6-1.5c1.6-0.6,3.1-1.2,4.6-1.8l0.6,1.5C1515.1,1108.3,1513.5,1108.9,1511.9,1109.5z
		 M1369.9,1107.6c-1.6-0.6-3.1-1.3-4.6-2l0.7-1.5c1.5,0.7,3,1.3,4.5,2L1369.9,1107.6z M1521.2,1105.7l-0.7-1.5
		c1.5-0.7,3-1.4,4.4-2.2l0.8,1.5C1524.2,1104.2,1522.7,1105,1521.2,1105.7z M1360.8,1103.4c-1.5-0.8-3-1.7-4.4-2.5l0.9-1.4
		c1.3,0.8,2.8,1.7,4.3,2.5L1360.8,1103.4z M1530,1101l-0.9-1.4c1.4-0.9,2.8-1.8,4.1-2.7l1,1.3C1532.9,1099.1,1531.5,1100,1530,1101z
		 M1352.3,1098c-1.4-1-2.7-2.1-3.9-3.2l1.1-1.2c1.1,1,2.4,2.1,3.8,3.1L1352.3,1098z M1538.1,1095l-1.1-1.2c1.3-1.1,2.4-2.3,3.4-3.5
		l1.3,1.1C1540.6,1092.6,1539.4,1093.8,1538.1,1095z M1344.9,1091.2c-1.2-1.4-2.1-2.8-2.9-4.2l1.4-0.8c0.8,1.3,1.7,2.7,2.7,4
		L1344.9,1091.2z M1544.6,1087.2l-1.4-0.8c0.8-1.4,1.5-2.9,1.9-4.4l1.6,0.5C1546.2,1084,1545.5,1085.6,1544.6,1087.2z M1340,1082.2
		c-0.5-1.7-0.7-3.4-0.7-5.1l1.6,0v0c0,1.5,0.2,3.1,0.6,4.6L1340,1082.2z M1547.4,1077.3l-1.6,0l0.8,0l-0.8-0.2c0-1.5-0.2-3-0.6-4.5
		l1.6-0.4c0.4,1.6,0.7,3.3,0.7,5V1077.3z M1341.6,1072.5l-1.6-0.4c0.5-1.6,1.1-3.2,2-4.7l1.4,0.8
		C1342.6,1069.6,1342,1071,1341.6,1072.5z M1543.3,1068.3c-0.7-1.3-1.7-2.7-2.7-3.9l1.3-1c1.1,1.4,2.1,2.8,2.9,4.2L1543.3,1068.3z
		 M1346.2,1064.2l-1.3-1.1c1-1.2,2.2-2.5,3.5-3.6l1.1,1.2C1348.3,1061.8,1347.2,1063,1346.2,1064.2z M1537.2,1060.8
		c-1.1-1-2.4-2.1-3.8-3.1l1-1.3c1.4,1.1,2.7,2.1,3.9,3.2L1537.2,1060.8z M1353.3,1057.6l-1-1.3c1.3-0.9,2.7-1.9,4.2-2.8l0.9,1.4
		C1355.9,1055.8,1354.6,1056.7,1353.3,1057.6z M1529.4,1055c-1.3-0.8-2.8-1.7-4.3-2.5l0.8-1.5c1.5,0.8,3,1.7,4.4,2.5L1529.4,1055z
		 M1361.6,1052.4l-0.8-1.5c1.4-0.8,2.9-1.5,4.5-2.2l0.7,1.5C1364.5,1050.9,1363,1051.7,1361.6,1052.4z M1520.8,1050.3
		c-1.5-0.7-3-1.4-4.5-2l0.6-1.5c1.6,0.6,3.1,1.3,4.6,2L1520.8,1050.3z M1370.6,1048.3l-0.6-1.5c1.5-0.6,3.1-1.2,4.7-1.8l0.6,1.6
		C1373.6,1047.1,1372.1,1047.7,1370.6,1048.3z M1511.6,1046.6c-1.5-0.6-3.1-1.1-4.7-1.6l0.5-1.6c1.6,0.5,3.2,1.1,4.7,1.6
		L1511.6,1046.6z M1379.9,1044.9l-0.5-1.6c1.6-0.5,3.2-1,4.8-1.4l0.5,1.6C1383,1043.9,1381.4,1044.4,1379.9,1044.9z M1502.2,1043.5
		c-1.6-0.4-3.1-0.9-4.8-1.3l0.4-1.6c1.6,0.4,3.2,0.8,4.8,1.3L1502.2,1043.5z M1389.4,1042.2l-0.4-1.6c1.6-0.4,3.2-0.8,4.9-1.2
		l0.4,1.6C1392.5,1041.4,1390.9,1041.8,1389.4,1042.2z M1492.6,1041.1c-1.6-0.4-3.2-0.7-4.8-1l0.3-1.6c1.6,0.3,3.3,0.7,4.9,1
		L1492.6,1041.1z M1399,1040.1l-0.3-1.6c1.6-0.3,3.3-0.6,4.9-0.9l0.3,1.6C1402.2,1039.5,1400.6,1039.8,1399,1040.1z M1482.9,1039.2
		c-1.6-0.3-3.2-0.5-4.9-0.8l0.2-1.6c1.7,0.2,3.3,0.5,4.9,0.8L1482.9,1039.2z M1408.8,1038.4l-0.2-1.6c1.6-0.2,3.3-0.5,4.9-0.7
		l0.2,1.6C1412,1038,1410.4,1038.2,1408.8,1038.4z M1473.2,1037.8c-1.6-0.2-3.3-0.4-4.9-0.6l0.2-1.6c1.7,0.2,3.3,0.4,5,0.6
		L1473.2,1037.8z M1418.6,1037.2l-0.2-1.6c1.6-0.2,3.3-0.3,5-0.5l0.1,1.6C1421.9,1036.9,1420.2,1037,1418.6,1037.2z M1463.3,1036.8
		c-1.6-0.1-3.3-0.3-4.9-0.4l0.1-1.6c1.7,0.1,3.3,0.2,5,0.4L1463.3,1036.8z M1428.5,1036.4l-0.1-1.6c1.7-0.1,3.3-0.2,5-0.3l0.1,1.6
		C1431.8,1036.2,1430.1,1036.3,1428.5,1036.4z M1453.4,1036.2c-1.6-0.1-3.3-0.1-4.9-0.2l0-1.6c1.7,0,3.3,0.1,5,0.2L1453.4,1036.2z
		 M1438.4,1036l0-1.6c1.7,0,3.3-0.1,5-0.1h0.2v1.7h-0.2C1441.7,1036,1440,1036,1438.4,1036z"/>
	<g>
		<path class="st18" d="M1443.3,995.8c-68.5,0.1-123.9,25.4-123.9,56.5c0,31.2,55.4,56.4,123.9,56.5c68.5-0.1,123.9-25.4,123.9-56.5
			C1567.2,1021.2,1511.8,995.9,1443.3,995.8z"/>
		<path class="st19" d="M1443.3,1005.2c-57.1,0.1-103.2,18.9-103.2,42c0,23.2,46.2,42,103.2,42.1c57.1-0.1,103.2-18.9,103.2-42.1
			C1546.6,1024.1,1500.4,1005.3,1443.3,1005.2z"/>
		<path class="st20" d="M1443.3,1090.2l-0.1-0.8v-0.8h0.1c1.6,0,3.2,0,4.8-0.1l0,1.6C1446.6,1090.2,1445,1090.2,1443.3,1090.2z
			 M1438.2,1090.1c-1.7,0-3.3-0.1-5-0.1l0.1-1.7c1.6,0.1,3.3,0.1,4.9,0.1L1438.2,1090.1z M1453.2,1090l-0.1-1.6
			c1.7-0.1,3.3-0.2,5-0.2l0.1,1.6C1456.5,1089.8,1454.9,1089.9,1453.2,1090z M1428.3,1089.7c-1.7-0.1-3.3-0.2-5-0.3l0.1-1.6
			c1.6,0.1,3.3,0.3,4.9,0.3L1428.3,1089.7z M1463.1,1089.4l-0.1-1.6c1.7-0.1,3.3-0.3,4.9-0.4l0.2,1.6
			C1466.5,1089.1,1464.8,1089.3,1463.1,1089.4z M1418.3,1088.9c-1.7-0.2-3.3-0.4-5-0.6l0.2-1.6c1.6,0.2,3.3,0.4,4.9,0.6
			L1418.3,1088.9z M1473,1088.4l-0.2-1.6c1.7-0.2,3.3-0.4,4.9-0.7l0.2,1.6C1476.4,1088,1474.7,1088.2,1473,1088.4z M1408.4,1087.7
			c-1.7-0.2-3.3-0.5-4.9-0.8l0.3-1.6c1.6,0.3,3.2,0.5,4.9,0.8L1408.4,1087.7z M1482.9,1086.9l-0.3-1.6c1.6-0.3,3.3-0.6,4.9-0.9
			l0.3,1.6C1486.2,1086.4,1484.6,1086.7,1482.9,1086.9z M1398.6,1086c-1.7-0.3-3.3-0.7-4.9-1l0.4-1.6c1.6,0.4,3.2,0.7,4.8,1
			L1398.6,1086z M1492.7,1085l-0.3-1.6c1.6-0.4,3.2-0.8,4.8-1.1l0.4,1.6C1496,1084.3,1494.4,1084.7,1492.7,1085z M1388.9,1083.8
			c-1.6-0.4-3.2-0.8-4.8-1.3l0.5-1.6c1.6,0.4,3.2,0.9,4.8,1.3L1388.9,1083.8z M1502.4,1082.6l-0.4-1.6c1.6-0.4,3.2-0.9,4.7-1.4
			l0.5,1.6C1505.6,1081.7,1504,1082.1,1502.4,1082.6z M1379.3,1081.1c-1.6-0.5-3.2-1.1-4.7-1.6l0.6-1.5c1.5,0.5,3.1,1.1,4.7,1.6
			L1379.3,1081.1z M1511.9,1079.6l-0.6-1.5c1.6-0.6,3.1-1.2,4.6-1.8l0.6,1.5C1515.1,1078.4,1513.5,1079,1511.9,1079.6z
			 M1369.9,1077.7c-1.6-0.6-3.1-1.3-4.6-2l0.7-1.5c1.5,0.7,3,1.3,4.5,2L1369.9,1077.7z M1521.2,1075.8l-0.7-1.5
			c1.5-0.7,3-1.4,4.4-2.2l0.8,1.5C1524.2,1074.3,1522.7,1075.1,1521.2,1075.8z M1360.8,1073.5c-1.5-0.8-3-1.6-4.4-2.5l0.9-1.4
			c1.3,0.8,2.8,1.7,4.3,2.4L1360.8,1073.5z M1530,1071.1l-0.9-1.4c1.4-0.9,2.8-1.8,4.1-2.7l1,1.3
			C1532.9,1069.2,1531.5,1070.2,1530,1071.1z M1352.3,1068.1c-1.4-1-2.7-2.1-3.9-3.2l1.1-1.2c1.1,1,2.4,2.1,3.8,3.1L1352.3,1068.1z
			 M1538.1,1065.1l-1.1-1.2c1.3-1.1,2.4-2.3,3.4-3.5l1.3,1.1C1540.6,1062.7,1539.4,1063.9,1538.1,1065.1z M1344.9,1061.3
			c-1.2-1.4-2.1-2.8-2.9-4.2l1.4-0.8c0.8,1.3,1.7,2.7,2.7,4L1344.9,1061.3z M1544.6,1057.3l-1.4-0.8c0.8-1.4,1.5-2.9,1.9-4.4
			l1.6,0.5C1546.2,1054.1,1545.5,1055.7,1544.6,1057.3z M1340,1052.3c-0.5-1.7-0.7-3.4-0.7-5.1l1.6,0v0c0,1.5,0.2,3.1,0.6,4.6
			L1340,1052.3z M1547.4,1047.5l-1.6,0l0.8,0l-0.8-0.2c0-1.5-0.2-3-0.6-4.5l1.6-0.4c0.4,1.6,0.7,3.3,0.7,5V1047.5z M1341.6,1042.6
			l-1.6-0.5c0.5-1.6,1.1-3.2,2-4.7l1.4,0.8C1342.6,1039.7,1342,1041.1,1341.6,1042.6z M1543.3,1038.4c-0.7-1.3-1.7-2.7-2.7-3.9
			l1.3-1c1.1,1.4,2.1,2.8,2.9,4.2L1543.3,1038.4z M1346.2,1034.3l-1.3-1.1c1-1.2,2.2-2.5,3.5-3.6l1.1,1.2
			C1348.3,1031.9,1347.2,1033.1,1346.2,1034.3z M1537.2,1030.9c-1.1-1-2.4-2.1-3.8-3.1l1-1.3c1.4,1.1,2.7,2.1,3.9,3.2L1537.2,1030.9
			z M1353.3,1027.7l-1-1.3c1.3-1,2.7-1.9,4.2-2.8l0.9,1.4C1355.9,1025.9,1354.6,1026.8,1353.3,1027.7z M1529.4,1025.1
			c-1.3-0.8-2.8-1.7-4.3-2.5l0.8-1.4c1.5,0.8,3,1.7,4.4,2.5L1529.4,1025.1z M1361.6,1022.5l-0.8-1.5c1.4-0.8,2.9-1.5,4.5-2.2
			l0.7,1.5C1364.5,1021.1,1363,1021.8,1361.6,1022.5z M1520.8,1020.4c-1.5-0.7-3-1.4-4.5-2l0.6-1.5c1.6,0.6,3.1,1.3,4.6,2
			L1520.8,1020.4z M1370.6,1018.4l-0.6-1.5c1.5-0.6,3.1-1.2,4.7-1.8l0.6,1.5C1373.6,1017.2,1372.1,1017.8,1370.6,1018.4z
			 M1511.6,1016.7c-1.5-0.5-3.1-1.1-4.7-1.6l0.5-1.6c1.6,0.5,3.2,1.1,4.7,1.6L1511.6,1016.7z M1379.9,1015l-0.5-1.6
			c1.6-0.5,3.2-1,4.8-1.4l0.5,1.6C1383,1014.1,1381.4,1014.5,1379.9,1015z M1502.2,1013.7c-1.6-0.4-3.1-0.9-4.8-1.3l0.4-1.6
			c1.6,0.4,3.2,0.8,4.8,1.3L1502.2,1013.7z M1389.4,1012.3l-0.4-1.6c1.6-0.4,3.2-0.8,4.9-1.2l0.4,1.6
			C1392.5,1011.5,1390.9,1011.9,1389.4,1012.3z M1492.6,1011.2c-1.6-0.4-3.2-0.7-4.8-1l0.3-1.6c1.6,0.3,3.3,0.7,4.9,1L1492.6,1011.2
			z M1399,1010.2l-0.3-1.6c1.6-0.3,3.3-0.6,4.9-0.9l0.3,1.6C1402.2,1009.6,1400.6,1009.9,1399,1010.2z M1482.9,1009.3
			c-1.6-0.3-3.2-0.5-4.9-0.8l0.2-1.6c1.7,0.2,3.3,0.5,4.9,0.8L1482.9,1009.3z M1408.8,1008.5l-0.2-1.6c1.6-0.2,3.3-0.5,4.9-0.7
			l0.2,1.6C1412,1008.1,1410.4,1008.3,1408.8,1008.5z M1473.2,1007.9c-1.6-0.2-3.3-0.4-4.9-0.6l0.2-1.6c1.7,0.2,3.3,0.4,5,0.6
			L1473.2,1007.9z M1418.6,1007.3l-0.2-1.6c1.6-0.2,3.3-0.3,5-0.5l0.1,1.6C1421.9,1007,1420.2,1007.1,1418.6,1007.3z M1463.3,1006.9
			c-1.6-0.1-3.3-0.2-4.9-0.3l0.1-1.6c1.7,0.1,3.3,0.2,5,0.4L1463.3,1006.9z M1428.5,1006.5l-0.1-1.6c1.7-0.1,3.3-0.2,5-0.3l0.1,1.7
			C1431.8,1006.3,1430.1,1006.4,1428.5,1006.5z M1453.4,1006.3c-1.6-0.1-3.3-0.1-4.9-0.1l0-1.7c1.7,0,3.3,0.1,5,0.2L1453.4,1006.3z
			 M1438.4,1006.1l0-1.6c1.7,0,3.3,0,5-0.1h0.2v1.7h-0.2C1441.7,1006.1,1440,1006.1,1438.4,1006.1z"/>
	</g>
	<g>
		<path class="st18" d="M1443.3,967c-68.5,0.1-123.9,25.4-123.9,56.5c0,31.2,55.4,56.4,123.9,56.5c68.5-0.1,123.9-25.4,123.9-56.5
			C1567.2,992.4,1511.8,967.1,1443.3,967z"/>
		<path class="st19" d="M1443.3,976.5c-57.1,0.1-103.2,18.9-103.2,42.1c0,23.2,46.2,42,103.2,42.1c57.1-0.1,103.2-18.9,103.2-42.1
			C1546.6,995.3,1500.4,976.5,1443.3,976.5z"/>
		<path class="st20" d="M1443.3,1061.4l-0.1-0.8v-0.8h0.1c1.6,0,3.2,0,4.8-0.1l0,1.6C1446.6,1061.4,1445,1061.4,1443.3,1061.4z
			 M1438.2,1061.3c-1.7,0-3.3-0.1-5-0.2l0.1-1.6c1.6,0.1,3.3,0.1,4.9,0.2L1438.2,1061.3z M1453.2,1061.2l-0.1-1.6
			c1.7-0.1,3.3-0.2,5-0.2l0.1,1.6C1456.5,1061.1,1454.9,1061.1,1453.2,1061.2z M1428.3,1060.9c-1.7-0.1-3.3-0.2-5-0.3l0.1-1.6
			c1.6,0.1,3.3,0.2,4.9,0.3L1428.3,1060.9z M1463.1,1060.6l-0.1-1.6c1.7-0.1,3.3-0.3,4.9-0.4l0.2,1.6
			C1466.5,1060.3,1464.8,1060.5,1463.1,1060.6z M1418.3,1060.1c-1.7-0.2-3.3-0.3-5-0.6l0.2-1.6c1.6,0.2,3.3,0.4,4.9,0.6
			L1418.3,1060.1z M1473,1059.6l-0.2-1.6c1.7-0.2,3.3-0.4,4.9-0.7l0.2,1.6C1476.4,1059.2,1474.7,1059.4,1473,1059.6z M1408.4,1058.9
			c-1.7-0.2-3.3-0.5-4.9-0.8l0.3-1.6c1.6,0.3,3.2,0.5,4.9,0.8L1408.4,1058.9z M1482.9,1058.2l-0.3-1.6c1.6-0.3,3.3-0.6,4.9-0.9
			l0.3,1.6C1486.2,1057.6,1484.6,1057.9,1482.9,1058.2z M1398.6,1057.2c-1.7-0.3-3.3-0.7-4.9-1l0.4-1.6c1.6,0.4,3.2,0.7,4.8,1
			L1398.6,1057.2z M1492.7,1056.3l-0.3-1.6c1.6-0.4,3.2-0.7,4.8-1.1l0.4,1.6C1496,1055.5,1494.4,1055.9,1492.7,1056.3z
			 M1388.9,1055.1c-1.6-0.4-3.2-0.8-4.8-1.3l0.5-1.6c1.6,0.4,3.2,0.9,4.8,1.3L1388.9,1055.1z M1502.4,1053.8l-0.4-1.6
			c1.6-0.5,3.2-0.9,4.7-1.4l0.5,1.6C1505.6,1052.9,1504,1053.4,1502.4,1053.8z M1379.3,1052.3c-1.6-0.5-3.2-1.1-4.7-1.6l0.6-1.6
			c1.5,0.5,3.1,1.1,4.7,1.6L1379.3,1052.3z M1511.9,1050.8l-0.6-1.6c1.6-0.6,3.1-1.2,4.6-1.8l0.6,1.5
			C1515.1,1049.6,1513.5,1050.2,1511.9,1050.8z M1369.9,1048.9c-1.6-0.6-3.1-1.3-4.6-2l0.7-1.5c1.5,0.7,3,1.3,4.5,2L1369.9,1048.9z
			 M1521.2,1047l-0.7-1.5c1.5-0.7,3-1.4,4.4-2.2l0.8,1.4C1524.2,1045.5,1522.7,1046.3,1521.2,1047z M1360.8,1044.7
			c-1.5-0.8-3-1.6-4.4-2.5l0.9-1.4c1.3,0.8,2.8,1.7,4.3,2.5L1360.8,1044.7z M1530,1042.3l-0.9-1.4c1.4-0.9,2.8-1.8,4.1-2.7l1,1.3
			C1532.9,1040.4,1531.5,1041.4,1530,1042.3z M1352.3,1039.4c-1.4-1-2.7-2.1-3.9-3.2l1.1-1.2c1.1,1,2.4,2.1,3.8,3.1L1352.3,1039.4z
			 M1538.1,1036.3l-1.1-1.2c1.3-1.1,2.4-2.3,3.4-3.5l1.3,1.1C1540.6,1033.9,1539.4,1035.1,1538.1,1036.3z M1344.9,1032.5
			c-1.2-1.4-2.1-2.8-2.9-4.2l1.4-0.8c0.8,1.3,1.7,2.6,2.7,3.9L1344.9,1032.5z M1544.6,1028.5l-1.4-0.8c0.8-1.4,1.5-2.9,1.9-4.4
			l1.6,0.5C1546.2,1025.4,1545.5,1027,1544.6,1028.5z M1340,1023.6c-0.5-1.7-0.7-3.4-0.7-5.1l1.6,0v0c0,1.5,0.2,3.1,0.6,4.6
			L1340,1023.6z M1547.4,1018.7l-1.6,0l0.8,0l-0.8-0.2c0-1.5-0.2-3-0.6-4.5l1.6-0.4c0.4,1.6,0.7,3.3,0.7,5V1018.7z M1341.6,1013.8
			l-1.6-0.5c0.5-1.6,1.1-3.2,2-4.7l1.4,0.8C1342.6,1010.9,1342,1012.3,1341.6,1013.8z M1543.3,1009.6c-0.7-1.3-1.7-2.7-2.7-4l1.3-1
			c1.1,1.4,2.1,2.8,2.9,4.2L1543.3,1009.6z M1346.2,1005.5l-1.3-1.1c1-1.2,2.2-2.5,3.5-3.6l1.1,1.2
			C1348.3,1003.2,1347.2,1004.3,1346.2,1005.5z M1537.2,1002.2c-1.1-1.1-2.4-2.1-3.8-3.1l1-1.3c1.4,1,2.7,2.1,3.9,3.2L1537.2,1002.2
			z M1353.3,998.9l-1-1.3c1.3-1,2.7-1.9,4.2-2.8l0.9,1.4C1355.9,997.1,1354.6,998,1353.3,998.9z M1529.4,996.3
			c-1.3-0.8-2.8-1.7-4.3-2.5l0.8-1.4c1.5,0.8,3,1.7,4.4,2.5L1529.4,996.3z M1361.6,993.8l-0.8-1.4c1.4-0.8,2.9-1.5,4.5-2.2l0.7,1.5
			C1364.5,992.3,1363,993,1361.6,993.8z M1520.8,991.7c-1.5-0.7-3-1.4-4.5-2l0.6-1.5c1.6,0.6,3.1,1.3,4.6,2L1520.8,991.7z
			 M1370.6,989.6l-0.6-1.5c1.5-0.6,3.1-1.2,4.7-1.8l0.6,1.6C1373.6,988.4,1372.1,989,1370.6,989.6z M1511.6,987.9
			c-1.5-0.5-3.1-1.1-4.7-1.6l0.5-1.6c1.6,0.5,3.2,1.1,4.7,1.6L1511.6,987.9z M1379.9,986.3l-0.5-1.6c1.6-0.5,3.2-1,4.8-1.4l0.5,1.6
			C1383,985.3,1381.4,985.8,1379.9,986.3z M1502.2,984.9c-1.6-0.4-3.1-0.9-4.8-1.3l0.4-1.6c1.6,0.4,3.2,0.9,4.8,1.3L1502.2,984.9z
			 M1389.4,983.6l-0.4-1.6c1.6-0.4,3.2-0.8,4.9-1.2l0.4,1.6C1392.5,982.8,1390.9,983.2,1389.4,983.6z M1492.6,982.4
			c-1.6-0.3-3.2-0.7-4.8-1l0.3-1.6c1.6,0.3,3.3,0.7,4.9,1L1492.6,982.4z M1399,981.4l-0.3-1.6c1.6-0.3,3.3-0.6,4.9-0.9l0.3,1.6
			C1402.2,980.8,1400.6,981.1,1399,981.4z M1482.9,980.6c-1.6-0.3-3.2-0.5-4.9-0.8l0.2-1.6c1.7,0.2,3.3,0.5,4.9,0.8L1482.9,980.6z
			 M1408.8,979.7l-0.2-1.6c1.6-0.2,3.3-0.5,4.9-0.7l0.2,1.6C1412,979.3,1410.4,979.5,1408.8,979.7z M1473.2,979.1
			c-1.6-0.2-3.3-0.4-4.9-0.6l0.2-1.6c1.7,0.2,3.3,0.4,5,0.6L1473.2,979.1z M1418.6,978.5l-0.2-1.6c1.6-0.2,3.3-0.3,5-0.5l0.1,1.6
			C1421.9,978.2,1420.2,978.4,1418.6,978.5z M1463.3,978.1c-1.6-0.1-3.3-0.2-4.9-0.3l0.1-1.6c1.7,0.1,3.3,0.2,5,0.4L1463.3,978.1z
			 M1428.5,977.7l-0.1-1.6c1.7-0.1,3.3-0.2,5-0.3l0.1,1.7C1431.8,977.6,1430.1,977.6,1428.5,977.7z M1453.4,977.5
			c-1.6-0.1-3.3-0.1-4.9-0.2l0-1.6c1.7,0,3.3,0.1,5,0.2L1453.4,977.5z M1438.4,977.3l0-1.6c1.7,0,3.3-0.1,5-0.1h0.2v1.7h-0.2
			C1441.7,977.3,1440,977.3,1438.4,977.3z"/>
	</g>
	<g>
		<path class="st21" d="M1443.3,926c-68.5,0.1-123.9,25.4-123.9,56.5c0,31.2,55.4,56.4,123.9,56.5c68.5-0.1,123.9-25.4,123.9-56.5
			C1567.2,951.4,1511.8,926.1,1443.3,926z"/>
		<g>
			<path class="st22" d="M1544.7,1149.8c-6.5,4-14.1,7.6-22.6,10.7c-7,2.5-14.5,4.7-22.6,6.5c-7.2,1.6-14.7,3-22.6,4
				c-7.3,0.9-14.8,1.5-22.6,1.9c-3.6,0.1-7.3,0.2-11,0.2c-3.9,0-7.8-0.1-11.6-0.2c-7.8-0.3-15.3-1-22.6-1.9c-7.9-1-15.4-2.4-22.6-4
				c-8.1-1.8-15.6-4.1-22.6-6.6c-8.5-3.1-16.1-6.8-22.6-10.8c-11.2-7-18.9-15.1-22.1-23.9c0,7.6,0,23.2,0,30.3
				c3.6,8.3,11.3,16,22.1,22.7c6.5,4,14.1,7.7,22.6,10.9c7,2.6,14.5,4.9,22.6,6.8c7.2,1.7,14.7,3.1,22.6,4.2c7.3,1,14.8,1.7,22.6,2
				c3.8,0.2,7.7,0.3,11.6,0.3c3.7,0,7.4-0.1,11-0.2c7.7-0.3,15.3-1,22.6-2c7.9-1,15.4-2.4,22.6-4.1c8-1.9,15.6-4.2,22.6-6.8
				c8.5-3.2,16.1-6.8,22.6-10.8c11-6.8,18.9-14.6,22.6-23c0-7.1,0-22.6,0-30.3C1564,1134.5,1556.1,1142.8,1544.7,1149.8z"/>
			<path class="st22" d="M1544.7,1113.3c-6.5,4-14.1,7.6-22.6,10.7c-7,2.5-14.5,4.7-22.6,6.5c-7.2,1.6-14.7,3-22.6,3.9
				c-7.3,0.9-14.8,1.5-22.6,1.8c-3.6,0.1-7.3,0.2-11,0.2c-3.9,0-7.8-0.1-11.6-0.3c-7.8-0.3-15.3-1-22.6-1.9c-7.9-1-15.4-2.4-22.6-4
				c-8.1-1.8-15.6-4.1-22.6-6.6c-8.5-3.1-16.1-6.8-22.6-10.8c-11.2-7-18.9-15.1-22.1-23.9c0,7.6,0,23.2,0,30.3
				c3.6,8.2,11.3,16,22.1,22.7c6.5,4,14.1,7.7,22.6,10.9c7,2.6,14.5,4.9,22.6,6.8c7.2,1.7,14.7,3.1,22.6,4.2c7.3,1,14.8,1.7,22.6,2
				c3.8,0.2,7.7,0.3,11.6,0.3c3.7,0,7.4-0.1,11-0.2c7.7-0.3,15.3-1,22.6-2c7.9-1,15.4-2.4,22.6-4.1c8-1.9,15.6-4.2,22.6-6.7
				c8.5-3.2,16.1-6.8,22.6-10.8c11-6.8,18.9-14.6,22.6-23c0-7.1,0-23,0-30.6C1564,1097.6,1556.1,1106.2,1544.7,1113.3z"/>
			<path class="st22" d="M1544.7,1078.9c-6.5,4-14.1,7.6-22.6,10.7c-7,2.5-14.5,4.7-22.6,6.5c-7.2,1.6-14.7,3-22.6,4
				c-7.3,0.9-14.8,1.5-22.6,1.8c-3.6,0.2-7.3,0.2-11,0.2c-3.9,0-7.8-0.1-11.6-0.2c-7.8-0.3-15.3-1-22.6-1.9c-7.9-1-15.4-2.4-22.6-4
				c-8.1-1.8-15.6-4.1-22.6-6.6c-8.5-3.1-16.1-6.8-22.6-10.8c-11.2-7-18.9-15.1-22.1-23.9c0,7.6,0,23.2,0,30.2
				c3.6,8.3,11.3,16,22.1,22.7c6.5,4,14.1,7.7,22.6,10.9c7,2.6,14.5,4.9,22.6,6.8c7.2,1.7,14.7,3.1,22.6,4.2c7.3,1,14.8,1.7,22.6,2
				c3.8,0.2,7.7,0.3,11.6,0.3c3.7,0,7.4-0.1,11-0.2c7.7-0.3,15.3-1,22.6-2c7.9-1,15.4-2.4,22.6-4.1c8-1.9,15.6-4.2,22.6-6.7
				c8.5-3.2,16.1-6.8,22.6-10.8c11-6.8,18.9-14.6,22.6-23c0-7.1,0-22.6,0-30.2C1564,1063.6,1556.1,1071.9,1544.7,1078.9z"/>
			<path class="st22" d="M1544.7,1044.6c-6.5,4-14.1,7.6-22.6,10.7c-7,2.5-14.5,4.7-22.6,6.5c-7.2,1.6-14.7,2.9-22.6,3.9
				c-7.3,0.9-14.8,1.5-22.6,1.8c-3.6,0.1-7.3,0.2-11,0.2c-3.9,0-7.8-0.1-11.6-0.3c-7.8-0.3-15.3-1-22.6-1.9c-7.9-1-15.4-2.4-22.6-4
				c-8.1-1.8-15.6-4.1-22.6-6.6c-8.5-3.1-16.1-6.8-22.6-10.8c-11.2-7-18.9-15.1-22.1-23.9c0,7.6,0,23.2,0,30.3
				c3.6,8.2,11.3,16,22.1,22.7c6.5,4,14.1,7.7,22.6,10.9c7,2.6,14.5,4.9,22.6,6.8c7.2,1.7,14.7,3.1,22.6,4.2c7.3,1,14.8,1.7,22.6,2
				c3.8,0.2,7.7,0.3,11.6,0.3c3.7,0,7.4-0.1,11-0.3c7.7-0.3,15.3-1,22.6-2c7.9-1,15.4-2.4,22.6-4.1c8-1.9,15.6-4.2,22.6-6.7
				c8.5-3.2,16.1-6.8,22.6-10.8c11-6.8,18.9-14.6,22.6-23c0-7.1,0-22.6,0-30.3C1564,1029.3,1556.1,1037.5,1544.7,1044.6z"/>
			<path class="st22" d="M1544.7,1009.1c-6.5,4-14.1,7.6-22.6,10.7c-7,2.5-14.5,4.7-22.6,6.5c-7.2,1.6-14.7,3-22.6,3.9
				c-7.3,0.9-14.8,1.5-22.6,1.9c-3.6,0.2-7.3,0.2-11,0.2c-3.9,0-7.8-0.1-11.6-0.2c-7.8-0.3-15.3-1-22.6-1.9c-7.9-1-15.4-2.4-22.6-4
				c-8.1-1.9-15.6-4.1-22.6-6.6c-8.5-3.1-16.1-6.8-22.6-10.8c-11.2-7-18.9-15.1-22.1-23.9c0,7.6,0,23.2,0,30.3
				c3.6,8.2,11.3,16,22.1,22.7c6.5,4,14.1,7.7,22.6,10.9c7,2.6,14.5,4.9,22.6,6.8c7.2,1.7,14.7,3.1,22.6,4.1c7.3,1,14.8,1.7,22.6,2
				c3.8,0.2,7.7,0.3,11.6,0.3c3.7,0,7.4-0.1,11-0.2c7.7-0.3,15.3-1,22.6-2c7.9-1,15.4-2.4,22.6-4.1c8-1.9,15.6-4.2,22.6-6.7
				c8.5-3.2,16.1-6.8,22.6-10.8c11-6.8,18.9-14.6,22.6-23c0-7.1,0-22.6,0-30.3C1564,993.8,1556.1,1002.1,1544.7,1009.1z"/>
		</g>
	</g>
	<path class="st22" d="M1443.7,1022.6L1443.7,1022.6c-53.2-0.1-109.7-15.5-109.7-44c0-28.5,56.5-44,109.7-44
		c53.2,0.1,109.7,15.5,109.7,44C1553.5,1007.1,1496.9,1022.6,1443.7,1022.6z M1443.7,946.8c-57,0.1-96.8,16.8-96.8,31.8
		c0,15,39.7,31.7,96.8,31.8c57-0.1,96.8-16.8,96.8-31.8C1540.5,963.6,1500.8,946.9,1443.7,946.8z"/>
	<g>
		<path class="st22" d="M1520.1,980.6h-17.8c-0.6,5.7-3.9,11.3-8,14.5l-21.9-2.6c4.3-3.6,8.2-8.6,8.2-14.2c0-4.9-4.1-8.2-11.6-8.2
			c-7.1,0-11.6,2.7-16.3,9c-6.7,9.1-16.1,15.4-34.2,15.4c-16.4,0-29.3-5.3-33.3-14.4h-17.8v-8.4h16.5c0.6-5.7,3.2-9.6,6.2-12.4
			l21.1,2.5c-2.1,2.2-6.4,6.1-6.4,12.3c0,5.5,5.2,7.3,10.5,7.3c6.2,0,10.1-3,16.1-10.2c7.8-10.2,18.1-14.2,35-14.2
			c16.6,0,30.8,5.4,34.6,15.2h19.1V980.6z"/>
	</g>
</g>
<g>
	
		<rect x="1355.2" y="953.1" transform="matrix(0.9605 -0.2784 0.2784 0.9605 -233.2678 483.7859)" class="st9" width="463.6" height="220.4"/>
	<g>
		<path class="st23" d="M1774.2,967c-23.4,6.8-47.8-6.7-54.6-30.1c-0.2-0.6-0.3-1.1-0.4-1.7l-311.9,90.4c0.2,0.5,0.4,1,0.5,1.5
			c6.8,23.4-6.7,47.8-30.1,54.6c-0.3,0.1-0.6,0.1-1,0.2l22.8,78.7c0.3-0.1,0.6-0.2,0.9-0.3c23.4-6.8,47.8,6.7,54.6,30.1
			c0.1,0.3,0.1,0.6,0.2,0.9l311.8-90.4c-0.1-0.3-0.2-0.5-0.3-0.8c-6.8-23.4,6.7-47.8,30.1-54.6c0.2-0.1,0.4-0.1,0.6-0.1l-22.8-78.6
			C1774.5,966.9,1774.4,966.9,1774.2,967z"/>
		<path class="st24" d="M1718.1,919.5l-318.3,92.3l-54.8,15.9l16.1,55.7l24.5,84.7l15.9,55l55-16l317.8-92.1l54.7-15.8l-15.9-55
			l-24.5-84.4l-16.2-55.9L1718.1,919.5z M1797.5,1045.4c-0.2,0.1-0.4,0.1-0.6,0.1c-23.4,6.8-36.8,31.2-30.1,54.6
			c0.1,0.3,0.2,0.5,0.3,0.8l-311.8,90.4c-0.1-0.3-0.1-0.6-0.2-0.9c-6.8-23.4-31.2-36.8-54.6-30.1c-0.3,0.1-0.6,0.2-0.9,0.3
			l-22.8-78.7c0.3-0.1,0.6-0.1,1-0.2c23.4-6.8,36.8-31.2,30.1-54.6c-0.2-0.5-0.4-1-0.5-1.5l311.9-90.4c0.1,0.6,0.2,1.1,0.4,1.7
			c6.8,23.4,31.2,36.8,54.6,30.1c0.2-0.1,0.4-0.1,0.5-0.2L1797.5,1045.4z"/>
	</g>
	<g>
		
			<ellipse transform="matrix(0.9605 -0.2784 0.2784 0.9605 -233.2693 483.7906)" class="st24" cx="1587" cy="1063.3" rx="71.4" ry="71.4"/>
		<g>
			<g>
				<path class="st9" d="M1595.6,1119.2l-3.6-12.5c-9,2.2-18.2,2.3-24.1,0.8l-0.5-16.6c6.4,1.4,15,1.9,23.6-0.5
					c7.5-2.2,11.8-6.6,10.3-11.9c-1.5-5-6.6-7-17.3-7.4c-15.5-0.7-27.1-4.5-30.8-17.3c-3.4-11.6,2.2-23.1,15.5-30l-3.6-12.5
					l12.9-3.7l3.4,11.6c9-2.2,15.4-2,20.4-1.2l0.5,16c-3.9-0.5-10.8-1.7-20.3,1c-8.6,2.5-10.3,7-9.2,10.7c1.3,4.4,6.7,5.8,19.1,6.8
					c17.3,1,25.8,6.4,29.2,18.3c3.4,11.7-2,24.2-16.4,31.2l3.9,13.5L1595.6,1119.2z"/>
			</g>
		</g>
	</g>
</g>
<g>
	<ellipse class="st21" cx="1735.3" cy="1064.9" rx="105.7" ry="105.6"/>
	<path class="st22" d="M1735.3,1157.7c-51.1,0-92.8-41.6-92.8-92.8c0-51.1,41.6-92.8,92.8-92.8c51.1,0,92.8,41.6,92.8,92.8
		C1828,1116.1,1786.4,1157.7,1735.3,1157.7z M1735.3,989.7c-41.5,0-75.3,33.8-75.3,75.3c0,41.5,33.8,75.3,75.3,75.3
		c41.5,0,75.3-33.8,75.3-75.3C1810.5,1023.4,1776.8,989.7,1735.3,989.7z"/>
	<g>
		<path class="st22" d="M1726.8,1130.2V1115c-10.7-0.5-21.1-3.4-27.2-6.9l4.8-18.7c6.7,3.7,16.2,7,26.6,7c9.1,0,15.4-3.5,15.4-9.9
			c0-6.1-5.1-9.9-17-13.9c-17.1-5.8-28.8-13.8-28.8-29.3c0-14.1,9.9-25.1,27.1-28.5v-15.2h15.7v14.1c10.7,0.5,17.9,2.7,23.2,5.3
			l-4.6,18.1c-4.2-1.8-11.5-5.4-23-5.4c-10.4,0-13.8,4.5-13.8,9c0,5.3,5.6,8.6,19.2,13.8c19,6.7,26.7,15.5,26.7,29.9
			c0,14.2-10.1,26.4-28.5,29.6v16.3H1726.8z"/>
	</g>
</g>
<g>
	<path class="st16" d="M1721.9,1030.7c-23.6,136.8-142.8,240.8-286.3,240.8c-9.3,0-18.5-0.5-27.6-1.3c45.3,33.4,100.6,53,160.2,53
		c154.1,0,279-131,279-292.5H1721.9z"/>
	<path class="st9" d="M1721.9,1030.7h-432.7c0,99,47,186.6,118.8,239.5c9.1,0.9,18.3,1.3,27.6,1.3
		C1579.1,1271.5,1698.3,1167.4,1721.9,1030.7z"/>
</g>
</svg>
